G04*
G04 #@! TF.GenerationSoftware,Altium Limited,Altium Designer,22.0.2 (36)*
G04*
G04 Layer_Color=32896*
%FSLAX25Y25*%
%MOIN*%
G70*
G04*
G04 #@! TF.SameCoordinates,859FC916-3FFD-46C2-8808-FF4F4C249E12*
G04*
G04*
G04 #@! TF.FilePolarity,Positive*
G04*
G01*
G75*
%ADD10C,0.01000*%
%ADD11C,0.00600*%
%ADD33C,0.01181*%
%ADD110C,0.01968*%
%ADD111C,0.00394*%
%ADD112C,0.00598*%
G36*
X191533Y99187D02*
X189733D01*
Y101268D01*
X191533D01*
Y99187D01*
D02*
G37*
G36*
Y89635D02*
X189733D01*
Y91716D01*
X191533D01*
Y89635D01*
D02*
G37*
G36*
X343378Y49330D02*
X342811D01*
Y51598D01*
X343378D01*
Y49330D01*
D02*
G37*
G36*
Y35251D02*
X344984D01*
Y34684D01*
X343378D01*
Y33834D01*
X342811D01*
Y34684D01*
X341205D01*
Y35251D01*
X342811D01*
Y36101D01*
X343378D01*
Y35251D01*
D02*
G37*
G36*
X384261Y32309D02*
X379025D01*
Y34109D01*
X384261D01*
Y32309D01*
D02*
G37*
G36*
X365069D02*
X359833D01*
Y34109D01*
X365069D01*
Y32309D01*
D02*
G37*
G36*
X501387Y7452D02*
X500000D01*
Y8652D01*
X501387D01*
Y7452D01*
D02*
G37*
G36*
X496457D02*
X495069D01*
Y8652D01*
X496457D01*
Y7452D01*
D02*
G37*
D10*
X445712Y-823D02*
X445399Y140D01*
X444580Y735D01*
X443568D01*
X442749Y140D01*
X442436Y-823D01*
X442749Y-1785D01*
X443568Y-2380D01*
X444580D01*
X445399Y-1785D01*
X445712Y-823D01*
X495110Y50457D02*
Y53957D01*
X515610D01*
Y38957D02*
Y53957D01*
X495110Y38957D02*
X515610D01*
X495110D02*
Y50457D01*
X545540Y35857D02*
Y41957D01*
X537540Y35857D02*
X545540D01*
X537540D02*
Y41957D01*
X545640Y45057D02*
Y50857D01*
X544040Y52457D02*
X545640Y50857D01*
X539040Y52457D02*
X544040D01*
X537540Y50957D02*
X539040Y52457D01*
X537540Y44957D02*
Y50957D01*
X539567Y42915D02*
X543505D01*
X541535Y43308D02*
Y44367D01*
X372047Y45463D02*
Y53463D01*
X370047Y47463D02*
X374047D01*
X370047D02*
X372047D01*
X374047Y51463D01*
X370047D02*
X374047D01*
X370047D02*
X372047Y47463D01*
X338387Y15748D02*
X339446D01*
X337993Y13779D02*
Y17717D01*
X340036Y19743D02*
X346036D01*
X347536Y18243D01*
Y13243D02*
Y18243D01*
X345936Y11643D02*
X347536Y13243D01*
X340136Y11643D02*
X345936D01*
X330936Y19743D02*
X337036D01*
X330936Y11743D02*
Y19743D01*
Y11743D02*
X337036D01*
X143746Y195122D02*
X144167Y195543D01*
X143746Y125600D02*
Y195122D01*
X170452Y195109D02*
X170518Y195043D01*
Y125600D02*
Y195543D01*
X143746Y125600D02*
X170518D01*
X144167Y195543D02*
X170518D01*
X156693Y121260D02*
Y125197D01*
Y196063D02*
Y199016D01*
X192562Y14940D02*
Y18088D01*
X190988D01*
X190463Y17563D01*
Y16514D01*
X190988Y15989D01*
X192562D01*
X191513D02*
X190463Y14940D01*
X189413Y17563D02*
X188889Y18088D01*
X187839D01*
X187314Y17563D01*
Y17039D01*
X187839Y16514D01*
X188364D01*
X187839D01*
X187314Y15989D01*
Y15464D01*
X187839Y14940D01*
X188889D01*
X189413Y15464D01*
X186265Y17563D02*
X185740Y18088D01*
X184690D01*
X184166Y17563D01*
Y17039D01*
X184690Y16514D01*
X184166Y15989D01*
Y15464D01*
X184690Y14940D01*
X185740D01*
X186265Y15464D01*
Y15989D01*
X185740Y16514D01*
X186265Y17039D01*
Y17563D01*
X185740Y16514D02*
X184690D01*
X218273Y12040D02*
Y15189D01*
X216699D01*
X216174Y14664D01*
Y13615D01*
X216699Y13090D01*
X218273D01*
X217224D02*
X216174Y12040D01*
X215125Y14664D02*
X214600Y15189D01*
X213550D01*
X213026Y14664D01*
Y14139D01*
X213550Y13615D01*
X214075D01*
X213550D01*
X213026Y13090D01*
Y12565D01*
X213550Y12040D01*
X214600D01*
X215125Y12565D01*
X209877Y12040D02*
X211976D01*
X209877Y14139D01*
Y14664D01*
X210402Y15189D01*
X211452D01*
X211976Y14664D01*
X335320Y22406D02*
Y25554D01*
X336894D01*
X337419Y25030D01*
Y22930D01*
X336894Y22406D01*
X335320D01*
X338468D02*
X340567D01*
Y22930D01*
X338468Y25030D01*
Y25554D01*
X158408Y31557D02*
X157884Y31032D01*
X156834D01*
X156309Y31557D01*
Y33656D01*
X156834Y34181D01*
X157884D01*
X158408Y33656D01*
X161557Y34181D02*
X159458D01*
X161557Y32081D01*
Y31557D01*
X161032Y31032D01*
X159983D01*
X159458Y31557D01*
X164181Y34181D02*
Y31032D01*
X162607Y32606D01*
X164706D01*
X451443Y40944D02*
Y38321D01*
X450918Y37796D01*
X449868D01*
X449344Y38321D01*
Y40944D01*
X448294Y40420D02*
X447769Y40944D01*
X446720D01*
X446195Y40420D01*
Y39895D01*
X446720Y39370D01*
X447245D01*
X446720D01*
X446195Y38845D01*
Y38321D01*
X446720Y37796D01*
X447769D01*
X448294Y38321D01*
X399214Y34314D02*
Y31166D01*
X400788D01*
X401313Y31690D01*
Y32740D01*
X400788Y33265D01*
X399214D01*
X400264D02*
X401313Y34314D01*
X402363Y31690D02*
X402887Y31166D01*
X403937D01*
X404462Y31690D01*
Y32215D01*
X403937Y32740D01*
X403412D01*
X403937D01*
X404462Y33265D01*
Y33790D01*
X403937Y34314D01*
X402887D01*
X402363Y33790D01*
X407610Y31166D02*
X406561Y31690D01*
X405511Y32740D01*
Y33790D01*
X406036Y34314D01*
X407086D01*
X407610Y33790D01*
Y33265D01*
X407086Y32740D01*
X405511D01*
X152615Y4087D02*
X155763D01*
Y5662D01*
X155238Y6186D01*
X154189D01*
X153664Y5662D01*
Y4087D01*
Y5137D02*
X152615Y6186D01*
X155238Y7236D02*
X155763Y7761D01*
Y8810D01*
X155238Y9335D01*
X154714D01*
X154189Y8810D01*
Y8285D01*
Y8810D01*
X153664Y9335D01*
X153139D01*
X152615Y8810D01*
Y7761D01*
X153139Y7236D01*
X155763Y12483D02*
Y10384D01*
X154189D01*
X154714Y11434D01*
Y11959D01*
X154189Y12483D01*
X153139D01*
X152615Y11959D01*
Y10909D01*
X153139Y10384D01*
X312282Y17800D02*
Y14652D01*
X313856D01*
X314381Y15177D01*
Y16226D01*
X313856Y16751D01*
X312282D01*
X313331D02*
X314381Y17800D01*
X315430Y15177D02*
X315955Y14652D01*
X317004D01*
X317529Y15177D01*
Y15701D01*
X317004Y16226D01*
X316480D01*
X317004D01*
X317529Y16751D01*
Y17276D01*
X317004Y17800D01*
X315955D01*
X315430Y17276D01*
X320153Y17800D02*
Y14652D01*
X318579Y16226D01*
X320678D01*
X192181Y27681D02*
Y30829D01*
X190606D01*
X190082Y30305D01*
Y29255D01*
X190606Y28730D01*
X192181D01*
X191131D02*
X190082Y27681D01*
X189032Y30305D02*
X188507Y30829D01*
X187458D01*
X186933Y30305D01*
Y29780D01*
X187458Y29255D01*
X187982D01*
X187458D01*
X186933Y28730D01*
Y28206D01*
X187458Y27681D01*
X188507D01*
X189032Y28206D01*
X185883Y30305D02*
X185359Y30829D01*
X184309D01*
X183784Y30305D01*
Y29780D01*
X184309Y29255D01*
X184834D01*
X184309D01*
X183784Y28730D01*
Y28206D01*
X184309Y27681D01*
X185359D01*
X185883Y28206D01*
X497755Y29365D02*
X500904D01*
Y30939D01*
X500379Y31464D01*
X499330D01*
X498805Y30939D01*
Y29365D01*
Y30415D02*
X497755Y31464D01*
X500379Y32514D02*
X500904Y33038D01*
Y34088D01*
X500379Y34613D01*
X499854D01*
X499330Y34088D01*
Y33563D01*
Y34088D01*
X498805Y34613D01*
X498280D01*
X497755Y34088D01*
Y33038D01*
X498280Y32514D01*
X497755Y35662D02*
Y36712D01*
Y36187D01*
X500904D01*
X500379Y35662D01*
X503443Y55616D02*
Y58765D01*
X501869D01*
X501344Y58240D01*
Y57191D01*
X501869Y56666D01*
X503443D01*
X502394D02*
X501344Y55616D01*
X500295Y58240D02*
X499770Y58765D01*
X498720D01*
X498196Y58240D01*
Y57715D01*
X498720Y57191D01*
X499245D01*
X498720D01*
X498196Y56666D01*
Y56141D01*
X498720Y55616D01*
X499770D01*
X500295Y56141D01*
X497146Y58240D02*
X496621Y58765D01*
X495572D01*
X495047Y58240D01*
Y56141D01*
X495572Y55616D01*
X496621D01*
X497146Y56141D01*
Y58240D01*
X176214Y12584D02*
X173065D01*
Y11010D01*
X173590Y10485D01*
X174639D01*
X175164Y11010D01*
Y12584D01*
Y11535D02*
X176214Y10485D01*
Y7337D02*
Y9436D01*
X174114Y7337D01*
X173590D01*
X173065Y7861D01*
Y8911D01*
X173590Y9436D01*
X175689Y6287D02*
X176214Y5762D01*
Y4713D01*
X175689Y4188D01*
X173590D01*
X173065Y4713D01*
Y5762D01*
X173590Y6287D01*
X174114D01*
X174639Y5762D01*
Y4188D01*
X466993Y50788D02*
Y53936D01*
X465419D01*
X464894Y53412D01*
Y52362D01*
X465419Y51837D01*
X466993D01*
X465944D02*
X464894Y50788D01*
X461746D02*
X463845D01*
X461746Y52887D01*
Y53412D01*
X462270Y53936D01*
X463320D01*
X463845Y53412D01*
X460696D02*
X460172Y53936D01*
X459122D01*
X458597Y53412D01*
Y52887D01*
X459122Y52362D01*
X458597Y51837D01*
Y51313D01*
X459122Y50788D01*
X460172D01*
X460696Y51313D01*
Y51837D01*
X460172Y52362D01*
X460696Y52887D01*
Y53412D01*
X460172Y52362D02*
X459122D01*
X537352Y34713D02*
X534203D01*
Y33139D01*
X534728Y32614D01*
X535778D01*
X536302Y33139D01*
Y34713D01*
Y33664D02*
X537352Y32614D01*
Y29466D02*
Y31565D01*
X535253Y29466D01*
X534728D01*
X534203Y29990D01*
Y31040D01*
X534728Y31565D01*
X534203Y28416D02*
Y26317D01*
X534728D01*
X536827Y28416D01*
X537352D01*
X530435Y49262D02*
Y52411D01*
X528861D01*
X528336Y51886D01*
Y50837D01*
X528861Y50312D01*
X530435D01*
X529385D02*
X528336Y49262D01*
X525187D02*
X527286D01*
X525187Y51362D01*
Y51886D01*
X525712Y52411D01*
X526762D01*
X527286Y51886D01*
X522039Y52411D02*
X523088Y51886D01*
X524138Y50837D01*
Y49787D01*
X523613Y49262D01*
X522564D01*
X522039Y49787D01*
Y50312D01*
X522564Y50837D01*
X524138D01*
X485283Y36049D02*
Y39197D01*
X483709D01*
X483184Y38673D01*
Y37623D01*
X483709Y37098D01*
X485283D01*
X484234D02*
X483184Y36049D01*
X480036D02*
X482135D01*
X480036Y38148D01*
Y38673D01*
X480560Y39197D01*
X481610D01*
X482135Y38673D01*
X477412Y36049D02*
Y39197D01*
X478986Y37623D01*
X476887D01*
X530053Y22549D02*
Y25697D01*
X528479D01*
X527954Y25172D01*
Y24123D01*
X528479Y23598D01*
X530053D01*
X529004D02*
X527954Y22549D01*
X524806D02*
X526905D01*
X524806Y24648D01*
Y25172D01*
X525330Y25697D01*
X526380D01*
X526905Y25172D01*
X523756D02*
X523231Y25697D01*
X522182D01*
X521657Y25172D01*
Y24648D01*
X522182Y24123D01*
X522707D01*
X522182D01*
X521657Y23598D01*
Y23073D01*
X522182Y22549D01*
X523231D01*
X523756Y23073D01*
X513930Y21881D02*
Y25029D01*
X512355D01*
X511831Y24505D01*
Y23455D01*
X512355Y22930D01*
X513930D01*
X512880D02*
X511831Y21881D01*
X508682D02*
X510781D01*
X508682Y23980D01*
Y24505D01*
X509207Y25029D01*
X510256D01*
X510781Y24505D01*
X505533Y21881D02*
X507632D01*
X505533Y23980D01*
Y24505D01*
X506058Y25029D01*
X507108D01*
X507632Y24505D01*
X475724Y11057D02*
X472575D01*
Y9483D01*
X473100Y8958D01*
X474150D01*
X474674Y9483D01*
Y11057D01*
Y10008D02*
X475724Y8958D01*
Y5810D02*
Y7909D01*
X473625Y5810D01*
X473100D01*
X472575Y6334D01*
Y7384D01*
X473100Y7909D01*
X475724Y4760D02*
Y3711D01*
Y4235D01*
X472575D01*
X473100Y4760D01*
X563637Y14439D02*
Y17588D01*
X562062D01*
X561538Y17063D01*
Y16013D01*
X562062Y15488D01*
X563637D01*
X562587D02*
X561538Y14439D01*
X558389D02*
X560488D01*
X558389Y16538D01*
Y17063D01*
X558914Y17588D01*
X559963D01*
X560488Y17063D01*
X557339D02*
X556815Y17588D01*
X555765D01*
X555240Y17063D01*
Y14964D01*
X555765Y14439D01*
X556815D01*
X557339Y14964D01*
Y17063D01*
X221902Y94744D02*
Y97893D01*
X220328D01*
X219803Y97368D01*
Y96319D01*
X220328Y95794D01*
X221902D01*
X220853D02*
X219803Y94744D01*
X218754D02*
X217704D01*
X218229D01*
Y97893D01*
X218754Y97368D01*
X216130Y97893D02*
X214031D01*
Y97368D01*
X216130Y95269D01*
Y94744D01*
X221521Y74145D02*
Y77293D01*
X219946D01*
X219422Y76768D01*
Y75719D01*
X219946Y75194D01*
X221521D01*
X220471D02*
X219422Y74145D01*
X218372D02*
X217322D01*
X217847D01*
Y77293D01*
X218372Y76768D01*
X213649Y77293D02*
X214699Y76768D01*
X215748Y75719D01*
Y74669D01*
X215224Y74145D01*
X214174D01*
X213649Y74669D01*
Y75194D01*
X214174Y75719D01*
X215748D01*
X233452Y114626D02*
Y117775D01*
X231877D01*
X231352Y117250D01*
Y116200D01*
X231877Y115676D01*
X233452D01*
X232402D02*
X231352Y114626D01*
X230303D02*
X229253D01*
X229778D01*
Y117775D01*
X230303Y117250D01*
X226105Y114626D02*
Y117775D01*
X227679Y116200D01*
X225580D01*
X525211Y4803D02*
Y7952D01*
X523637D01*
X523112Y7427D01*
Y6377D01*
X523637Y5852D01*
X525211D01*
X524162D02*
X523112Y4803D01*
X522063D02*
X521013D01*
X521538D01*
Y7952D01*
X522063Y7427D01*
X519439D02*
X518914Y7952D01*
X517865D01*
X517340Y7427D01*
Y6902D01*
X517865Y6377D01*
X518389D01*
X517865D01*
X517340Y5852D01*
Y5328D01*
X517865Y4803D01*
X518914D01*
X519439Y5328D01*
X252341Y114626D02*
Y117775D01*
X250767D01*
X250242Y117250D01*
Y116200D01*
X250767Y115676D01*
X252341D01*
X251291D02*
X250242Y114626D01*
X249192D02*
X248143D01*
X248668D01*
Y117775D01*
X249192Y117250D01*
X246568Y114626D02*
X245519D01*
X246044D01*
Y117775D01*
X246568Y117250D01*
X562134Y27605D02*
Y30754D01*
X560560D01*
X560035Y30229D01*
Y29179D01*
X560560Y28655D01*
X562134D01*
X561084D02*
X560035Y27605D01*
X558985D02*
X557936D01*
X558461D01*
Y30754D01*
X558985Y30229D01*
X556361D02*
X555837Y30754D01*
X554787D01*
X554262Y30229D01*
Y28130D01*
X554787Y27605D01*
X555837D01*
X556361Y28130D01*
Y30229D01*
X265597Y96026D02*
Y92877D01*
X267172D01*
X267696Y93402D01*
Y94452D01*
X267172Y94976D01*
X265597D01*
X266647D02*
X267696Y96026D01*
X268746Y93402D02*
X269271Y92877D01*
X270320D01*
X270845Y93402D01*
Y93927D01*
X270320Y94452D01*
X270845Y94976D01*
Y95501D01*
X270320Y96026D01*
X269271D01*
X268746Y95501D01*
Y94976D01*
X269271Y94452D01*
X268746Y93927D01*
Y93402D01*
X269271Y94452D02*
X270320D01*
X563104Y180694D02*
Y183843D01*
X561530D01*
X561005Y183318D01*
Y182269D01*
X561530Y181744D01*
X563104D01*
X562055D02*
X561005Y180694D01*
X559956Y183318D02*
X559431Y183843D01*
X558382D01*
X557857Y183318D01*
Y182793D01*
X558382Y182269D01*
X558906D01*
X558382D01*
X557857Y181744D01*
Y181219D01*
X558382Y180694D01*
X559431D01*
X559956Y181219D01*
X562017Y165780D02*
Y168929D01*
X560443D01*
X559918Y168404D01*
Y167355D01*
X560443Y166830D01*
X562017D01*
X560967D02*
X559918Y165780D01*
X556769D02*
X558869D01*
X556769Y167879D01*
Y168404D01*
X557294Y168929D01*
X558344D01*
X558869Y168404D01*
X519702Y146672D02*
Y149821D01*
X518128D01*
X517603Y149296D01*
Y148246D01*
X518128Y147722D01*
X519702D01*
X518653D02*
X517603Y146672D01*
X516554D02*
X515504D01*
X516029D01*
Y149821D01*
X516554Y149296D01*
X182015Y21642D02*
X179916D01*
X179391Y22167D01*
Y23216D01*
X179916Y23741D01*
X182015D01*
X182540Y23216D01*
Y22167D01*
X181490Y22691D02*
X182540Y21642D01*
Y22167D02*
X182015Y21642D01*
X182540Y18493D02*
Y20592D01*
X180441Y18493D01*
X179916D01*
X179391Y19018D01*
Y20067D01*
X179916Y20592D01*
X495801Y19982D02*
Y23131D01*
X497376D01*
X497901Y22606D01*
Y20507D01*
X497376Y19982D01*
X495801D01*
X501049D02*
X500000Y20507D01*
X498950Y21556D01*
Y22606D01*
X499475Y23131D01*
X500524D01*
X501049Y22606D01*
Y22081D01*
X500524Y21556D01*
X498950D01*
X553285Y44588D02*
Y41439D01*
X551711D01*
X551186Y41964D01*
Y44063D01*
X551711Y44588D01*
X553285D01*
X548037D02*
X550136D01*
Y43014D01*
X549087Y43538D01*
X548562D01*
X548037Y43014D01*
Y41964D01*
X548562Y41439D01*
X549612D01*
X550136Y41964D01*
X388295Y31154D02*
X387770Y30629D01*
X386720D01*
X386196Y31154D01*
Y33253D01*
X386720Y33777D01*
X387770D01*
X388295Y33253D01*
X391443Y33777D02*
X389344D01*
X391443Y31678D01*
Y31154D01*
X390918Y30629D01*
X389869D01*
X389344Y31154D01*
X392493D02*
X393018Y30629D01*
X394067D01*
X394592Y31154D01*
Y31678D01*
X394067Y32203D01*
X393542D01*
X394067D01*
X394592Y32728D01*
Y33253D01*
X394067Y33777D01*
X393018D01*
X392493Y33253D01*
X473239Y33757D02*
X472714Y34282D01*
Y35332D01*
X473239Y35857D01*
X475338D01*
X475863Y35332D01*
Y34282D01*
X475338Y33757D01*
X475863Y30609D02*
Y32708D01*
X473764Y30609D01*
X473239D01*
X472714Y31134D01*
Y32183D01*
X473239Y32708D01*
X475863Y27460D02*
Y29559D01*
X473764Y27460D01*
X473239D01*
X472714Y27985D01*
Y29035D01*
X473239Y29559D01*
X475615Y15812D02*
X476140Y15287D01*
Y14238D01*
X475615Y13713D01*
X473516D01*
X472992Y14238D01*
Y15287D01*
X473516Y15812D01*
X472992Y16861D02*
Y17911D01*
Y17386D01*
X476140D01*
X475615Y16861D01*
Y19485D02*
X476140Y20010D01*
Y21059D01*
X475615Y21584D01*
X475091D01*
X474566Y21059D01*
X474041Y21584D01*
X473516D01*
X472992Y21059D01*
Y20010D01*
X473516Y19485D01*
X474041D01*
X474566Y20010D01*
X475091Y19485D01*
X475615D01*
X474566Y20010D02*
Y21059D01*
X360245Y24381D02*
X360769Y24905D01*
X361819D01*
X362344Y24381D01*
Y22282D01*
X361819Y21757D01*
X360769D01*
X360245Y22282D01*
X359195Y21757D02*
X358146D01*
X358670D01*
Y24905D01*
X359195Y24381D01*
X356571Y24905D02*
X354472D01*
Y24381D01*
X356571Y22282D01*
Y21757D01*
X371014Y24530D02*
X371539Y25055D01*
X372588D01*
X373113Y24530D01*
Y22431D01*
X372588Y21906D01*
X371539D01*
X371014Y22431D01*
X369964Y21906D02*
X368915D01*
X369440D01*
Y25055D01*
X369964Y24530D01*
X365241Y25055D02*
X366291Y24530D01*
X367340Y23481D01*
Y22431D01*
X366816Y21906D01*
X365766D01*
X365241Y22431D01*
Y22956D01*
X365766Y23481D01*
X367340D01*
X492354Y23969D02*
X492879Y24494D01*
X493929D01*
X494453Y23969D01*
Y21870D01*
X493929Y21345D01*
X492879D01*
X492354Y21870D01*
X491305Y21345D02*
X490255D01*
X490780D01*
Y24494D01*
X491305Y23969D01*
X487107Y21345D02*
Y24494D01*
X488681Y22919D01*
X486582D01*
X483199Y23969D02*
X483724Y24494D01*
X484774D01*
X485298Y23969D01*
Y21870D01*
X484774Y21345D01*
X483724D01*
X483199Y21870D01*
X482150Y21345D02*
X481100D01*
X481625D01*
Y24494D01*
X482150Y23969D01*
X479526D02*
X479001Y24494D01*
X477952D01*
X477427Y23969D01*
Y23444D01*
X477952Y22919D01*
X478476D01*
X477952D01*
X477427Y22395D01*
Y21870D01*
X477952Y21345D01*
X479001D01*
X479526Y21870D01*
X191956Y167150D02*
X192481Y167675D01*
X193530D01*
X194055Y167150D01*
Y165051D01*
X193530Y164526D01*
X192481D01*
X191956Y165051D01*
X190907Y164526D02*
X189857D01*
X190382D01*
Y167675D01*
X190907Y167150D01*
X186184Y164526D02*
X188283D01*
X186184Y166625D01*
Y167150D01*
X186708Y167675D01*
X187758D01*
X188283Y167150D01*
X259949Y71664D02*
X260474Y72188D01*
X261523D01*
X262048Y71664D01*
Y69564D01*
X261523Y69040D01*
X260474D01*
X259949Y69564D01*
X258899Y69040D02*
X257850D01*
X258375D01*
Y72188D01*
X258899Y71664D01*
X256276Y69040D02*
X255226D01*
X255751D01*
Y72188D01*
X256276Y71664D01*
X537201Y98269D02*
X537726Y98794D01*
X538775D01*
X539300Y98269D01*
Y96170D01*
X538775Y95646D01*
X537726D01*
X537201Y96170D01*
X536151Y98794D02*
X534052D01*
Y98269D01*
X536151Y96170D01*
Y95646D01*
X548701Y98369D02*
X549226Y98894D01*
X550275D01*
X550800Y98369D01*
Y96270D01*
X550275Y95746D01*
X549226D01*
X548701Y96270D01*
X545552Y98894D02*
X546602Y98369D01*
X547651Y97320D01*
Y96270D01*
X547127Y95746D01*
X546077D01*
X545552Y96270D01*
Y96795D01*
X546077Y97320D01*
X547651D01*
X177441Y177869D02*
X177966Y178394D01*
X179016D01*
X179540Y177869D01*
Y175770D01*
X179016Y175245D01*
X177966D01*
X177441Y175770D01*
X174817Y175245D02*
Y178394D01*
X176392Y176820D01*
X174293D01*
X143970Y77728D02*
X143445Y78253D01*
Y79302D01*
X143970Y79827D01*
X146069D01*
X146593Y79302D01*
Y78253D01*
X146069Y77728D01*
X143970Y76678D02*
X143445Y76153D01*
Y75104D01*
X143970Y74579D01*
X144494D01*
X145019Y75104D01*
Y75629D01*
Y75104D01*
X145544Y74579D01*
X146069D01*
X146593Y75104D01*
Y76153D01*
X146069Y76678D01*
X168701Y96869D02*
X169226Y97394D01*
X170275D01*
X170800Y96869D01*
Y94770D01*
X170275Y94246D01*
X169226D01*
X168701Y94770D01*
X165552Y94246D02*
X167651D01*
X165552Y96345D01*
Y96869D01*
X166077Y97394D01*
X167127D01*
X167651Y96869D01*
X520555Y169492D02*
X521080Y170017D01*
X522129D01*
X522654Y169492D01*
Y167393D01*
X522129Y166868D01*
X521080D01*
X520555Y167393D01*
X519506Y166868D02*
X518456D01*
X518981D01*
Y170017D01*
X519506Y169492D01*
X253477Y10044D02*
Y13193D01*
X251903D01*
X251378Y12668D01*
Y11619D01*
X251903Y11094D01*
X253477D01*
X252428D02*
X251378Y10044D01*
X250329Y12668D02*
X249804Y13193D01*
X248755D01*
X248230Y12668D01*
Y12143D01*
X248755Y11619D01*
X249279D01*
X248755D01*
X248230Y11094D01*
Y10569D01*
X248755Y10044D01*
X249804D01*
X250329Y10569D01*
X247180Y13193D02*
X245081D01*
Y12668D01*
X247180Y10569D01*
Y10044D01*
X241488Y36790D02*
Y39414D01*
X242013Y39939D01*
X243062D01*
X243587Y39414D01*
Y36790D01*
X246211Y39939D02*
Y36790D01*
X244636Y38365D01*
X246735D01*
X439460Y26991D02*
Y24367D01*
X438935Y23842D01*
X437886D01*
X437361Y24367D01*
Y26991D01*
X434212Y23842D02*
X436311D01*
X434212Y25941D01*
Y26466D01*
X434737Y26991D01*
X435787D01*
X436311Y26466D01*
X127561Y19908D02*
Y23057D01*
X125986D01*
X125462Y22532D01*
Y21482D01*
X125986Y20958D01*
X127561D01*
X126511D02*
X125462Y19908D01*
X122313D02*
X124412D01*
X122313Y22007D01*
Y22532D01*
X122838Y23057D01*
X123887D01*
X124412Y22532D01*
X119164Y23057D02*
X121263D01*
Y21482D01*
X120214Y22007D01*
X119689D01*
X119164Y21482D01*
Y20433D01*
X119689Y19908D01*
X120739D01*
X121263Y20433D01*
X230125Y33101D02*
X233274D01*
Y34676D01*
X232749Y35201D01*
X231699D01*
X231175Y34676D01*
Y33101D01*
Y34151D02*
X230125Y35201D01*
Y36250D02*
Y37299D01*
Y36775D01*
X233274D01*
X232749Y36250D01*
X230650Y38874D02*
X230125Y39399D01*
Y40448D01*
X230650Y40973D01*
X232749D01*
X233274Y40448D01*
Y39399D01*
X232749Y38874D01*
X232224D01*
X231699Y39399D01*
Y40973D01*
X205787Y34170D02*
X208936D01*
Y35744D01*
X208411Y36269D01*
X207361D01*
X206837Y35744D01*
Y34170D01*
Y35219D02*
X205787Y36269D01*
Y37318D02*
Y38368D01*
Y37843D01*
X208936D01*
X208411Y37318D01*
Y39942D02*
X208936Y40467D01*
Y41516D01*
X208411Y42041D01*
X207886D01*
X207361Y41516D01*
X206837Y42041D01*
X206312D01*
X205787Y41516D01*
Y40467D01*
X206312Y39942D01*
X206837D01*
X207361Y40467D01*
X207886Y39942D01*
X208411D01*
X207361Y40467D02*
Y41516D01*
X218698Y59572D02*
Y62721D01*
X217123D01*
X216599Y62196D01*
Y61146D01*
X217123Y60622D01*
X218698D01*
X217648D02*
X216599Y59572D01*
X215549D02*
X214500D01*
X215024D01*
Y62721D01*
X215549Y62196D01*
X210826Y62721D02*
X212925D01*
Y61146D01*
X211876Y61671D01*
X211351D01*
X210826Y61146D01*
Y60097D01*
X211351Y59572D01*
X212401D01*
X212925Y60097D01*
X295161Y45282D02*
Y48431D01*
X293586D01*
X293062Y47906D01*
Y46856D01*
X293586Y46332D01*
X295161D01*
X294111D02*
X293062Y45282D01*
X292012D02*
X290963D01*
X291488D01*
Y48431D01*
X292012Y47906D01*
X287289Y45282D02*
X289388D01*
X287289Y47381D01*
Y47906D01*
X287814Y48431D01*
X288864D01*
X289388Y47906D01*
X263390Y48971D02*
Y45822D01*
X264964D01*
X265489Y46347D01*
Y47397D01*
X264964Y47921D01*
X263390D01*
X264440D02*
X265489Y48971D01*
X266539Y48446D02*
X267063Y48971D01*
X268113D01*
X268638Y48446D01*
Y46347D01*
X268113Y45822D01*
X267063D01*
X266539Y46347D01*
Y46872D01*
X267063Y47397D01*
X268638D01*
X173643Y127920D02*
X176791D01*
Y129495D01*
X176267Y130019D01*
X175217D01*
X174692Y129495D01*
Y127920D01*
Y128970D02*
X173643Y130019D01*
X176791Y131069D02*
Y133168D01*
X176267D01*
X174168Y131069D01*
X173643D01*
X198877Y84768D02*
Y87916D01*
X200451D01*
X200976Y87392D01*
Y85292D01*
X200451Y84768D01*
X198877D01*
X203600Y87916D02*
Y84768D01*
X202025Y86342D01*
X204124D01*
X383318Y71422D02*
Y68274D01*
X381744D01*
X381219Y68799D01*
Y70898D01*
X381744Y71422D01*
X383318D01*
X380170Y70898D02*
X379645Y71422D01*
X378595D01*
X378070Y70898D01*
Y70373D01*
X378595Y69848D01*
X379120D01*
X378595D01*
X378070Y69323D01*
Y68799D01*
X378595Y68274D01*
X379645D01*
X380170Y68799D01*
X221888Y8568D02*
X221363Y9092D01*
Y10142D01*
X221888Y10667D01*
X223987D01*
X224512Y10142D01*
Y9092D01*
X223987Y8568D01*
X224512Y5419D02*
Y7518D01*
X222413Y5419D01*
X221888D01*
X221363Y5944D01*
Y6993D01*
X221888Y7518D01*
Y4369D02*
X221363Y3845D01*
Y2795D01*
X221888Y2270D01*
X222413D01*
X222937Y2795D01*
X223462Y2270D01*
X223987D01*
X224512Y2795D01*
Y3845D01*
X223987Y4369D01*
X223462D01*
X222937Y3845D01*
X222413Y4369D01*
X221888D01*
X222937Y3845D02*
Y2795D01*
X315167Y37652D02*
X314643Y37127D01*
X313593D01*
X313068Y37652D01*
Y39751D01*
X313593Y40275D01*
X314643D01*
X315167Y39751D01*
X318316Y40275D02*
X316217D01*
X318316Y38176D01*
Y37652D01*
X317791Y37127D01*
X316742D01*
X316217Y37652D01*
X319366Y37127D02*
X321465D01*
Y37652D01*
X319366Y39751D01*
Y40275D01*
X304941Y37876D02*
X304416Y37352D01*
X303367D01*
X302842Y37876D01*
Y39975D01*
X303367Y40500D01*
X304416D01*
X304941Y39975D01*
X308090Y40500D02*
X305991D01*
X308090Y38401D01*
Y37876D01*
X307565Y37352D01*
X306516D01*
X305991Y37876D01*
X311238Y37352D02*
X310189Y37876D01*
X309139Y38926D01*
Y39975D01*
X309664Y40500D01*
X310714D01*
X311238Y39975D01*
Y39451D01*
X310714Y38926D01*
X309139D01*
X294490Y37989D02*
X293966Y37464D01*
X292916D01*
X292391Y37989D01*
Y40088D01*
X292916Y40613D01*
X293966D01*
X294490Y40088D01*
X297639Y40613D02*
X295540D01*
X297639Y38513D01*
Y37989D01*
X297114Y37464D01*
X296065D01*
X295540Y37989D01*
X300787Y37464D02*
X298688D01*
Y39038D01*
X299738Y38513D01*
X300263D01*
X300787Y39038D01*
Y40088D01*
X300263Y40613D01*
X299213D01*
X298688Y40088D01*
X310637Y6825D02*
X311162Y7349D01*
X312212D01*
X312736Y6825D01*
Y4726D01*
X312212Y4201D01*
X311162D01*
X310637Y4726D01*
X307489Y4201D02*
X309588D01*
X307489Y6300D01*
Y6825D01*
X308014Y7349D01*
X309063D01*
X309588Y6825D01*
X306439Y4201D02*
X305390D01*
X305914D01*
Y7349D01*
X306439Y6825D01*
X301385D02*
X301910Y7349D01*
X302960D01*
X303485Y6825D01*
Y4726D01*
X302960Y4201D01*
X301910D01*
X301385Y4726D01*
X298237Y4201D02*
X300336D01*
X298237Y6300D01*
Y6825D01*
X298762Y7349D01*
X299811D01*
X300336Y6825D01*
X297187D02*
X296662Y7349D01*
X295613D01*
X295088Y6825D01*
Y4726D01*
X295613Y4201D01*
X296662D01*
X297187Y4726D01*
Y6825D01*
X320452Y6600D02*
X320976Y7125D01*
X322026D01*
X322551Y6600D01*
Y4501D01*
X322026Y3976D01*
X320976D01*
X320452Y4501D01*
X319402Y3976D02*
X318353D01*
X318877D01*
Y7125D01*
X319402Y6600D01*
X316778Y4501D02*
X316253Y3976D01*
X315204D01*
X314679Y4501D01*
Y6600D01*
X315204Y7125D01*
X316253D01*
X316778Y6600D01*
Y6075D01*
X316253Y5550D01*
X314679D01*
X222245Y20844D02*
X222769Y21369D01*
X223819D01*
X224343Y20844D01*
Y18745D01*
X223819Y18220D01*
X222769D01*
X222245Y18745D01*
X221195Y18220D02*
X220145D01*
X220670D01*
Y21369D01*
X221195Y20844D01*
X216472Y21369D02*
X218571D01*
Y19794D01*
X217522Y20319D01*
X216997D01*
X216472Y19794D01*
Y18745D01*
X216997Y18220D01*
X218046D01*
X218571Y18745D01*
X328991Y48664D02*
X328466Y48140D01*
X327416D01*
X326892Y48664D01*
Y50763D01*
X327416Y51288D01*
X328466D01*
X328991Y50763D01*
X330040D02*
X330565Y51288D01*
X331614D01*
X332139Y50763D01*
Y48664D01*
X331614Y48140D01*
X330565D01*
X330040Y48664D01*
Y49189D01*
X330565Y49714D01*
X332139D01*
X339891Y55519D02*
X339366Y54995D01*
X338317D01*
X337792Y55519D01*
Y57618D01*
X338317Y58143D01*
X339366D01*
X339891Y57618D01*
X340941Y55519D02*
X341465Y54995D01*
X342515D01*
X343040Y55519D01*
Y56044D01*
X342515Y56569D01*
X343040Y57094D01*
Y57618D01*
X342515Y58143D01*
X341465D01*
X340941Y57618D01*
Y57094D01*
X341465Y56569D01*
X340941Y56044D01*
Y55519D01*
X341465Y56569D02*
X342515D01*
D11*
X533229Y165134D02*
X533829Y165734D01*
X525226D02*
X525826Y165134D01*
X533829Y184719D02*
X533229Y185319D01*
X525826D02*
X525226Y184719D01*
X371265Y3511D02*
X371865Y4111D01*
X364750D02*
X365350Y3511D01*
X371865Y18372D02*
X371265Y18972D01*
X365350D02*
X364750Y18372D01*
X356491Y18972D02*
X355891Y18372D01*
X363006D02*
X362406Y18972D01*
X355891Y4111D02*
X356491Y3511D01*
X362406D02*
X363006Y4111D01*
X286607Y18536D02*
X286007Y17936D01*
X293122D02*
X292522Y18536D01*
X286007Y3675D02*
X286607Y3075D01*
X292522D02*
X293122Y3675D01*
X276764Y18536D02*
X276164Y17936D01*
X283279D02*
X282679Y18536D01*
X276164Y3675D02*
X276764Y3075D01*
X282679D02*
X283279Y3675D01*
X212116Y23583D02*
X212716Y22983D01*
Y30098D02*
X212116Y29498D01*
X226977Y22983D02*
X227577Y23583D01*
Y29498D02*
X226977Y30098D01*
X171510Y90316D02*
X170910Y90916D01*
Y82313D02*
X171510Y82913D01*
X151924Y90916D02*
X151324Y90316D01*
Y82913D02*
X151924Y82313D01*
X171510Y79489D02*
X170910Y80089D01*
Y71486D02*
X171510Y72086D01*
X151924Y80089D02*
X151324Y79489D01*
Y72086D02*
X151924Y71486D01*
X539375Y76915D02*
X539975Y77515D01*
X532860D02*
X533460Y76915D01*
X539975Y91776D02*
X539375Y92376D01*
X533460D02*
X532860Y91776D01*
X185275Y161303D02*
X184675Y160704D01*
X193278D02*
X192678Y161303D01*
X184675Y141718D02*
X185275Y141118D01*
X192678D02*
X193278Y141718D01*
X245511Y80536D02*
X244911Y79936D01*
X253514D02*
X252914Y80536D01*
X244911Y60950D02*
X245511Y60350D01*
X252914D02*
X253514Y60950D01*
X543542Y92406D02*
X542942Y91806D01*
X551546D02*
X550946Y92406D01*
X542942Y72820D02*
X543542Y72220D01*
X550946D02*
X551546Y72820D01*
X173464Y173843D02*
X172864Y173243D01*
X181467D02*
X180867Y173843D01*
X172864Y154257D02*
X173464Y153657D01*
X180867D02*
X181467Y154257D01*
X478539Y18754D02*
X477939Y18154D01*
X485054D02*
X484454Y18754D01*
X477939Y3893D02*
X478539Y3293D01*
X484454D02*
X485054Y3893D01*
X487397Y18754D02*
X486797Y18154D01*
X493912D02*
X493312Y18754D01*
X486797Y3893D02*
X487397Y3293D01*
X493312D02*
X493912Y3893D01*
X463775Y38440D02*
X463175Y37839D01*
X470290D02*
X469690Y38440D01*
X463175Y23578D02*
X463775Y22978D01*
X469690D02*
X470290Y23578D01*
X470526Y19887D02*
X469926Y20487D01*
Y13372D02*
X470526Y13972D01*
X455664Y20487D02*
X455064Y19887D01*
Y13972D02*
X455664Y13372D01*
X163288Y13180D02*
X163888Y13780D01*
X156773D02*
X157373Y13180D01*
X163888Y28042D02*
X163288Y28642D01*
X157373D02*
X156773Y28042D01*
X387003Y28597D02*
X386403Y27997D01*
X393518D02*
X392918Y28597D01*
X386403Y13735D02*
X387003Y13136D01*
X392918D02*
X393518Y13735D01*
X272837Y20792D02*
X273437Y21392D01*
X266322D02*
X266922Y20792D01*
X273437Y35653D02*
X272837Y36253D01*
X266922D02*
X266322Y35653D01*
X292522Y20792D02*
X293122Y21392D01*
X286007D02*
X286607Y20792D01*
X293122Y35653D02*
X292522Y36253D01*
X286607D02*
X286007Y35653D01*
X282679Y20792D02*
X283279Y21392D01*
X276164D02*
X276764Y20792D01*
X283279Y35653D02*
X282679Y36253D01*
X276764D02*
X276164Y35653D01*
X332682Y30655D02*
X333282Y31255D01*
X326167D02*
X326767Y30655D01*
X333282Y45517D02*
X332682Y46117D01*
X326767D02*
X326167Y45517D01*
X225731Y2927D02*
X226331Y2327D01*
Y9442D02*
X225731Y8842D01*
X240593Y2327D02*
X241193Y2927D01*
Y8842D02*
X240593Y9442D01*
X272837Y3075D02*
X273437Y3675D01*
X266322D02*
X266922Y3075D01*
X273437Y17936D02*
X272837Y18536D01*
X266922D02*
X266322Y17936D01*
X510930Y36288D02*
X515988D01*
Y29067D02*
Y36288D01*
X510930Y29067D02*
X515988D01*
X502121Y36288D02*
X507180D01*
X502121Y29067D02*
Y36288D01*
Y29067D02*
X507180D01*
X525226Y165734D02*
Y171580D01*
X533829Y165734D02*
Y171580D01*
X525826Y165134D02*
X533229D01*
X525226Y178873D02*
Y184719D01*
X533829Y178873D02*
Y184719D01*
X525826Y185319D02*
X533229D01*
X521525Y158011D02*
Y163661D01*
X534380D01*
Y158011D02*
Y163661D01*
X521525Y145463D02*
Y151112D01*
Y145463D02*
X534380D01*
Y151112D01*
X555640Y165867D02*
Y171516D01*
X542785Y165867D02*
X555640D01*
X542785D02*
Y171516D01*
X555640Y178415D02*
Y184064D01*
X542785D02*
X555640D01*
X542785Y178415D02*
Y184064D01*
Y157746D02*
Y163395D01*
X555640D01*
Y157746D02*
Y163395D01*
X542785Y145197D02*
Y150847D01*
Y145197D02*
X555640D01*
Y150847D01*
X547347Y20540D02*
X552406D01*
Y13318D02*
Y20540D01*
X547347Y13318D02*
X552406D01*
X538539Y20540D02*
X543598D01*
X538539Y13318D02*
Y20540D01*
Y13318D02*
X543598D01*
X547347Y33335D02*
X552406D01*
Y26114D02*
Y33335D01*
X547347Y26114D02*
X552406D01*
X538539Y33335D02*
X543598D01*
X538539Y26114D02*
Y33335D01*
Y26114D02*
X543598D01*
X527662Y46130D02*
X532721D01*
Y38909D02*
Y46130D01*
X527662Y38909D02*
X532721D01*
X518854Y46130D02*
X523912D01*
X518854Y38909D02*
Y46130D01*
Y38909D02*
X523912D01*
X360133Y65118D02*
X364869D01*
X379225D02*
X383962D01*
X360133Y33809D02*
Y65118D01*
X383962Y33809D02*
Y65118D01*
X360133Y41318D02*
X383962D01*
X364750Y4111D02*
Y9662D01*
X371865Y4111D02*
Y9662D01*
X365350Y3511D02*
X371265D01*
X364750Y12821D02*
Y18372D01*
X371865Y12821D02*
Y18372D01*
X365350Y18972D02*
X371265D01*
X356491D02*
X362406D01*
X363006Y12821D02*
Y18372D01*
X355891Y12821D02*
Y18372D01*
X356491Y3511D02*
X362406D01*
X363006Y4111D02*
Y9662D01*
X355891Y4111D02*
Y9662D01*
X286607Y18536D02*
X292522D01*
X293122Y12385D02*
Y17936D01*
X286007Y12385D02*
Y17936D01*
X286607Y3075D02*
X292522D01*
X293122Y3675D02*
Y9226D01*
X286007Y3675D02*
Y9226D01*
X276764Y18536D02*
X282679D01*
X283279Y12385D02*
Y17936D01*
X276164Y12385D02*
Y17936D01*
X276764Y3075D02*
X282679D01*
X283279Y3675D02*
Y9226D01*
X276164Y3675D02*
Y9226D01*
X286285Y40290D02*
Y45348D01*
X279064Y40290D02*
X286285D01*
X279064D02*
Y45348D01*
X286285Y49098D02*
Y54157D01*
X279064D02*
X286285D01*
X279064Y49098D02*
Y54157D01*
X236083Y60097D02*
Y65746D01*
X223227Y60097D02*
X236083D01*
X223227D02*
Y65746D01*
X236083Y72645D02*
Y78295D01*
X223227D02*
X236083D01*
X223227Y72645D02*
Y78295D01*
X212716Y30098D02*
X218267D01*
X212716Y22983D02*
X218267D01*
X212116Y23583D02*
Y29498D01*
X221426Y30098D02*
X226977D01*
X221426Y22983D02*
X226977D01*
X227577Y23583D02*
Y29498D01*
X186124Y11463D02*
X191183D01*
Y4242D02*
Y11463D01*
X186124Y4242D02*
X191183D01*
X177316Y11463D02*
X182374D01*
X177316Y4242D02*
Y11463D01*
Y4242D02*
X182374D01*
X178644Y17789D02*
Y23507D01*
X174582D02*
X178644D01*
X166627Y17789D02*
Y23507D01*
X170688D01*
X170842Y17789D02*
X174428D01*
X225906Y99872D02*
X231555D01*
X225906D02*
Y112727D01*
X231555D01*
X238455Y99872D02*
X244104D01*
Y112727D01*
X238455D02*
X244104D01*
X171510Y82913D02*
Y90316D01*
X165064Y82313D02*
X170910D01*
X165064Y90916D02*
X170910D01*
X151324Y82913D02*
Y90316D01*
X151924Y82313D02*
X157771D01*
X151924Y90916D02*
X157771D01*
X171510Y72086D02*
Y79489D01*
X165064Y71486D02*
X170910D01*
X165064Y80089D02*
X170910D01*
X151324Y72086D02*
Y79489D01*
X151924Y71486D02*
X157771D01*
X151924Y80089D02*
X157771D01*
X223039Y39063D02*
Y42838D01*
X228241D01*
Y39063D02*
Y42838D01*
X223039Y31932D02*
Y35707D01*
Y31932D02*
X228241D01*
Y35707D01*
X211228Y39063D02*
Y42838D01*
X216430D01*
Y39063D02*
Y42838D01*
X211228Y31932D02*
Y35707D01*
Y31932D02*
X216430D01*
Y35707D01*
X223415Y57605D02*
X229065D01*
Y44750D02*
Y57605D01*
X223415Y44750D02*
X229065D01*
X210867Y57605D02*
X216516D01*
X210867Y44750D02*
Y57605D01*
Y44750D02*
X216516D01*
X258140Y95995D02*
X263789D01*
Y83139D02*
Y95995D01*
X258140Y83139D02*
X263789D01*
X245591Y95995D02*
X251240D01*
X245591Y83139D02*
Y95995D01*
Y83139D02*
X251240D01*
X258140Y112727D02*
X263789D01*
Y99872D02*
Y112727D01*
X258140Y99872D02*
X263789D01*
X245591Y112727D02*
X251240D01*
X245591Y99872D02*
Y112727D01*
Y99872D02*
X251240D01*
X222903Y92785D02*
Y98435D01*
X235758D01*
Y92785D02*
Y98435D01*
X222903Y80237D02*
Y85886D01*
Y80237D02*
X235758D01*
Y85886D01*
X533460Y76915D02*
X539375D01*
X532860Y77515D02*
Y83066D01*
X539975Y77515D02*
Y83066D01*
X533460Y92376D02*
X539375D01*
X532860Y86225D02*
Y91776D01*
X539975Y86225D02*
Y91776D01*
X193278Y154857D02*
Y160704D01*
X184675Y154857D02*
Y160704D01*
X185275Y161303D02*
X192678D01*
X193278Y141718D02*
Y147564D01*
X184675Y141718D02*
Y147564D01*
X185275Y141118D02*
X192678D01*
X253514Y74089D02*
Y79936D01*
X244911Y74089D02*
Y79936D01*
X245511Y80536D02*
X252914D01*
X253514Y60950D02*
Y66796D01*
X244911Y60950D02*
Y66796D01*
X245511Y60350D02*
X252914D01*
X551546Y85960D02*
Y91806D01*
X542942Y85960D02*
Y91806D01*
X543542Y92406D02*
X550946D01*
X551546Y72820D02*
Y78667D01*
X542942Y72820D02*
Y78667D01*
X543542Y72220D02*
X550946D01*
X181467Y167396D02*
Y173243D01*
X172864Y167396D02*
Y173243D01*
X173464Y173843D02*
X180867D01*
X181467Y154257D02*
Y160103D01*
X172864Y154257D02*
Y160103D01*
X173464Y153657D02*
X180867D01*
X518854Y13318D02*
X523912D01*
X518854D02*
Y20540D01*
X523912D01*
X527662Y13318D02*
X532721D01*
Y20540D01*
X527662D02*
X532721D01*
X478539Y18754D02*
X484454D01*
X485054Y12603D02*
Y18154D01*
X477939Y12603D02*
Y18154D01*
X478539Y3293D02*
X484454D01*
X485054Y3893D02*
Y9444D01*
X477939Y3893D02*
Y9444D01*
X487397Y18754D02*
X493312D01*
X493912Y12603D02*
Y18154D01*
X486797Y12603D02*
Y18154D01*
X487397Y3293D02*
X493312D01*
X493912Y3893D02*
Y9444D01*
X486797Y3893D02*
Y9444D01*
X495369Y9944D02*
X501087D01*
X495369Y8352D02*
Y15251D01*
X501087Y8352D02*
Y15251D01*
X510930Y19556D02*
X515989D01*
Y12334D02*
Y19556D01*
X510930Y12334D02*
X515989D01*
X502122Y19556D02*
X507181D01*
X502122Y12334D02*
Y19556D01*
Y12334D02*
X507181D01*
X518854Y29067D02*
X523912D01*
X518854D02*
Y36288D01*
X523912D01*
X527662Y29067D02*
X532721D01*
Y36288D01*
X527662D02*
X532721D01*
X502122Y3476D02*
X507181D01*
X502122D02*
Y10697D01*
X507181D01*
X510930Y3476D02*
X515989D01*
Y10697D01*
X510930D02*
X515989D01*
X455862Y3476D02*
X460921D01*
X455862D02*
Y10697D01*
X460921D01*
X464670Y3476D02*
X469729D01*
Y10697D01*
X464670D02*
X469729D01*
X445507Y35576D02*
X452406D01*
Y31475D02*
Y35576D01*
X445507Y23480D02*
X452406D01*
Y27580D01*
X445507Y27735D02*
Y31321D01*
X463775Y38440D02*
X469690D01*
X470290Y32288D02*
Y37839D01*
X463175Y32288D02*
Y37839D01*
X463775Y22978D02*
X469690D01*
X470290Y23578D02*
Y29129D01*
X463175Y23578D02*
Y29129D01*
X470526Y13972D02*
Y19887D01*
X464375Y13372D02*
X469926D01*
X464375Y20487D02*
X469926D01*
X455064Y13972D02*
Y19887D01*
X455664Y13372D02*
X461216D01*
X455664Y20487D02*
X461216D01*
X202856Y11463D02*
X207915D01*
Y4242D02*
Y11463D01*
X202856Y4242D02*
X207915D01*
X194048Y11463D02*
X199107D01*
X194048Y4242D02*
Y11463D01*
Y4242D02*
X199107D01*
X202856Y21306D02*
X207915D01*
Y14085D02*
Y21306D01*
X202856Y14085D02*
X207915D01*
X194048Y21306D02*
X199107D01*
X194048Y14085D02*
Y21306D01*
Y14085D02*
X199107D01*
X157373Y13180D02*
X163288D01*
X156773Y13780D02*
Y19332D01*
X163888Y13780D02*
Y19332D01*
X157373Y28642D02*
X163288D01*
X156773Y22491D02*
Y28042D01*
X163888Y22491D02*
Y28042D01*
X487308Y34319D02*
X492367D01*
Y27098D02*
Y34319D01*
X487308Y27098D02*
X492367D01*
X478500Y34319D02*
X483559D01*
X478500Y27098D02*
Y34319D01*
Y27098D02*
X483559D01*
X455862Y40878D02*
X460920D01*
X455862D02*
Y48099D01*
X460920D01*
X464670Y40878D02*
X469729D01*
Y48099D01*
X464670D02*
X469729D01*
X202856Y32133D02*
X207915D01*
Y24912D02*
Y32133D01*
X202856Y24912D02*
X207915D01*
X194048Y32133D02*
X199107D01*
X194048Y24912D02*
Y32133D01*
Y24912D02*
X199107D01*
X157631Y4242D02*
X162690D01*
X157631D02*
Y11463D01*
X162690D01*
X166439Y4242D02*
X171498D01*
Y11463D01*
X166439D02*
X171498D01*
X328316Y12891D02*
Y17949D01*
X321095Y12891D02*
X328316D01*
X321095D02*
Y17949D01*
X328316Y21699D02*
Y26758D01*
X321095D02*
X328316D01*
X321095Y21699D02*
Y26758D01*
X395208Y22741D02*
Y27800D01*
X402429D01*
Y22741D02*
Y27800D01*
X395208Y13933D02*
Y18992D01*
Y13933D02*
X402429D01*
Y18992D01*
X387003Y28597D02*
X392918D01*
X393518Y22446D02*
Y27997D01*
X386403Y22446D02*
Y27997D01*
X387003Y13136D02*
X392918D01*
X393518Y13735D02*
Y19287D01*
X386403Y13735D02*
Y19287D01*
X243261Y2274D02*
X248320D01*
X243261D02*
Y9495D01*
X248320D01*
X252069Y2274D02*
X257128D01*
Y9495D01*
X252069D02*
X257128D01*
X266322Y21392D02*
Y26943D01*
X273437Y21392D02*
Y26943D01*
X266922Y20792D02*
X272837D01*
X266322Y30102D02*
Y35653D01*
X273437Y30102D02*
Y35653D01*
X266922Y36253D02*
X272837D01*
X286007Y21392D02*
Y26943D01*
X293122Y21392D02*
Y26943D01*
X286607Y20792D02*
X292522D01*
X286007Y30102D02*
Y35653D01*
X293122Y30102D02*
Y35653D01*
X286607Y36253D02*
X292522D01*
X276164Y21392D02*
Y26943D01*
X283279Y21392D02*
Y26943D01*
X276764Y20792D02*
X282679D01*
X276164Y30102D02*
Y35653D01*
X283279Y30102D02*
Y35653D01*
X276764Y36253D02*
X282679D01*
X326167Y31255D02*
Y36806D01*
X333282Y31255D02*
Y36806D01*
X326767Y30655D02*
X332682D01*
X326167Y39965D02*
Y45517D01*
X333282Y39965D02*
Y45517D01*
X326767Y46117D02*
X332682D01*
X342201Y32246D02*
X345051D01*
X337131Y37316D02*
X342201Y32246D01*
X337131Y37316D02*
Y53146D01*
X345051D01*
X349831Y32246D02*
X352721D01*
X357871Y37406D01*
Y53186D01*
X349831D02*
X357871D01*
X242147Y14265D02*
X254127D01*
Y34157D01*
X242147D02*
X254127D01*
X242147Y14265D02*
Y34157D01*
X277427Y40289D02*
Y45348D01*
X270206Y40289D02*
X277427D01*
X270206D02*
Y45348D01*
X277427Y49098D02*
Y54156D01*
X270206D02*
X277427D01*
X270206Y49098D02*
Y54156D01*
X226331Y9442D02*
X231882D01*
X226331Y2327D02*
X231882D01*
X225731Y2927D02*
Y8842D01*
X235041Y9442D02*
X240593D01*
X235041Y2327D02*
X240593D01*
X241193Y2927D02*
Y8842D01*
X266322Y3675D02*
Y9226D01*
X273437Y3675D02*
Y9226D01*
X266922Y3075D02*
X272837D01*
X266322Y12385D02*
Y17936D01*
X273437Y12385D02*
Y17936D01*
X266922Y18536D02*
X272837D01*
X132812Y17525D02*
X138461D01*
Y2118D02*
Y17525D01*
X132812Y2118D02*
X138461D01*
X107468Y17525D02*
X113118D01*
X107468Y2118D02*
Y17525D01*
Y2118D02*
X113118D01*
X197254Y89935D02*
Y100968D01*
X191233Y89935D02*
X212699D01*
X191233Y100968D02*
X212699D01*
Y89935D02*
Y91515D01*
Y99387D02*
Y100968D01*
D33*
X245700Y16711D02*
X245109Y17302D01*
X244518Y16711D01*
X245109Y16120D01*
X245700Y16711D01*
X237813Y13772D02*
X237222Y14363D01*
X236631Y13772D01*
X237222Y13181D01*
X237813Y13772D01*
D110*
X503610Y46457D02*
X507610D01*
X505610Y43457D02*
Y49457D01*
D111*
X448349Y8809D02*
X456223D01*
X448349D02*
X452286Y12746D01*
Y12746D02*
X456223Y8809D01*
X452286Y12746D02*
Y12746D01*
Y5028D02*
Y8809D01*
Y12746D02*
Y16795D01*
D112*
X500315Y15251D02*
X501087D01*
X495369D02*
X496181D01*
M02*
