G04*
G04 #@! TF.GenerationSoftware,Altium Limited,Altium Designer,22.0.2 (36)*
G04*
G04 Layer_Physical_Order=1*
G04 Layer_Color=255*
%FSLAX25Y25*%
%MOIN*%
G70*
G04*
G04 #@! TF.SameCoordinates,4B23997A-F780-4CFF-BF2E-C76CCAE4F475*
G04*
G04*
G04 #@! TF.FilePolarity,Positive*
G04*
G01*
G75*
%ADD33C,0.02362*%
%ADD34C,0.01181*%
%ADD35C,0.05906*%
%ADD36O,0.05906X0.07874*%
G04:AMPARAMS|DCode=37|XSize=59.06mil|YSize=59.06mil|CornerRadius=14.76mil|HoleSize=0mil|Usage=FLASHONLY|Rotation=90.000|XOffset=0mil|YOffset=0mil|HoleType=Round|Shape=RoundedRectangle|*
%AMROUNDEDRECTD37*
21,1,0.05906,0.02953,0,0,90.0*
21,1,0.02953,0.05906,0,0,90.0*
1,1,0.02953,0.01476,0.01476*
1,1,0.02953,0.01476,-0.01476*
1,1,0.02953,-0.01476,-0.01476*
1,1,0.02953,-0.01476,0.01476*
%
%ADD37ROUNDEDRECTD37*%
G04:AMPARAMS|DCode=38|XSize=236.22mil|YSize=236.22mil|CornerRadius=59.06mil|HoleSize=0mil|Usage=FLASHONLY|Rotation=0.000|XOffset=0mil|YOffset=0mil|HoleType=Round|Shape=RoundedRectangle|*
%AMROUNDEDRECTD38*
21,1,0.23622,0.11811,0,0,0.0*
21,1,0.11811,0.23622,0,0,0.0*
1,1,0.11811,0.05906,-0.05906*
1,1,0.11811,-0.05906,-0.05906*
1,1,0.11811,-0.05906,0.05906*
1,1,0.11811,0.05906,0.05906*
%
%ADD38ROUNDEDRECTD38*%
G04:AMPARAMS|DCode=39|XSize=59.06mil|YSize=59.06mil|CornerRadius=14.76mil|HoleSize=0mil|Usage=FLASHONLY|Rotation=180.000|XOffset=0mil|YOffset=0mil|HoleType=Round|Shape=RoundedRectangle|*
%AMROUNDEDRECTD39*
21,1,0.05906,0.02953,0,0,180.0*
21,1,0.02953,0.05906,0,0,180.0*
1,1,0.02953,-0.01476,0.01476*
1,1,0.02953,0.01476,0.01476*
1,1,0.02953,0.01476,-0.01476*
1,1,0.02953,-0.01476,-0.01476*
%
%ADD39ROUNDEDRECTD39*%
%ADD40O,0.06614X0.11024*%
G04:AMPARAMS|DCode=41|XSize=137.8mil|YSize=196.85mil|CornerRadius=34.45mil|HoleSize=0mil|Usage=FLASHONLY|Rotation=0.000|XOffset=0mil|YOffset=0mil|HoleType=Round|Shape=RoundedRectangle|*
%AMROUNDEDRECTD41*
21,1,0.13780,0.12795,0,0,0.0*
21,1,0.06890,0.19685,0,0,0.0*
1,1,0.06890,0.03445,-0.06398*
1,1,0.06890,-0.03445,-0.06398*
1,1,0.06890,-0.03445,0.06398*
1,1,0.06890,0.03445,0.06398*
%
%ADD41ROUNDEDRECTD41*%
%ADD42C,0.23622*%
%ADD43C,0.11811*%
%ADD44O,0.11811X0.09843*%
%ADD45C,0.17717*%
%ADD46O,0.05669X0.07087*%
%ADD47C,0.09843*%
%ADD48O,0.12598X0.15748*%
%ADD49O,0.09843X0.07874*%
%ADD50O,0.10236X0.08189*%
%ADD51O,0.07874X0.09843*%
%ADD52O,0.11811X0.07874*%
%ADD53O,0.05906X0.07874*%
%ADD54O,0.07874X0.05906*%
%ADD55C,0.02756*%
%ADD56C,0.03937*%
G36*
X534118Y213914D02*
X534118Y132543D01*
X531496Y129921D01*
X515748D01*
X511811Y133858D01*
X511811Y149606D01*
X503937Y157480D01*
X497414D01*
Y162894D01*
X497268Y163999D01*
X496842Y165028D01*
X496163Y165912D01*
X495279Y166591D01*
X494250Y167017D01*
X493145Y167163D01*
X486255D01*
X485150Y167017D01*
X484121Y166591D01*
X483237Y165912D01*
X482558Y165028D01*
X482132Y163999D01*
X481986Y162894D01*
Y157480D01*
X448776D01*
X441222Y165117D01*
X441618Y201513D01*
X441331Y212893D01*
X448721Y220472D01*
X480924D01*
X481127Y220240D01*
Y207445D01*
X481272Y206340D01*
X481699Y205311D01*
X482377Y204427D01*
X483261Y203748D01*
X484291Y203322D01*
X485396Y203176D01*
X492285D01*
X493390Y203322D01*
X494420Y203748D01*
X495304Y204427D01*
X495982Y205311D01*
X496409Y206340D01*
X496554Y207445D01*
Y220240D01*
X496758Y220472D01*
X527559D01*
X534118Y213914D01*
D02*
G37*
G36*
X590551Y196850D02*
Y166099D01*
X590051Y165969D01*
X589242Y166591D01*
X588212Y167017D01*
X587107Y167163D01*
X580217D01*
X579112Y167017D01*
X578083Y166591D01*
X577199Y165912D01*
X576520Y165028D01*
X576094Y163999D01*
X575949Y162894D01*
Y150098D01*
X576094Y148994D01*
X576520Y147964D01*
X577199Y147080D01*
X578083Y146402D01*
X579112Y145975D01*
X580217Y145830D01*
X587107D01*
X588212Y145975D01*
X589242Y146402D01*
X590051Y147023D01*
X590551Y146893D01*
Y27559D01*
X587470Y24477D01*
X558200D01*
X555118Y27559D01*
Y55118D01*
X523622Y86614D01*
Y114173D01*
X537022Y127573D01*
Y128428D01*
X537627Y129033D01*
X538416Y130061D01*
X538912Y131258D01*
X539081Y132543D01*
X539081Y196562D01*
X541359Y198839D01*
X588563D01*
X590551Y196850D01*
D02*
G37*
G36*
X358268Y220028D02*
Y205144D01*
X354079Y200956D01*
X330433D01*
X294831Y165354D01*
X197835Y165354D01*
Y127953D01*
X172612Y102730D01*
X171987Y102668D01*
X170607Y102250D01*
X169335Y101569D01*
X168220Y100654D01*
X167305Y99539D01*
X166624Y98267D01*
X166206Y96887D01*
X166144Y96262D01*
X160433Y90551D01*
Y35981D01*
X158792Y34341D01*
X145778Y34341D01*
X143701Y36417D01*
X143701Y84390D01*
X144147Y84836D01*
X144147Y84836D01*
X144690Y85544D01*
X144931Y86126D01*
X145031Y86367D01*
X145147Y87251D01*
X145147Y87251D01*
Y106299D01*
X145147Y106299D01*
X145031Y107183D01*
X144690Y108007D01*
X144147Y108714D01*
X144147Y108714D01*
X143701Y109160D01*
Y119095D01*
X161090Y136484D01*
X162459Y136899D01*
X163731Y137579D01*
X164846Y138494D01*
X165761Y139609D01*
X166441Y140881D01*
X166857Y142250D01*
X167323Y142717D01*
Y165354D01*
X153045D01*
X147959Y170440D01*
Y220246D01*
X152123Y224410D01*
X353886D01*
X358268Y220028D01*
D02*
G37*
G36*
Y187878D02*
Y170171D01*
X351661Y163565D01*
X327072D01*
X320553Y170084D01*
Y182214D01*
X332452Y194113D01*
X352033D01*
X358268Y187878D01*
D02*
G37*
G36*
X140245Y191896D02*
Y161151D01*
X137982Y158888D01*
X105684Y158888D01*
X102362Y162211D01*
Y169790D01*
X105800Y173228D01*
X110236D01*
X118110Y181102D01*
Y192328D01*
X121371Y195589D01*
X136552D01*
X140245Y191896D01*
D02*
G37*
G36*
X110236Y196850D02*
Y181102D01*
X106299Y177165D01*
X98425D01*
X90551Y169291D01*
Y157480D01*
X85554Y152484D01*
X71926D01*
X66929Y157480D01*
Y192913D01*
X74803Y200787D01*
X106299D01*
X110236Y196850D01*
D02*
G37*
G36*
X163908Y148383D02*
Y143969D01*
X163899Y143958D01*
X163750Y143597D01*
X163589Y143242D01*
X163271Y142194D01*
X162908Y141516D01*
X162420Y140920D01*
X161825Y140432D01*
X161146Y140069D01*
X160099Y139752D01*
X159743Y139591D01*
X159382Y139441D01*
X159338Y139407D01*
X159286Y139384D01*
X158985Y139136D01*
X158675Y138898D01*
X154619Y134843D01*
X130077D01*
X127859Y137060D01*
Y149148D01*
X130286Y151575D01*
X160716D01*
X163908Y148383D01*
D02*
G37*
G36*
X355513Y150846D02*
Y126981D01*
X350579Y122047D01*
X339484D01*
X326772Y109335D01*
X326772Y66929D01*
X319923Y60080D01*
X303247D01*
X303033Y60532D01*
X303101Y60616D01*
X303736Y61803D01*
X304126Y63090D01*
X304258Y64429D01*
Y77224D01*
X304126Y78563D01*
X303736Y79851D01*
X303101Y81038D01*
X302248Y82078D01*
X301208Y82931D01*
X300021Y83566D01*
X298734Y83956D01*
X297394Y84088D01*
X290505D01*
X289166Y83956D01*
X287878Y83566D01*
X286691Y82931D01*
X285651Y82078D01*
X284798Y81038D01*
X284163Y79851D01*
X283773Y78563D01*
X283641Y77224D01*
Y64429D01*
X283773Y63090D01*
X284163Y61803D01*
X284798Y60616D01*
X284866Y60532D01*
X284653Y60080D01*
X259380D01*
X259105Y60107D01*
X258829Y60080D01*
X256931D01*
X256348Y59498D01*
X255368Y58974D01*
X254349Y58138D01*
X253513Y57118D01*
X252989Y56138D01*
X252369Y55519D01*
X252369Y44118D01*
X251559Y43307D01*
X246815D01*
X245798Y44324D01*
Y48654D01*
X245830Y48973D01*
Y53382D01*
X245701Y54694D01*
X245318Y55956D01*
X244696Y57118D01*
X243860Y58138D01*
X242841Y58974D01*
X241678Y59595D01*
X240417Y59978D01*
X239105Y60107D01*
X206693Y92520D01*
X206693Y116142D01*
X212598Y122047D01*
X247041Y122047D01*
X255906Y130911D01*
Y145158D01*
X264736Y153989D01*
X352371Y153989D01*
X355513Y150846D01*
D02*
G37*
G36*
X122047Y148755D02*
Y114173D01*
X125984Y110236D01*
X137795D01*
X141732Y106299D01*
Y87251D01*
X137159Y82677D01*
X71086D01*
X66929Y86834D01*
Y99055D01*
X70237Y102362D01*
X86554D01*
X94488Y110296D01*
Y147033D01*
X100999Y153543D01*
X117259D01*
X122047Y148755D01*
D02*
G37*
G36*
X403543Y115157D02*
X411948Y106753D01*
Y2505D01*
X410852Y1405D01*
X131049D01*
X128937Y3509D01*
X128937Y25591D01*
X134843Y31496D01*
X143923D01*
X144070Y31383D01*
X144894Y31042D01*
X145778Y30925D01*
X145778Y30925D01*
X158792Y30925D01*
X158792Y30925D01*
X159676Y31042D01*
X160500Y31383D01*
X160647Y31496D01*
X170839D01*
X171987Y31148D01*
X173423Y31006D01*
X175391D01*
X176827Y31148D01*
X177975Y31496D01*
X182087D01*
X187008Y36417D01*
X239173D01*
X243774Y41019D01*
X244274D01*
X244401Y40892D01*
X245108Y40350D01*
X245932Y40008D01*
X246815Y39892D01*
X246815Y39892D01*
X251559D01*
X251559Y39892D01*
X252443Y40008D01*
X253267Y40350D01*
X253974Y40892D01*
X253974Y40892D01*
X254784Y41703D01*
X255327Y42410D01*
X255668Y43234D01*
X255785Y44118D01*
X255785Y44118D01*
Y45276D01*
X257331D01*
X258036Y44984D01*
X259105Y44843D01*
X260173Y44984D01*
X261170Y45396D01*
X262025Y46052D01*
X262681Y46908D01*
X262838Y47287D01*
X265748Y50197D01*
Y55118D01*
X267295Y56665D01*
X284653D01*
X284792Y56683D01*
X284932Y56677D01*
X285232Y56741D01*
X285536Y56782D01*
X285666Y56835D01*
X285803Y56865D01*
X286076Y57005D01*
X286273Y57087D01*
X301626D01*
X301823Y57005D01*
X302096Y56865D01*
X302233Y56835D01*
X302363Y56782D01*
X302667Y56741D01*
X302968Y56677D01*
X303108Y56683D01*
X303247Y56665D01*
X319923D01*
X319923Y56665D01*
X320807Y56782D01*
X321543Y57087D01*
X331693D01*
X337598Y62992D01*
Y110236D01*
X342520Y115157D01*
X403543Y115157D01*
D02*
G37*
G36*
X551181Y55512D02*
Y5906D01*
X547223Y1947D01*
X442935D01*
X441139Y3743D01*
Y56887D01*
X442520Y58268D01*
X445541D01*
X445805Y57768D01*
X445403Y57167D01*
X445211Y56201D01*
Y55224D01*
X449213D01*
X453214D01*
Y56201D01*
X453022Y57167D01*
X452620Y57768D01*
X452884Y58268D01*
X477538D01*
X477587Y57768D01*
X477479Y57746D01*
X476659Y57199D01*
X476112Y56380D01*
X475920Y55413D01*
Y54437D01*
X479921D01*
X483922D01*
Y55413D01*
X483730Y56380D01*
X483183Y57199D01*
X482364Y57746D01*
X482255Y57768D01*
X482304Y58268D01*
X548425D01*
X551181Y55512D01*
D02*
G37*
G36*
X86614Y137795D02*
Y114173D01*
X82677Y110236D01*
X55118D01*
X35433Y90551D01*
Y7874D01*
X29506Y1947D01*
X9864D01*
X3937Y7874D01*
X3937Y137795D01*
X7874Y141732D01*
X82677D01*
X86614Y137795D01*
D02*
G37*
%LPC*%
G36*
X563744Y106102D02*
X562241D01*
X560789Y105713D01*
X559487Y104962D01*
X558424Y103899D01*
X557673Y102597D01*
X557283Y101145D01*
Y99642D01*
X557673Y98190D01*
X558424Y96889D01*
X559487Y95826D01*
X560789Y95074D01*
X562241Y94685D01*
X563744D01*
X565196Y95074D01*
X566497Y95826D01*
X567560Y96889D01*
X568312Y98190D01*
X568701Y99642D01*
Y101145D01*
X568312Y102597D01*
X567560Y103899D01*
X566497Y104962D01*
X565196Y105713D01*
X563744Y106102D01*
D02*
G37*
G36*
Y60827D02*
X562241D01*
X560789Y60438D01*
X559487Y59686D01*
X558424Y58623D01*
X557673Y57322D01*
X557283Y55870D01*
Y54366D01*
X557673Y52915D01*
X558424Y51613D01*
X559487Y50550D01*
X560789Y49799D01*
X562241Y49409D01*
X563744D01*
X565196Y49799D01*
X566497Y50550D01*
X567560Y51613D01*
X568312Y52915D01*
X568701Y54366D01*
Y55870D01*
X568312Y57322D01*
X567560Y58623D01*
X566497Y59686D01*
X565196Y60438D01*
X563744Y60827D01*
D02*
G37*
G36*
X156693Y121728D02*
X155257Y121587D01*
X153877Y121168D01*
X152605Y120488D01*
X151490Y119573D01*
X150575Y118458D01*
X149895Y117186D01*
X149476Y115806D01*
X149335Y114370D01*
Y112402D01*
X149476Y110966D01*
X149895Y109586D01*
X150575Y108314D01*
X151490Y107199D01*
X152605Y106283D01*
X153877Y105603D01*
X155257Y105185D01*
X156693Y105043D01*
X158128Y105185D01*
X159509Y105603D01*
X160781Y106283D01*
X161896Y107199D01*
X162811Y108314D01*
X163491Y109586D01*
X163910Y110966D01*
X164051Y112402D01*
Y114370D01*
X163910Y115806D01*
X163491Y117186D01*
X162811Y118458D01*
X161896Y119573D01*
X160781Y120488D01*
X159509Y121168D01*
X158128Y121587D01*
X156693Y121728D01*
D02*
G37*
G36*
X348816Y114376D02*
X346848D01*
X345358Y114180D01*
X343969Y113605D01*
X342776Y112690D01*
X341861Y111497D01*
X341286Y110108D01*
X341090Y108618D01*
X341286Y107128D01*
X341861Y105739D01*
X342776Y104547D01*
X343969Y103632D01*
X345358Y103057D01*
X346848Y102860D01*
X348816D01*
X350307Y103057D01*
X351695Y103632D01*
X352888Y104547D01*
X353803Y105739D01*
X354378Y107128D01*
X354574Y108618D01*
X354378Y110108D01*
X353803Y111497D01*
X352888Y112690D01*
X351695Y113605D01*
X350307Y114180D01*
X348816Y114376D01*
D02*
G37*
G36*
Y94568D02*
X348332D01*
Y89118D01*
X354717D01*
X354652Y89779D01*
X354313Y90895D01*
X353764Y91924D01*
X353024Y92826D01*
X352122Y93565D01*
X351093Y94115D01*
X349977Y94454D01*
X348816Y94568D01*
D02*
G37*
G36*
X347332D02*
X346848D01*
X345687Y94454D01*
X344571Y94115D01*
X343542Y93565D01*
X342641Y92826D01*
X341901Y91924D01*
X341351Y90895D01*
X341012Y89779D01*
X340947Y89118D01*
X347332D01*
Y94568D01*
D02*
G37*
G36*
X354717Y88118D02*
X348332D01*
Y82668D01*
X348816D01*
X349977Y82783D01*
X351093Y83121D01*
X352122Y83671D01*
X353024Y84411D01*
X353764Y85313D01*
X354313Y86341D01*
X354652Y87458D01*
X354717Y88118D01*
D02*
G37*
G36*
X347332D02*
X340947D01*
X341012Y87458D01*
X341351Y86341D01*
X341901Y85313D01*
X342641Y84411D01*
X343542Y83671D01*
X344571Y83121D01*
X345687Y82783D01*
X346848Y82668D01*
X347332D01*
Y88118D01*
D02*
G37*
G36*
X399695Y59029D02*
X398719D01*
Y55527D01*
X402220D01*
Y56504D01*
X402028Y57470D01*
X401481Y58289D01*
X400662Y58836D01*
X399695Y59029D01*
D02*
G37*
G36*
X397719D02*
X396743D01*
X395776Y58836D01*
X394957Y58289D01*
X394410Y57470D01*
X394218Y56504D01*
Y55527D01*
X397719D01*
Y59029D01*
D02*
G37*
G36*
X402220Y54527D02*
X398719D01*
Y51026D01*
X399695D01*
X400662Y51218D01*
X401481Y51766D01*
X402028Y52585D01*
X402220Y53551D01*
Y54527D01*
D02*
G37*
G36*
X397719D02*
X394218D01*
Y53551D01*
X394410Y52585D01*
X394957Y51766D01*
X395776Y51218D01*
X396743Y51026D01*
X397719D01*
Y54527D01*
D02*
G37*
G36*
X314469Y48293D02*
X313492D01*
Y44791D01*
X316993D01*
Y45768D01*
X316801Y46734D01*
X316254Y47553D01*
X315435Y48100D01*
X314469Y48293D01*
D02*
G37*
G36*
X312492D02*
X311516D01*
X310549Y48100D01*
X309730Y47553D01*
X309183Y46734D01*
X308991Y45768D01*
Y44791D01*
X312492D01*
Y48293D01*
D02*
G37*
G36*
X316993Y43791D02*
X313492D01*
Y40290D01*
X314469D01*
X315435Y40482D01*
X316254Y41030D01*
X316801Y41849D01*
X316993Y42815D01*
Y43791D01*
D02*
G37*
G36*
X312492D02*
X308991D01*
Y42815D01*
X309183Y41849D01*
X309730Y41030D01*
X310549Y40482D01*
X311516Y40290D01*
X312492D01*
Y43791D01*
D02*
G37*
G36*
X295245Y34265D02*
X294384D01*
X293588Y33935D01*
X292979Y33326D01*
X292649Y32531D01*
Y31669D01*
X292979Y30873D01*
X293588Y30264D01*
X294384Y29934D01*
X295245D01*
X296041Y30264D01*
X296650Y30873D01*
X296980Y31669D01*
Y32531D01*
X296650Y33326D01*
X296041Y33935D01*
X295245Y34265D01*
D02*
G37*
G36*
X137500Y28804D02*
X136524D01*
Y25303D01*
X140025D01*
Y26280D01*
X139833Y27246D01*
X139285Y28065D01*
X138466Y28612D01*
X137500Y28804D01*
D02*
G37*
G36*
X135524D02*
X134547D01*
X133581Y28612D01*
X132762Y28065D01*
X132215Y27246D01*
X132022Y26280D01*
Y25303D01*
X135524D01*
Y28804D01*
D02*
G37*
G36*
X140025Y24303D02*
X136524D01*
Y20802D01*
X137500D01*
X138466Y20994D01*
X139285Y21541D01*
X139833Y22361D01*
X140025Y23327D01*
Y24303D01*
D02*
G37*
G36*
X135524D02*
X132022D01*
Y23327D01*
X132215Y22361D01*
X132762Y21541D01*
X133581Y20994D01*
X134547Y20802D01*
X135524D01*
Y24303D01*
D02*
G37*
G36*
X317197Y27825D02*
X314244D01*
X313361Y27650D01*
X312612Y27150D01*
X312112Y26401D01*
X311936Y25517D01*
Y22565D01*
X312112Y21681D01*
X312612Y20933D01*
X313361Y20432D01*
X314244Y20256D01*
X317197D01*
X318080Y20432D01*
X318829Y20933D01*
X319330Y21681D01*
X319505Y22565D01*
Y25517D01*
X319330Y26401D01*
X318829Y27150D01*
X318080Y27650D01*
X317197Y27825D01*
D02*
G37*
G36*
X200787Y35472D02*
X188976D01*
X188208Y35319D01*
X187557Y34884D01*
X164502Y11828D01*
X143817D01*
X143619Y12027D01*
X142990Y12389D01*
X142289Y12577D01*
X141564D01*
X140863Y12389D01*
X140234Y12027D01*
X139721Y11513D01*
X139358Y10885D01*
X139171Y10184D01*
Y9459D01*
X139358Y8758D01*
X139721Y8129D01*
X140234Y7616D01*
X140863Y7253D01*
X141564Y7066D01*
X142289D01*
X142990Y7253D01*
X143619Y7616D01*
X143817Y7814D01*
X165333D01*
X166101Y7967D01*
X166752Y8402D01*
X189808Y31457D01*
X199956D01*
X210957Y20456D01*
X211608Y20021D01*
X212376Y19869D01*
X249381D01*
X249764Y19710D01*
X250625D01*
X251421Y20040D01*
X252030Y20649D01*
X252360Y21445D01*
Y22306D01*
X252030Y23102D01*
X251421Y23711D01*
X250625Y24041D01*
X249764D01*
X249381Y23883D01*
X213208D01*
X202207Y34884D01*
X201555Y35319D01*
X200787Y35472D01*
D02*
G37*
G36*
X189665Y26619D02*
X186713D01*
X185829Y26443D01*
X185081Y25943D01*
X184580Y25194D01*
X184405Y24311D01*
Y21358D01*
X184580Y20475D01*
X185081Y19726D01*
X185829Y19226D01*
X186713Y19050D01*
X189665D01*
X190549Y19226D01*
X191297Y19726D01*
X191798Y20475D01*
X191973Y21358D01*
Y24311D01*
X191798Y25194D01*
X191297Y25943D01*
X190549Y26443D01*
X189665Y26619D01*
D02*
G37*
G36*
X193459Y30687D02*
X192598D01*
X191802Y30358D01*
X191193Y29749D01*
X190863Y28953D01*
Y28091D01*
X191193Y27296D01*
X191802Y26686D01*
X192184Y26528D01*
X203202Y15510D01*
X203854Y15075D01*
X204622Y14922D01*
X374471D01*
X374541Y14570D01*
X375041Y13821D01*
X375790Y13320D01*
X376673Y13145D01*
X379626D01*
X380509Y13320D01*
X381258Y13821D01*
X381758Y14570D01*
X381934Y15453D01*
Y18406D01*
X381758Y19289D01*
X381258Y20038D01*
X380509Y20538D01*
X379626Y20714D01*
X376673D01*
X375790Y20538D01*
X375041Y20038D01*
X374541Y19289D01*
X374471Y18936D01*
X205453D01*
X195022Y29367D01*
X194864Y29749D01*
X194255Y30358D01*
X193459Y30687D01*
D02*
G37*
G36*
X151279Y20714D02*
X148327D01*
X147443Y20538D01*
X146695Y20038D01*
X146194Y19289D01*
X146019Y18406D01*
Y15453D01*
X146194Y14570D01*
X146695Y13821D01*
X147443Y13320D01*
X148327Y13145D01*
X151279D01*
X152163Y13320D01*
X152912Y13821D01*
X153412Y14570D01*
X153588Y15453D01*
Y18406D01*
X153412Y19289D01*
X152912Y20038D01*
X152163Y20538D01*
X151279Y20714D01*
D02*
G37*
G36*
X188617Y17892D02*
X187756D01*
X186960Y17563D01*
X186351Y16953D01*
X186021Y16158D01*
Y15296D01*
X186351Y14500D01*
X186960Y13891D01*
X187342Y13733D01*
X194641Y6434D01*
X195292Y5999D01*
X196060Y5846D01*
X211087D01*
X211469Y5688D01*
X212330D01*
X213126Y6017D01*
X213244Y6135D01*
X213979Y5643D01*
X214862Y5468D01*
X217815D01*
X218698Y5643D01*
X219447Y6143D01*
X219947Y6892D01*
X220123Y7776D01*
Y10728D01*
X219947Y11612D01*
X219447Y12360D01*
X218698Y12861D01*
X217815Y13036D01*
X214862D01*
X213979Y12861D01*
X213230Y12360D01*
X212730Y11612D01*
X212554Y10728D01*
Y10168D01*
X212330Y10018D01*
X211469D01*
X211087Y9860D01*
X196892D01*
X190180Y16571D01*
X190022Y16953D01*
X189413Y17563D01*
X188617Y17892D01*
D02*
G37*
G36*
X254441Y14029D02*
X253580D01*
X252784Y13699D01*
X252175Y13090D01*
X251845Y12294D01*
Y11433D01*
X252175Y10637D01*
X252509Y10303D01*
X247056Y4850D01*
X178319D01*
X175709Y7459D01*
X175765Y7594D01*
Y8455D01*
X175436Y9251D01*
X174827Y9860D01*
X174031Y10190D01*
X173169D01*
X172373Y9860D01*
X171764Y9251D01*
X171435Y8455D01*
Y7594D01*
X171764Y6798D01*
X172373Y6189D01*
X173169Y5859D01*
X173352D01*
X173360Y5851D01*
X173394Y5801D01*
X176743Y2451D01*
X177199Y2147D01*
X177737Y2040D01*
X247638D01*
X248175Y2147D01*
X248631Y2451D01*
X254981Y8801D01*
X255286Y9257D01*
X255393Y9795D01*
Y10183D01*
X255846Y10637D01*
X256176Y11433D01*
Y12294D01*
X255846Y13090D01*
X255237Y13699D01*
X254441Y14029D01*
D02*
G37*
G36*
X453214Y54224D02*
X449713D01*
Y50723D01*
X450689D01*
X451655Y50915D01*
X452474Y51463D01*
X453022Y52282D01*
X453214Y53248D01*
Y54224D01*
D02*
G37*
G36*
X448713D02*
X445211D01*
Y53248D01*
X445403Y52282D01*
X445951Y51463D01*
X446770Y50915D01*
X447736Y50723D01*
X448713D01*
Y54224D01*
D02*
G37*
G36*
X483922Y53437D02*
X480421D01*
Y49936D01*
X481398D01*
X482364Y50128D01*
X483183Y50675D01*
X483730Y51494D01*
X483922Y52461D01*
Y53437D01*
D02*
G37*
G36*
X479421D02*
X475920D01*
Y52461D01*
X476112Y51494D01*
X476659Y50675D01*
X477479Y50128D01*
X478445Y49936D01*
X479421D01*
Y53437D01*
D02*
G37*
G36*
X490846Y43942D02*
X487894D01*
X487010Y43766D01*
X486262Y43266D01*
X485761Y42517D01*
X485586Y41634D01*
Y38681D01*
X485761Y37798D01*
X486262Y37049D01*
X487010Y36549D01*
X487894Y36373D01*
X490846D01*
X491730Y36549D01*
X492479Y37049D01*
X492979Y37798D01*
X493155Y38681D01*
Y41634D01*
X492979Y42517D01*
X492479Y43266D01*
X491730Y43766D01*
X490846Y43942D01*
D02*
G37*
G36*
X536122Y28588D02*
X533169D01*
X532286Y28412D01*
X531537Y27912D01*
X531037Y27163D01*
X530861Y26280D01*
Y23327D01*
X531037Y22444D01*
X531537Y21695D01*
X532286Y21194D01*
X533169Y21019D01*
X536122D01*
X537005Y21194D01*
X537754Y21695D01*
X538254Y22444D01*
X538430Y23327D01*
Y26280D01*
X538254Y27163D01*
X537754Y27912D01*
X537005Y28412D01*
X536122Y28588D01*
D02*
G37*
G36*
X507087Y29960D02*
X463976D01*
X463208Y29807D01*
X462557Y29372D01*
X458014Y24829D01*
X457632Y24670D01*
X457023Y24061D01*
X456693Y23265D01*
Y22404D01*
X457023Y21608D01*
X457632Y20999D01*
X458428Y20669D01*
X459289D01*
X460085Y20999D01*
X460694Y21608D01*
X460852Y21990D01*
X464808Y25946D01*
X506255D01*
X510998Y21203D01*
X511156Y20821D01*
X511766Y20211D01*
X512561Y19882D01*
X513423D01*
X514219Y20211D01*
X514828Y20821D01*
X515158Y21617D01*
Y22478D01*
X514828Y23274D01*
X514219Y23883D01*
X513837Y24041D01*
X508506Y29372D01*
X507855Y29807D01*
X507087Y29960D01*
D02*
G37*
G36*
X537106Y10871D02*
X534154D01*
X533270Y10695D01*
X532521Y10195D01*
X532021Y9446D01*
X531845Y8563D01*
Y5610D01*
X532021Y4727D01*
X532521Y3978D01*
X533270Y3478D01*
X534154Y3302D01*
X537106D01*
X537990Y3478D01*
X538738Y3978D01*
X539239Y4727D01*
X539414Y5610D01*
Y8563D01*
X539239Y9446D01*
X538738Y10195D01*
X537990Y10695D01*
X537106Y10871D01*
D02*
G37*
%LPD*%
D33*
X193104Y28447D02*
X204622Y16929D01*
X212376Y21876D02*
X250194D01*
X204622Y16929D02*
X378150D01*
X200787Y33465D02*
X212376Y21876D01*
X196060Y7853D02*
X211899D01*
X458858Y22835D02*
X463976Y27953D01*
X507087D01*
X512992Y22047D01*
X188976Y33465D02*
X200787D01*
X165333Y9821D02*
X188976Y33465D01*
X141927Y9821D02*
X165333D01*
X188186Y15727D02*
X196060Y7853D01*
D34*
X247638Y3445D02*
X253988Y9795D01*
X177737Y3445D02*
X247638D01*
X174387Y6794D02*
X177737Y3445D01*
X253988Y9795D02*
Y11841D01*
X254011Y11864D01*
X174387Y6794D02*
Y6811D01*
X173600Y7598D02*
X174387Y6811D01*
X173600Y7598D02*
Y8024D01*
D35*
X174407Y66908D02*
Y95451D01*
Y38365D02*
Y66908D01*
D36*
X507874Y88583D02*
D03*
X527559D02*
D03*
D37*
X398219Y55027D02*
D03*
X133858Y55118D02*
D03*
X487795Y75984D02*
D03*
X449213Y54724D02*
D03*
X479921Y53937D02*
D03*
X378150Y16929D02*
D03*
X315721Y24041D02*
D03*
X534646Y24803D02*
D03*
X535630Y7087D02*
D03*
X136024Y24803D02*
D03*
X149803Y16929D02*
D03*
X216339Y9252D02*
D03*
X188189Y22835D02*
D03*
X312992Y44291D02*
D03*
X156472Y221046D02*
D03*
D38*
X19761Y14106D02*
D03*
D39*
X489370Y40157D02*
D03*
D40*
X259105Y51177D02*
D03*
X249105D02*
D03*
X239105D02*
D03*
D41*
X293950Y70827D02*
D03*
X199987D02*
D03*
X489700Y156496D02*
D03*
X583662D02*
D03*
X582803Y213843D02*
D03*
X488841D02*
D03*
D42*
X464761Y188785D02*
D03*
Y109248D02*
D03*
D43*
X326966Y139147D02*
D03*
Y178316D02*
D03*
Y208350D02*
D03*
X77362Y161417D02*
D03*
Y125984D02*
D03*
Y90551D02*
D03*
D44*
X347832Y208618D02*
D03*
Y188618D02*
D03*
Y168618D02*
D03*
Y148618D02*
D03*
Y128618D02*
D03*
Y108618D02*
D03*
Y88618D02*
D03*
X447832Y208618D02*
D03*
Y188618D02*
D03*
Y168618D02*
D03*
Y148618D02*
D03*
Y128618D02*
D03*
Y108618D02*
D03*
Y88618D02*
D03*
D45*
X48622Y204724D02*
D03*
Y47244D02*
D03*
D46*
X525785Y189957D02*
D03*
X547045D02*
D03*
X525194Y137075D02*
D03*
X546454D02*
D03*
D47*
X562992Y80394D02*
D03*
Y100394D02*
D03*
Y35118D02*
D03*
Y55118D02*
D03*
D48*
X242320Y177162D02*
D03*
Y137792D02*
D03*
D49*
X154722Y95451D02*
D03*
X174407D02*
D03*
X154722Y38365D02*
D03*
X174407D02*
D03*
X154722Y66908D02*
D03*
X174407D02*
D03*
D50*
X132874Y164370D02*
D03*
Y143504D02*
D03*
Y122638D02*
D03*
Y101772D02*
D03*
D51*
X156693Y207874D02*
D03*
Y113386D02*
D03*
D52*
X157675Y173225D02*
D03*
Y143697D02*
D03*
D53*
X127126Y187992D02*
D03*
X107126D02*
D03*
D54*
X109252Y148622D02*
D03*
Y168307D02*
D03*
D55*
X368656Y21966D02*
D03*
X250194Y21876D02*
D03*
X359686Y22202D02*
D03*
X351575Y23622D02*
D03*
X336614D02*
D03*
X211899Y7853D02*
D03*
X254011Y11864D02*
D03*
X173600Y8024D02*
D03*
X549212Y47244D02*
D03*
X543307Y11811D02*
D03*
X531496D02*
D03*
X525590Y47244D02*
D03*
X519685Y11811D02*
D03*
X496063Y35433D02*
D03*
Y11811D02*
D03*
X478346Y47244D02*
D03*
X472441Y35433D02*
D03*
X478346Y23622D02*
D03*
X460630Y35433D02*
D03*
X448819D02*
D03*
X401575Y106299D02*
D03*
X407480Y94488D02*
D03*
X401575Y82677D02*
D03*
X407480Y70866D02*
D03*
Y47244D02*
D03*
X401575Y35433D02*
D03*
X407480Y23622D02*
D03*
X389764Y106299D02*
D03*
X395669Y94488D02*
D03*
X389764Y82677D02*
D03*
X395669Y70866D02*
D03*
X389764Y59055D02*
D03*
X395669Y47244D02*
D03*
X389764Y35433D02*
D03*
X377953Y106299D02*
D03*
X383858Y94488D02*
D03*
Y70866D02*
D03*
Y47244D02*
D03*
X372047D02*
D03*
Y23622D02*
D03*
X360236Y94488D02*
D03*
X354331Y82677D02*
D03*
X360236Y70866D02*
D03*
X354331Y59055D02*
D03*
X360236Y47244D02*
D03*
X342520Y82677D02*
D03*
X348425Y70866D02*
D03*
X342520Y59055D02*
D03*
X336614Y47244D02*
D03*
X324803D02*
D03*
X318898Y35433D02*
D03*
X307086D02*
D03*
X301181Y47244D02*
D03*
X289370D02*
D03*
X248031Y35433D02*
D03*
X236220Y11811D02*
D03*
X147638Y23622D02*
D03*
X481879Y21019D02*
D03*
X490552Y20864D02*
D03*
X498425Y20866D02*
D03*
X454078Y25505D02*
D03*
X458568Y29404D02*
D03*
X454551Y33342D02*
D03*
X512992Y22047D02*
D03*
X475399Y17162D02*
D03*
X475511Y11889D02*
D03*
X498819Y39764D02*
D03*
X499606Y52756D02*
D03*
X492520Y48819D02*
D03*
X512598Y56693D02*
D03*
X518898Y50394D02*
D03*
X534646Y48031D02*
D03*
X541736Y55185D02*
D03*
X193028Y28522D02*
D03*
X258858Y35433D02*
D03*
X300197Y12795D02*
D03*
X263779D02*
D03*
X167880Y25105D02*
D03*
X229688Y11835D02*
D03*
X263227Y35587D02*
D03*
X289988Y43397D02*
D03*
X290054Y38421D02*
D03*
X294815Y32100D02*
D03*
X295567Y13003D02*
D03*
X343025Y22708D02*
D03*
X398622Y30512D02*
D03*
X389764D02*
D03*
X383858Y24606D02*
D03*
X329724Y48228D02*
D03*
X347598Y59272D02*
D03*
X188186Y15727D02*
D03*
X458858Y22835D02*
D03*
D56*
X217500Y104376D02*
D03*
X217520Y95472D02*
D03*
X210630Y104331D02*
D03*
X141927Y9821D02*
D03*
M02*
