G04*
G04 #@! TF.GenerationSoftware,Altium Limited,Altium Designer,22.0.2 (36)*
G04*
G04 Layer_Physical_Order=2*
G04 Layer_Color=16711680*
%FSLAX25Y25*%
%MOIN*%
G70*
G04*
G04 #@! TF.SameCoordinates,4B23997A-F780-4CFF-BF2E-C76CCAE4F475*
G04*
G04*
G04 #@! TF.FilePolarity,Positive*
G04*
G01*
G75*
%ADD33C,0.02362*%
%ADD35C,0.05906*%
%ADD36O,0.05906X0.07874*%
G04:AMPARAMS|DCode=37|XSize=59.06mil|YSize=59.06mil|CornerRadius=14.76mil|HoleSize=0mil|Usage=FLASHONLY|Rotation=90.000|XOffset=0mil|YOffset=0mil|HoleType=Round|Shape=RoundedRectangle|*
%AMROUNDEDRECTD37*
21,1,0.05906,0.02953,0,0,90.0*
21,1,0.02953,0.05906,0,0,90.0*
1,1,0.02953,0.01476,0.01476*
1,1,0.02953,0.01476,-0.01476*
1,1,0.02953,-0.01476,-0.01476*
1,1,0.02953,-0.01476,0.01476*
%
%ADD37ROUNDEDRECTD37*%
G04:AMPARAMS|DCode=38|XSize=236.22mil|YSize=236.22mil|CornerRadius=59.06mil|HoleSize=0mil|Usage=FLASHONLY|Rotation=0.000|XOffset=0mil|YOffset=0mil|HoleType=Round|Shape=RoundedRectangle|*
%AMROUNDEDRECTD38*
21,1,0.23622,0.11811,0,0,0.0*
21,1,0.11811,0.23622,0,0,0.0*
1,1,0.11811,0.05906,-0.05906*
1,1,0.11811,-0.05906,-0.05906*
1,1,0.11811,-0.05906,0.05906*
1,1,0.11811,0.05906,0.05906*
%
%ADD38ROUNDEDRECTD38*%
G04:AMPARAMS|DCode=39|XSize=59.06mil|YSize=59.06mil|CornerRadius=14.76mil|HoleSize=0mil|Usage=FLASHONLY|Rotation=180.000|XOffset=0mil|YOffset=0mil|HoleType=Round|Shape=RoundedRectangle|*
%AMROUNDEDRECTD39*
21,1,0.05906,0.02953,0,0,180.0*
21,1,0.02953,0.05906,0,0,180.0*
1,1,0.02953,-0.01476,0.01476*
1,1,0.02953,0.01476,0.01476*
1,1,0.02953,0.01476,-0.01476*
1,1,0.02953,-0.01476,-0.01476*
%
%ADD39ROUNDEDRECTD39*%
%ADD40O,0.06614X0.11024*%
G04:AMPARAMS|DCode=41|XSize=137.8mil|YSize=196.85mil|CornerRadius=34.45mil|HoleSize=0mil|Usage=FLASHONLY|Rotation=0.000|XOffset=0mil|YOffset=0mil|HoleType=Round|Shape=RoundedRectangle|*
%AMROUNDEDRECTD41*
21,1,0.13780,0.12795,0,0,0.0*
21,1,0.06890,0.19685,0,0,0.0*
1,1,0.06890,0.03445,-0.06398*
1,1,0.06890,-0.03445,-0.06398*
1,1,0.06890,-0.03445,0.06398*
1,1,0.06890,0.03445,0.06398*
%
%ADD41ROUNDEDRECTD41*%
%ADD42C,0.23622*%
%ADD43C,0.11811*%
%ADD44O,0.11811X0.09843*%
%ADD45C,0.17717*%
%ADD46O,0.05669X0.07087*%
%ADD47C,0.09843*%
%ADD48O,0.12598X0.15748*%
%ADD49O,0.09843X0.07874*%
%ADD50O,0.10236X0.08189*%
%ADD51O,0.07874X0.09843*%
%ADD52O,0.11811X0.07874*%
%ADD53O,0.05906X0.07874*%
%ADD54O,0.07874X0.05906*%
%ADD55C,0.02756*%
%ADD56C,0.03937*%
%ADD57R,0.07874X0.06000*%
%ADD58R,0.05118X0.04724*%
%ADD59R,0.04459X0.05421*%
%ADD60R,0.06803X0.05847*%
%ADD61R,0.11055X0.05049*%
%ADD62R,0.05510X0.03937*%
%ADD63R,0.05118X0.05906*%
%ADD64R,0.12992X0.10630*%
%ADD65R,0.05315X0.05551*%
%ADD66R,0.05421X0.04459*%
%ADD67R,0.05551X0.05315*%
%ADD68R,0.02756X0.04921*%
%ADD69C,0.01968*%
%ADD70R,0.05049X0.11055*%
%ADD71R,0.05847X0.06803*%
%ADD72R,0.03402X0.03175*%
%ADD73R,0.03937X0.05510*%
%ADD74R,0.02953X0.03937*%
%ADD75R,0.04213X0.02362*%
%ADD76R,0.04331X0.11024*%
%ADD77O,0.08051X0.02315*%
%ADD78R,0.05049X0.13606*%
%ADD79R,0.07087X0.06693*%
%ADD80C,0.07874*%
%ADD81C,0.03937*%
%ADD82C,0.04724*%
%ADD83C,0.05236*%
%ADD84C,0.09843*%
%ADD85C,0.03386*%
%ADD86C,0.05512*%
G36*
X593083Y225814D02*
Y1405D01*
X553713D01*
X553095Y2023D01*
Y29479D01*
X555202Y31585D01*
X558452D01*
X559487Y30550D01*
X560789Y29798D01*
X562241Y29409D01*
X563744D01*
X565196Y29798D01*
X566497Y30550D01*
X567560Y31613D01*
X568312Y32915D01*
X568701Y34367D01*
Y35870D01*
X568312Y37322D01*
X567560Y38623D01*
X566497Y39686D01*
X565196Y40438D01*
X563744Y40827D01*
X562241D01*
X560789Y40438D01*
X559487Y39686D01*
X558424Y38623D01*
X557673Y37322D01*
X557625Y37145D01*
X554050D01*
X553595Y37085D01*
X553095Y37447D01*
Y38993D01*
X553117Y39100D01*
X553095Y39207D01*
Y57141D01*
X548863Y61374D01*
X442563D01*
X441139Y62798D01*
Y146176D01*
X441639Y146276D01*
X441861Y145739D01*
X442776Y144547D01*
X443969Y143632D01*
X445358Y143057D01*
X446848Y142860D01*
X448816D01*
X450307Y143057D01*
X451695Y143632D01*
X452888Y144547D01*
X453803Y145739D01*
X454378Y147128D01*
X454574Y148618D01*
X454378Y150109D01*
X453803Y151497D01*
X452888Y152690D01*
X451695Y153605D01*
X450307Y154180D01*
X448816Y154376D01*
X446848D01*
X445358Y154180D01*
X443969Y153605D01*
X442776Y152690D01*
X441861Y151497D01*
X441639Y150961D01*
X441139Y151060D01*
Y159942D01*
X441639Y160242D01*
X443063Y159481D01*
X444918Y158918D01*
X446848Y158728D01*
X448816D01*
X450746Y158918D01*
X452601Y159481D01*
X454311Y160395D01*
X455810Y161625D01*
X457040Y163124D01*
X457954Y164833D01*
X458516Y166689D01*
X458707Y168618D01*
X458516Y170548D01*
X457954Y172403D01*
X457576Y173109D01*
X457933Y173503D01*
X459371Y172907D01*
X461490Y172339D01*
X463664Y172053D01*
X465858D01*
X468033Y172339D01*
X470151Y172907D01*
X472178Y173746D01*
X474077Y174843D01*
X475817Y176178D01*
X477368Y177729D01*
X478703Y179469D01*
X479800Y181369D01*
X480640Y183395D01*
X481207Y185514D01*
X481494Y187688D01*
Y189882D01*
X481207Y192056D01*
X480640Y194175D01*
X479800Y196201D01*
X478703Y198101D01*
X477368Y199841D01*
X475817Y201392D01*
X474077Y202727D01*
X472178Y203824D01*
X470151Y204663D01*
X468033Y205231D01*
X465858Y205517D01*
X463664D01*
X461490Y205231D01*
X459371Y204663D01*
X458119Y204145D01*
X457784Y204515D01*
X457954Y204834D01*
X458516Y206689D01*
X458707Y208618D01*
X458516Y210548D01*
X457954Y212403D01*
X457040Y214113D01*
X455810Y215612D01*
X454311Y216842D01*
X452601Y217756D01*
X450746Y218318D01*
X448816Y218508D01*
X446848D01*
X444918Y218318D01*
X443063Y217756D01*
X441639Y216995D01*
X441139Y217294D01*
Y224604D01*
X443477Y226941D01*
X591956D01*
X593083Y225814D01*
D02*
G37*
G36*
X358268Y220028D02*
Y205144D01*
X354079Y200956D01*
X330433D01*
X296504Y167027D01*
X151372Y167027D01*
X147959Y170440D01*
Y220246D01*
X152123Y224410D01*
X353886D01*
X358268Y220028D01*
D02*
G37*
G36*
Y187878D02*
Y170171D01*
X351661Y163565D01*
X327072D01*
X320553Y170084D01*
Y182214D01*
X332452Y194113D01*
X352033D01*
X358268Y187878D01*
D02*
G37*
G36*
X250555Y147609D02*
X255906Y142258D01*
Y132399D01*
X249491Y125984D01*
X232283D01*
X216765Y110466D01*
Y110399D01*
X208136D01*
X207252Y110282D01*
X206428Y109941D01*
X205721Y109398D01*
X205721Y109398D01*
X203970Y107647D01*
X203427Y106940D01*
X203086Y106116D01*
X202970Y105232D01*
X202970Y105232D01*
Y92283D01*
X202970Y92283D01*
X203086Y91400D01*
X203427Y90576D01*
X203668Y90261D01*
Y88719D01*
X205134D01*
X205779Y88224D01*
X206602Y87883D01*
X207486Y87767D01*
X207486Y87767D01*
X216765D01*
Y46320D01*
X216102Y45657D01*
X176058D01*
X175391Y45723D01*
X173423D01*
X172755Y45657D01*
X156373Y45657D01*
X155706Y45723D01*
X124979D01*
X124311Y45657D01*
X116744D01*
X109252Y53150D01*
Y139764D01*
X112031Y142543D01*
X112674Y142738D01*
X113775Y143326D01*
X114740Y144118D01*
X115532Y145083D01*
X116121Y146185D01*
X116316Y146827D01*
X117097Y147609D01*
X125098Y147651D01*
X125356Y147222D01*
X124906Y146380D01*
X124478Y144970D01*
X124334Y143504D01*
X124478Y142038D01*
X124906Y140628D01*
X125601Y139328D01*
X126535Y138189D01*
X127674Y137254D01*
X128974Y136560D01*
X130384Y136132D01*
X131850Y135987D01*
X133898D01*
X135364Y136132D01*
X136774Y136560D01*
X138074Y137254D01*
X139213Y138189D01*
X140147Y139328D01*
X140842Y140628D01*
X141270Y142038D01*
X141414Y143504D01*
X141270Y144970D01*
X140842Y146380D01*
X140388Y147231D01*
X140686Y147732D01*
X149096Y147776D01*
X149354Y147348D01*
X148908Y146513D01*
X148489Y145133D01*
X148348Y143697D01*
X148489Y142262D01*
X148908Y140881D01*
X149588Y139609D01*
X150503Y138494D01*
X151618Y137579D01*
X152890Y136899D01*
X154271Y136480D01*
X155706Y136339D01*
X159643D01*
X161079Y136480D01*
X162459Y136899D01*
X163731Y137579D01*
X164846Y138494D01*
X165761Y139609D01*
X166441Y140881D01*
X166860Y142262D01*
X167001Y143697D01*
X166860Y145133D01*
X166441Y146513D01*
X165986Y147364D01*
X166285Y147866D01*
X204167Y148064D01*
X250555Y147609D01*
D02*
G37*
G36*
X220109Y104555D02*
X220109Y93300D01*
X217991Y91182D01*
X207486D01*
X206385Y92283D01*
Y105232D01*
X208136Y106984D01*
X217681D01*
X220109Y104555D01*
D02*
G37*
G36*
X551181Y55512D02*
Y41084D01*
X550715D01*
X549986Y40782D01*
X549427Y40224D01*
X549125Y39494D01*
Y38705D01*
X549427Y37976D01*
X549986Y37418D01*
X550715Y37115D01*
X551181D01*
Y35427D01*
X548977Y33222D01*
X546393D01*
Y26226D01*
X546630D01*
Y20427D01*
X546393D01*
Y13431D01*
X546433D01*
Y11697D01*
X544602Y9866D01*
X538958D01*
X538738Y10195D01*
X537990Y10695D01*
X537106Y10871D01*
X534154D01*
X533270Y10695D01*
X532521Y10195D01*
X532302Y9866D01*
X516009D01*
Y10585D01*
X509976D01*
Y3589D01*
X516009D01*
Y4307D01*
X532302D01*
X532521Y3978D01*
X533270Y3478D01*
X534154Y3302D01*
X537106D01*
X537990Y3478D01*
X538738Y3978D01*
X538958Y4307D01*
X545753D01*
X546473Y4402D01*
X547143Y4679D01*
X547719Y5121D01*
X550681Y8083D01*
X551181Y7876D01*
Y5906D01*
X547223Y1947D01*
X442935D01*
X442215Y2667D01*
X442407Y3128D01*
X447438D01*
Y4307D01*
X455841D01*
Y3589D01*
X461875D01*
Y10585D01*
X455841D01*
Y9866D01*
X447438D01*
Y10609D01*
X441139D01*
Y13128D01*
X443847D01*
X444092Y13096D01*
X444337Y13128D01*
X447438D01*
Y13157D01*
X458858D01*
X459834Y13285D01*
X460315Y13484D01*
X462421D01*
Y15757D01*
X462502Y15953D01*
X462631Y16929D01*
X462502Y17906D01*
X462421Y18101D01*
Y20374D01*
X460865D01*
Y22022D01*
X461024Y22404D01*
Y23265D01*
X460694Y24061D01*
X460085Y24670D01*
X459289Y25000D01*
X458428D01*
X457632Y24670D01*
X457023Y24061D01*
X456693Y23265D01*
Y22404D01*
X456851Y22022D01*
Y20702D01*
X447867D01*
Y25787D01*
X447738Y26764D01*
X447362Y27674D01*
X446762Y28455D01*
X445981Y29054D01*
X445071Y29431D01*
X444095Y29560D01*
X443118Y29431D01*
X442208Y29054D01*
X441639Y28618D01*
X441139Y28864D01*
Y30825D01*
X441201Y31299D01*
X441639Y31299D01*
X443901D01*
X444095Y31261D01*
X444288Y31299D01*
X446988D01*
Y35236D01*
X446102D01*
Y39720D01*
X448863Y42481D01*
X455841D01*
Y40990D01*
X461875D01*
Y47986D01*
X455841D01*
Y46495D01*
X448032D01*
X447263Y46343D01*
X446612Y45907D01*
X442675Y41970D01*
X442240Y41319D01*
X442087Y40551D01*
Y35590D01*
X441734Y35236D01*
X441201Y35236D01*
X441139Y35711D01*
Y56887D01*
X442520Y58268D01*
X445541D01*
X445805Y57768D01*
X445403Y57167D01*
X445211Y56201D01*
Y55224D01*
X449213D01*
X453214D01*
Y56201D01*
X453022Y57167D01*
X452620Y57768D01*
X452884Y58268D01*
X477538D01*
X477587Y57768D01*
X477479Y57746D01*
X476659Y57199D01*
X476112Y56380D01*
X475920Y55413D01*
Y54437D01*
X479921D01*
X483922D01*
Y55413D01*
X483730Y56380D01*
X483183Y57199D01*
X482364Y57746D01*
X482255Y57768D01*
X482304Y58268D01*
X548425D01*
X551181Y55512D01*
D02*
G37*
G36*
X242425Y58546D02*
Y57864D01*
X242789D01*
Y55620D01*
X242509Y54694D01*
X242379Y53382D01*
Y48973D01*
X242509Y47661D01*
X242680Y47097D01*
X240855Y45272D01*
X228169Y45272D01*
Y51177D01*
X227976Y52145D01*
X227428Y52965D01*
X226608Y53514D01*
X225640Y53706D01*
X224672Y53514D01*
X223852Y52965D01*
X223304Y52145D01*
X223187Y51560D01*
X222687Y51609D01*
Y65945D01*
X235026D01*
X242425Y58546D01*
D02*
G37*
G36*
X403543Y115157D02*
X411948Y106753D01*
Y20609D01*
X408904D01*
X408659Y20641D01*
X393892D01*
X393618Y21028D01*
X393618Y21141D01*
Y24303D01*
X389961D01*
X386303D01*
Y21202D01*
X386303Y21028D01*
X385938Y20702D01*
X379687D01*
X379626Y20714D01*
X376673D01*
X375790Y20538D01*
X375041Y20038D01*
X374541Y19289D01*
X374365Y18406D01*
Y15453D01*
X374541Y14570D01*
X375041Y13821D01*
X375790Y13320D01*
X376673Y13145D01*
X379626D01*
X379687Y13157D01*
X389562D01*
X390021Y13096D01*
X408659D01*
X408904Y13128D01*
X411948D01*
Y10609D01*
X408904D01*
X408659Y10641D01*
X371752D01*
Y10868D01*
X364862D01*
Y10641D01*
X362894D01*
Y10868D01*
X356004D01*
Y8759D01*
X355546Y8301D01*
X348674D01*
X348482Y8763D01*
X349606Y9886D01*
X350047Y10462D01*
X350325Y11132D01*
X350420Y11851D01*
Y19645D01*
X350325Y20364D01*
X350221Y20616D01*
Y28150D01*
X350394D01*
Y31669D01*
X364764D01*
Y28848D01*
X379331D01*
Y41052D01*
X364764D01*
Y37229D01*
X350394D01*
Y40748D01*
X344488D01*
Y28150D01*
X344661D01*
Y19844D01*
X344362Y19503D01*
X343416D01*
Y15748D01*
X342916D01*
Y15248D01*
X339947D01*
Y13017D01*
X337402D01*
Y19290D01*
X331890D01*
Y18667D01*
X329851D01*
X329644Y19167D01*
X331690Y21213D01*
X332132Y21789D01*
X332409Y22459D01*
X332504Y23179D01*
Y30886D01*
X333169D01*
Y32992D01*
X333368Y33472D01*
X333497Y34449D01*
X333368Y35425D01*
X333169Y35906D01*
Y38012D01*
X331313D01*
X331284Y38047D01*
X331520Y38547D01*
X333382D01*
Y41823D01*
X329724D01*
X326067D01*
Y38547D01*
X327929D01*
X328165Y38047D01*
X328136Y38012D01*
X326279D01*
Y36339D01*
X322038Y32098D01*
X321439Y31316D01*
X321062Y30407D01*
X320933Y29430D01*
Y28358D01*
X293587D01*
X293222Y28684D01*
X293222Y28858D01*
Y29977D01*
X293722Y30209D01*
X294384Y29934D01*
X295245D01*
X296041Y30264D01*
X296650Y30873D01*
X296980Y31669D01*
Y32531D01*
X296650Y33326D01*
X296041Y33935D01*
X295245Y34265D01*
X294384D01*
X293722Y33991D01*
X293222Y34223D01*
Y36235D01*
X290064D01*
Y32459D01*
X289564D01*
Y31959D01*
X285907D01*
Y28858D01*
X285907Y28684D01*
X285542Y28358D01*
X283744D01*
X283379Y28684D01*
X283379Y28858D01*
Y31959D01*
X279722D01*
X276064D01*
Y28858D01*
X276064Y28684D01*
X275699Y28358D01*
X273902D01*
X273537Y28684D01*
X273537Y28858D01*
Y31959D01*
X269879D01*
X266222D01*
Y28684D01*
X268084D01*
X268320Y28184D01*
X268291Y28148D01*
X266434D01*
Y26042D01*
X266235Y25561D01*
X266107Y24585D01*
X266172Y24094D01*
X265842Y23718D01*
X259053D01*
X258934Y23695D01*
X255171D01*
X254893Y23640D01*
X252106D01*
X252084Y23654D01*
X251316Y23807D01*
X251189D01*
X250625Y24041D01*
X249764D01*
X248968Y23711D01*
X248764Y23508D01*
X248264Y23715D01*
Y27292D01*
X248764Y27341D01*
X248767Y27327D01*
X249202Y26676D01*
X250586Y25292D01*
X251237Y24857D01*
X252005Y24704D01*
X259053D01*
X259174Y24728D01*
X261921D01*
X262680Y24879D01*
X263323Y25309D01*
X263753Y25952D01*
X263904Y26711D01*
X263753Y27470D01*
X263323Y28113D01*
X262680Y28543D01*
X261921Y28694D01*
X259174D01*
X259053Y28718D01*
X252837D01*
X252629Y28926D01*
Y32271D01*
X259690Y39331D01*
X271388D01*
X272156Y39484D01*
X272807Y39919D01*
X273157Y40269D01*
X277314D01*
Y46302D01*
X270318D01*
Y43346D01*
X258858D01*
X258090Y43193D01*
X257439Y42758D01*
X249202Y34521D01*
X248767Y33870D01*
X248615Y33102D01*
Y29910D01*
X248114Y29860D01*
X248112Y29875D01*
X247676Y30526D01*
X245096Y33107D01*
X244445Y33542D01*
X243677Y33695D01*
X237340D01*
X237222Y33718D01*
X237101Y33694D01*
X234354D01*
X233595Y33543D01*
X232951Y33113D01*
X232522Y32470D01*
X232371Y31711D01*
X232522Y30952D01*
X232951Y30309D01*
X233595Y29879D01*
X234354Y29728D01*
X237006D01*
X237245Y29680D01*
X242845D01*
X244250Y28276D01*
Y9458D01*
X237399D01*
X236474Y9336D01*
X236457Y9329D01*
X233836D01*
Y5967D01*
X233825Y5884D01*
X233836Y5802D01*
Y2440D01*
X236457D01*
X236474Y2432D01*
X237399Y2310D01*
X246257D01*
X246833Y2386D01*
X249274D01*
Y3995D01*
X249352Y4097D01*
X249709Y4959D01*
X249831Y5884D01*
X249709Y6809D01*
X249352Y7671D01*
X249274Y7773D01*
Y9382D01*
X248264D01*
Y20036D01*
X248764Y20243D01*
X248968Y20040D01*
X249764Y19710D01*
X250625D01*
X250765Y19768D01*
X251484Y19625D01*
X255116D01*
X255393Y19681D01*
X259029D01*
X259148Y19704D01*
X267123D01*
X267892Y19857D01*
X268543Y20292D01*
X269158Y20908D01*
X269879Y20813D01*
X312792D01*
X313361Y20432D01*
X314244Y20256D01*
X316182D01*
X316525Y19757D01*
X316460Y19258D01*
Y12516D01*
X316554Y11797D01*
X316832Y11126D01*
X317274Y10550D01*
X319061Y8763D01*
X318870Y8301D01*
X293467D01*
X293009Y8759D01*
Y10432D01*
X291153D01*
X291124Y10467D01*
X291360Y10967D01*
X293222D01*
Y14243D01*
X289564D01*
X285907D01*
Y11141D01*
X285907Y10967D01*
X285542Y10641D01*
X283744D01*
X283379Y10967D01*
X283379Y11141D01*
Y14243D01*
X279722D01*
X276064D01*
Y11141D01*
X276064Y10967D01*
X275699Y10641D01*
X273902D01*
X273537Y10967D01*
X273537Y11141D01*
Y14243D01*
X269879D01*
X266222D01*
Y10967D01*
X268084D01*
X268320Y10467D01*
X268291Y10431D01*
X266434D01*
Y8875D01*
X264805D01*
X261060Y12621D01*
Y14728D01*
X261921D01*
X262680Y14879D01*
X263323Y15309D01*
X263753Y15952D01*
X263904Y16711D01*
X263753Y17470D01*
X263323Y18113D01*
X262680Y18543D01*
X261921Y18694D01*
X259174D01*
X259053Y18718D01*
X258932Y18694D01*
X256185D01*
X255426Y18543D01*
X254782Y18113D01*
X254352Y17470D01*
X254202Y16711D01*
X254352Y15952D01*
X254782Y15309D01*
X255426Y14879D01*
X256185Y14728D01*
X257046D01*
Y11790D01*
X257198Y11022D01*
X257633Y10371D01*
X258667Y9337D01*
X258475Y8875D01*
X257149D01*
Y9382D01*
X256078D01*
Y11197D01*
X256176Y11433D01*
Y12294D01*
X255846Y13090D01*
X255237Y13699D01*
X254441Y14029D01*
X253580D01*
X252784Y13699D01*
X252175Y13090D01*
X251845Y12294D01*
Y11433D01*
X252064Y10905D01*
Y9382D01*
X251115D01*
Y2386D01*
X257149D01*
Y4861D01*
X266434D01*
Y3305D01*
X268708D01*
X268903Y3225D01*
X269879Y3096D01*
X288002D01*
X289193Y1905D01*
X289159Y1631D01*
X289082Y1405D01*
X131049D01*
X128937Y3509D01*
X128937Y25591D01*
X134353Y31006D01*
X155706D01*
X157142Y31148D01*
X158290Y31496D01*
X170839Y31496D01*
X171987Y31148D01*
X173423Y31006D01*
X175391D01*
X176827Y31148D01*
X177975Y31496D01*
X182087D01*
X193898Y43307D01*
X206050D01*
Y43292D01*
X206352Y42562D01*
X206910Y42004D01*
X207639Y41702D01*
X208429D01*
X209158Y42004D01*
X209716Y42562D01*
X210018Y43292D01*
Y43307D01*
X211300D01*
Y40351D01*
X211341Y40146D01*
Y37976D01*
X213055D01*
X213829Y37822D01*
X214603Y37976D01*
X216317D01*
Y40146D01*
X216358Y40351D01*
Y43307D01*
X223111D01*
Y40351D01*
X223152Y40146D01*
Y37976D01*
X224866D01*
X225640Y37822D01*
X226414Y37976D01*
X228128D01*
Y40146D01*
X228169Y40351D01*
Y43307D01*
X245506D01*
X246531Y42759D01*
X247793Y42377D01*
X249105Y42247D01*
X250417Y42377D01*
X251678Y42759D01*
X252841Y43381D01*
X253860Y44217D01*
X254696Y45236D01*
X254717Y45276D01*
X257331D01*
X258036Y44984D01*
X259105Y44843D01*
X260173Y44984D01*
X261170Y45396D01*
X262025Y46052D01*
X262681Y46908D01*
X262838Y47287D01*
X262939Y47388D01*
X282675D01*
X283651Y47517D01*
X284561Y47893D01*
X284887Y48144D01*
X286173D01*
Y49832D01*
X286318Y50184D01*
X286447Y51160D01*
X286318Y52137D01*
X286173Y52489D01*
Y54177D01*
X284887D01*
X284561Y54427D01*
X283651Y54804D01*
X282675Y54933D01*
X266270D01*
X266063Y55433D01*
X267717Y57087D01*
X331693D01*
X337598Y62992D01*
Y110236D01*
X342520Y115157D01*
X403543Y115157D01*
D02*
G37*
G36*
X86614Y137795D02*
Y114173D01*
X82677Y110236D01*
X55118D01*
X35433Y90551D01*
Y7874D01*
X29506Y1947D01*
X9864D01*
X3937Y7874D01*
X3937Y137795D01*
X7874Y141732D01*
X82677D01*
X86614Y137795D01*
D02*
G37*
G36*
X411948Y2505D02*
X410852Y1405D01*
X359931D01*
X359854Y1631D01*
X359820Y1905D01*
X361011Y3096D01*
X408659D01*
X408904Y3128D01*
X411948D01*
Y2505D01*
D02*
G37*
%LPC*%
G36*
X566929Y219324D02*
X566600Y219291D01*
X566270D01*
X565946Y219227D01*
X565617Y219195D01*
X565301Y219099D01*
X564977Y219034D01*
X564672Y218908D01*
X564356Y218812D01*
X564064Y218656D01*
X563759Y218530D01*
X563484Y218346D01*
X563193Y218190D01*
X562937Y217981D01*
X562663Y217797D01*
X562429Y217564D01*
X562174Y217354D01*
X561964Y217098D01*
X561730Y216865D01*
X561547Y216590D01*
X561337Y216335D01*
X561181Y216043D01*
X560998Y215769D01*
X560872Y215463D01*
X560716Y215172D01*
X560620Y214856D01*
X560493Y214551D01*
X560429Y214227D01*
X560333Y213911D01*
X560301Y213582D01*
X560236Y213258D01*
Y212927D01*
X560204Y212598D01*
X560236Y212270D01*
Y211939D01*
X560301Y211615D01*
X560333Y211286D01*
X560429Y210970D01*
X560493Y210646D01*
X560620Y210341D01*
X560716Y210025D01*
X560872Y209733D01*
X560998Y209428D01*
X561181Y209153D01*
X561337Y208862D01*
X561547Y208607D01*
X561730Y208332D01*
X561964Y208098D01*
X562174Y207843D01*
X562429Y207633D01*
X562663Y207400D01*
X562937Y207216D01*
X563193Y207007D01*
X563484Y206851D01*
X563759Y206667D01*
X564064Y206541D01*
X564356Y206385D01*
X564672Y206289D01*
X564977Y206163D01*
X565301Y206098D01*
X565617Y206002D01*
X565946Y205970D01*
X566270Y205906D01*
X566600D01*
X566929Y205873D01*
X567258Y205906D01*
X567588D01*
X567912Y205970D01*
X568241Y206002D01*
X568557Y206098D01*
X568881Y206163D01*
X569187Y206289D01*
X569503Y206385D01*
X569794Y206541D01*
X570099Y206667D01*
X570374Y206851D01*
X570666Y207007D01*
X570921Y207216D01*
X571196Y207400D01*
X571429Y207633D01*
X571685Y207843D01*
X571894Y208098D01*
X572128Y208332D01*
X572311Y208607D01*
X572521Y208862D01*
X572677Y209153D01*
X572860Y209428D01*
X572987Y209733D01*
X573142Y210025D01*
X573238Y210341D01*
X573365Y210646D01*
X573429Y210970D01*
X573525Y211286D01*
X573558Y211615D01*
X573622Y211939D01*
Y212270D01*
X573654Y212598D01*
X573622Y212927D01*
Y213258D01*
X573558Y213582D01*
X573525Y213911D01*
X573429Y214227D01*
X573365Y214551D01*
X573238Y214856D01*
X573142Y215172D01*
X572987Y215463D01*
X572860Y215769D01*
X572677Y216043D01*
X572521Y216335D01*
X572311Y216590D01*
X572128Y216865D01*
X571894Y217098D01*
X571685Y217354D01*
X571429Y217564D01*
X571196Y217797D01*
X570921Y217981D01*
X570666Y218190D01*
X570374Y218346D01*
X570099Y218530D01*
X569794Y218656D01*
X569503Y218812D01*
X569187Y218908D01*
X568881Y219034D01*
X568557Y219099D01*
X568241Y219195D01*
X567912Y219227D01*
X567588Y219291D01*
X567258D01*
X566929Y219324D01*
D02*
G37*
G36*
X586248Y224509D02*
X579358D01*
X578253Y224364D01*
X577224Y223937D01*
X576339Y223259D01*
X575661Y222375D01*
X575235Y221345D01*
X575089Y220240D01*
Y207445D01*
X575235Y206340D01*
X575661Y205311D01*
X576339Y204427D01*
X577224Y203748D01*
X578253Y203322D01*
X579358Y203176D01*
X586248D01*
X587353Y203322D01*
X588382Y203748D01*
X589266Y204427D01*
X589945Y205311D01*
X590371Y206340D01*
X590517Y207445D01*
Y220240D01*
X590371Y221345D01*
X589945Y222375D01*
X589266Y223259D01*
X588382Y223937D01*
X587353Y224364D01*
X586248Y224509D01*
D02*
G37*
G36*
X492285D02*
X485396D01*
X484291Y224364D01*
X483261Y223937D01*
X482377Y223259D01*
X481699Y222375D01*
X481272Y221345D01*
X481127Y220240D01*
Y207445D01*
X481272Y206340D01*
X481699Y205311D01*
X482377Y204427D01*
X483261Y203748D01*
X484291Y203322D01*
X485396Y203176D01*
X492285D01*
X493390Y203322D01*
X494420Y203748D01*
X495304Y204427D01*
X495982Y205311D01*
X496409Y206340D01*
X496554Y207445D01*
Y220240D01*
X496409Y221345D01*
X495982Y222375D01*
X495304Y223259D01*
X494420Y223937D01*
X493390Y224364D01*
X492285Y224509D01*
D02*
G37*
G36*
X547045Y194319D02*
X546099Y194194D01*
X545218Y193829D01*
X544461Y193249D01*
X543881Y192492D01*
X543516Y191611D01*
X543439Y191025D01*
X543401Y190933D01*
X543272Y189957D01*
X543390Y189060D01*
Y183952D01*
X542898D01*
Y177328D01*
X546918D01*
X547163Y177296D01*
X547408Y177328D01*
X555527D01*
Y183952D01*
X550935D01*
Y189839D01*
X550807Y190815D01*
X550619Y191270D01*
X550573Y191611D01*
X550209Y192492D01*
X549628Y193249D01*
X548871Y193829D01*
X547990Y194194D01*
X547045Y194319D01*
D02*
G37*
G36*
X555527Y172603D02*
X542898D01*
Y165979D01*
X546036D01*
Y163283D01*
X542898D01*
Y156659D01*
X555527D01*
Y163283D01*
X552389D01*
Y165979D01*
X555527D01*
Y172603D01*
D02*
G37*
G36*
X587107Y167163D02*
X580217D01*
X579112Y167017D01*
X578083Y166591D01*
X577199Y165912D01*
X576520Y165028D01*
X576094Y163999D01*
X575949Y162894D01*
Y150098D01*
X576094Y148994D01*
X576520Y147964D01*
X577199Y147080D01*
X578083Y146402D01*
X579112Y145975D01*
X580217Y145830D01*
X587107D01*
X588212Y145975D01*
X589242Y146402D01*
X590126Y147080D01*
X590804Y147964D01*
X591230Y148994D01*
X591376Y150098D01*
Y162894D01*
X591230Y163999D01*
X590804Y165028D01*
X590126Y165912D01*
X589242Y166591D01*
X588212Y167017D01*
X587107Y167163D01*
D02*
G37*
G36*
X493145D02*
X486255D01*
X485150Y167017D01*
X484121Y166591D01*
X483237Y165912D01*
X482558Y165028D01*
X482132Y163999D01*
X481986Y162894D01*
Y150098D01*
X482132Y148994D01*
X482558Y147964D01*
X483237Y147080D01*
X484121Y146402D01*
X485150Y145975D01*
X486255Y145830D01*
X493145D01*
X494250Y145975D01*
X495279Y146402D01*
X496163Y147080D01*
X496842Y147964D01*
X497268Y148994D01*
X497414Y150098D01*
Y162894D01*
X497268Y163999D01*
X496842Y165028D01*
X496163Y165912D01*
X495279Y166591D01*
X494250Y167017D01*
X493145Y167163D01*
D02*
G37*
G36*
X525785Y198459D02*
X524264Y198309D01*
X522802Y197866D01*
X521455Y197145D01*
X520274Y196176D01*
X519305Y194995D01*
X518585Y193648D01*
X518141Y192186D01*
X517991Y190665D01*
Y189248D01*
X518141Y187728D01*
X518585Y186266D01*
X519305Y184918D01*
X520274Y183737D01*
X521168Y183003D01*
Y181801D01*
X521205Y181431D01*
Y173652D01*
Y169314D01*
X521167Y168927D01*
X521205Y168540D01*
Y167682D01*
X517504D01*
Y152790D01*
Y141442D01*
X517869D01*
X518126Y141013D01*
X517994Y140766D01*
X517551Y139304D01*
X517401Y137784D01*
Y136366D01*
X517551Y134846D01*
X517994Y133384D01*
X518714Y132036D01*
X519684Y130856D01*
X520865Y129886D01*
X522212Y129166D01*
X523674Y128723D01*
X525194Y128573D01*
X526715Y128723D01*
X528177Y129166D01*
X529524Y129886D01*
X530705Y130856D01*
X531674Y132036D01*
X532395Y133384D01*
X532838Y134846D01*
X532988Y136366D01*
Y137784D01*
X532838Y139304D01*
X532395Y140766D01*
X532266Y141007D01*
X532523Y141436D01*
X538764D01*
Y141176D01*
X544104D01*
X544274Y140676D01*
X543871Y140367D01*
X543290Y139610D01*
X542926Y138729D01*
X542801Y137784D01*
Y136366D01*
X542926Y135421D01*
X543290Y134540D01*
X543871Y133783D01*
X544628Y133203D01*
X545509Y132837D01*
X546454Y132713D01*
X547400Y132837D01*
X548281Y133203D01*
X549038Y133783D01*
X549618Y134540D01*
X549983Y135421D01*
X550108Y136366D01*
Y137784D01*
X549983Y138729D01*
X549618Y139610D01*
X549038Y140367D01*
X548634Y140676D01*
X548804Y141176D01*
X559661D01*
Y156068D01*
X549136D01*
X549080Y156073D01*
X538402D01*
Y167682D01*
X537850D01*
Y173652D01*
Y189341D01*
X535599D01*
X535043Y190381D01*
X534101Y191529D01*
X533422Y192208D01*
X532985Y193648D01*
X532265Y194995D01*
X531296Y196176D01*
X530115Y197145D01*
X528767Y197866D01*
X527305Y198309D01*
X525785Y198459D01*
D02*
G37*
G36*
X527559Y93339D02*
X526583Y93211D01*
X525673Y92834D01*
X524892Y92234D01*
X524292Y91453D01*
X523915Y90543D01*
X523787Y89567D01*
Y87598D01*
X523915Y86622D01*
X524292Y85712D01*
X524892Y84931D01*
X525673Y84331D01*
X526583Y83955D01*
X527559Y83826D01*
X528535Y83955D01*
X529445Y84331D01*
X530069Y84810D01*
X547244D01*
X547713Y84872D01*
X551433D01*
Y92293D01*
X547713D01*
X547244Y92355D01*
X530069D01*
X529445Y92834D01*
X528535Y93211D01*
X527559Y93339D01*
D02*
G37*
G36*
X563744Y86102D02*
X562241D01*
X560789Y85713D01*
X559487Y84962D01*
X558424Y83899D01*
X557673Y82597D01*
X557283Y81145D01*
Y79642D01*
X557673Y78190D01*
X558424Y76889D01*
X559487Y75826D01*
X560789Y75074D01*
X562241Y74685D01*
X563744D01*
X565196Y75074D01*
X566497Y75826D01*
X567560Y76889D01*
X568312Y78190D01*
X568701Y79642D01*
Y81145D01*
X568312Y82597D01*
X567560Y83899D01*
X566497Y84962D01*
X565196Y85713D01*
X563744Y86102D01*
D02*
G37*
G36*
X566929Y18536D02*
X566600Y18504D01*
X566270D01*
X565946Y18440D01*
X565617Y18407D01*
X565301Y18311D01*
X564977Y18247D01*
X564672Y18120D01*
X564356Y18024D01*
X564064Y17869D01*
X563759Y17742D01*
X563484Y17559D01*
X563193Y17403D01*
X562937Y17193D01*
X562663Y17010D01*
X562429Y16776D01*
X562174Y16567D01*
X561964Y16311D01*
X561730Y16078D01*
X561547Y15803D01*
X561337Y15547D01*
X561181Y15256D01*
X560998Y14981D01*
X560872Y14676D01*
X560716Y14385D01*
X560620Y14069D01*
X560493Y13763D01*
X560429Y13439D01*
X560333Y13123D01*
X560301Y12794D01*
X560236Y12470D01*
Y12140D01*
X560204Y11811D01*
X560236Y11482D01*
Y11152D01*
X560301Y10828D01*
X560333Y10499D01*
X560429Y10183D01*
X560493Y9859D01*
X560620Y9554D01*
X560716Y9237D01*
X560872Y8946D01*
X560998Y8641D01*
X561181Y8366D01*
X561337Y8075D01*
X561547Y7819D01*
X561730Y7544D01*
X561964Y7311D01*
X562174Y7056D01*
X562429Y6846D01*
X562663Y6612D01*
X562937Y6429D01*
X563193Y6219D01*
X563484Y6063D01*
X563759Y5880D01*
X564064Y5753D01*
X564356Y5598D01*
X564672Y5502D01*
X564977Y5375D01*
X565301Y5311D01*
X565617Y5215D01*
X565946Y5183D01*
X566270Y5118D01*
X566600D01*
X566929Y5086D01*
X567258Y5118D01*
X567588D01*
X567912Y5183D01*
X568241Y5215D01*
X568557Y5311D01*
X568881Y5375D01*
X569187Y5502D01*
X569503Y5598D01*
X569794Y5753D01*
X570099Y5880D01*
X570374Y6063D01*
X570666Y6219D01*
X570921Y6429D01*
X571196Y6612D01*
X571429Y6846D01*
X571685Y7056D01*
X571894Y7311D01*
X572128Y7544D01*
X572311Y7819D01*
X572521Y8075D01*
X572677Y8366D01*
X572860Y8641D01*
X572987Y8946D01*
X573142Y9237D01*
X573238Y9554D01*
X573365Y9859D01*
X573429Y10183D01*
X573525Y10499D01*
X573558Y10828D01*
X573622Y11152D01*
Y11482D01*
X573654Y11811D01*
X573622Y12140D01*
Y12470D01*
X573558Y12794D01*
X573525Y13123D01*
X573429Y13439D01*
X573365Y13763D01*
X573238Y14069D01*
X573142Y14385D01*
X572987Y14676D01*
X572860Y14981D01*
X572677Y15256D01*
X572521Y15547D01*
X572311Y15803D01*
X572128Y16078D01*
X571894Y16311D01*
X571685Y16567D01*
X571429Y16776D01*
X571196Y17010D01*
X570921Y17193D01*
X570666Y17403D01*
X570374Y17559D01*
X570099Y17742D01*
X569794Y17869D01*
X569503Y18024D01*
X569187Y18120D01*
X568881Y18247D01*
X568557Y18311D01*
X568241Y18407D01*
X567912Y18440D01*
X567588Y18504D01*
X567258D01*
X566929Y18536D01*
D02*
G37*
G36*
X133898Y109288D02*
X131850D01*
X130384Y109144D01*
X128974Y108716D01*
X127674Y108021D01*
X126535Y107087D01*
X125601Y105948D01*
X124906Y104648D01*
X124478Y103238D01*
X124334Y101772D01*
X124478Y100305D01*
X124906Y98895D01*
X125601Y97596D01*
X126535Y96457D01*
X127674Y95522D01*
X128974Y94827D01*
X130384Y94400D01*
X131850Y94255D01*
X133898D01*
X135364Y94400D01*
X136774Y94827D01*
X138074Y95522D01*
X139213Y96457D01*
X140147Y97596D01*
X140842Y98895D01*
X141270Y100305D01*
X141414Y101772D01*
X141270Y103238D01*
X140842Y104648D01*
X140147Y105948D01*
X139213Y107087D01*
X138074Y108021D01*
X136774Y108716D01*
X135364Y109144D01*
X133898Y109288D01*
D02*
G37*
G36*
X175391Y102810D02*
X173423D01*
X171987Y102668D01*
X170607Y102250D01*
X169335Y101569D01*
X168220Y100654D01*
X167305Y99539D01*
X166624Y98267D01*
X166206Y96887D01*
X166186Y96690D01*
X163398Y93902D01*
X163285Y93929D01*
X162936Y94146D01*
X163064Y95451D01*
X162923Y96887D01*
X162504Y98267D01*
X161824Y99539D01*
X160909Y100654D01*
X159794Y101569D01*
X158522Y102250D01*
X157142Y102668D01*
X155706Y102810D01*
X153738D01*
X152302Y102668D01*
X150922Y102250D01*
X149650Y101569D01*
X148535Y100654D01*
X147619Y99539D01*
X146939Y98267D01*
X146521Y96887D01*
X146379Y95451D01*
X146521Y94016D01*
X146939Y92635D01*
X147364Y91842D01*
Y85609D01*
Y76750D01*
Y70517D01*
X146939Y69724D01*
X146521Y68344D01*
X146379Y66908D01*
X146521Y65473D01*
X146939Y64092D01*
X147619Y62820D01*
X148535Y61705D01*
X149650Y60790D01*
X150922Y60110D01*
X152302Y59691D01*
X153738Y59550D01*
X155706D01*
X157142Y59691D01*
X158522Y60110D01*
X159794Y60790D01*
X160909Y61705D01*
X161824Y62820D01*
X162504Y64092D01*
X162923Y65473D01*
X163064Y66908D01*
X162936Y68213D01*
X163285Y68430D01*
X163398Y68457D01*
X166186Y65669D01*
X166206Y65473D01*
X166624Y64092D01*
X167305Y62820D01*
X168220Y61705D01*
X169335Y60790D01*
X170607Y60110D01*
X171987Y59691D01*
X173423Y59550D01*
X175391D01*
X176827Y59691D01*
X178207Y60110D01*
X179479Y60790D01*
X180594Y61705D01*
X181509Y62820D01*
X182189Y64092D01*
X182608Y65473D01*
X182749Y66908D01*
X182608Y68344D01*
X182189Y69724D01*
X181509Y70996D01*
X180594Y72111D01*
X179479Y73026D01*
X178207Y73706D01*
X176827Y74125D01*
X175628Y74243D01*
X173996Y75875D01*
Y79827D01*
Y86485D01*
X175628Y88116D01*
X176827Y88234D01*
X178207Y88653D01*
X179009Y89082D01*
X186405D01*
Y88719D01*
X200264D01*
Y102184D01*
X186405D01*
Y101821D01*
X179009D01*
X178207Y102250D01*
X176827Y102668D01*
X175391Y102810D01*
D02*
G37*
G36*
X203432Y84088D02*
X196543D01*
X195203Y83956D01*
X193916Y83566D01*
X192729Y82931D01*
X191689Y82078D01*
X190835Y81038D01*
X190201Y79851D01*
X189811Y78563D01*
X189679Y77224D01*
Y64429D01*
X189811Y63090D01*
X190201Y61803D01*
X190835Y60616D01*
X191689Y59576D01*
X192729Y58722D01*
X193916Y58088D01*
X195203Y57697D01*
X196543Y57565D01*
X203432D01*
X204771Y57697D01*
X206059Y58088D01*
X207245Y58722D01*
X208286Y59576D01*
X209139Y60616D01*
X209773Y61803D01*
X210164Y63090D01*
X210296Y64429D01*
Y77224D01*
X210164Y78563D01*
X209773Y79851D01*
X209139Y81038D01*
X208286Y82078D01*
X207245Y82931D01*
X206059Y83566D01*
X204771Y83956D01*
X203432Y84088D01*
D02*
G37*
G36*
X515567Y53756D02*
X512508D01*
Y50894D01*
X515567D01*
Y53756D01*
D02*
G37*
G36*
X511508D02*
X508449D01*
Y50894D01*
X511508D01*
Y53756D01*
D02*
G37*
G36*
X453214Y54224D02*
X449713D01*
Y50723D01*
X450689D01*
X451655Y50915D01*
X452474Y51463D01*
X453022Y52282D01*
X453214Y53248D01*
Y54224D01*
D02*
G37*
G36*
X448713D02*
X445211D01*
Y53248D01*
X445403Y52282D01*
X445951Y51463D01*
X446770Y50915D01*
X447736Y50723D01*
X448713D01*
Y54224D01*
D02*
G37*
G36*
X483922Y53437D02*
X480421D01*
Y49936D01*
X481398D01*
X482364Y50128D01*
X483183Y50675D01*
X483730Y51494D01*
X483922Y52461D01*
Y53437D01*
D02*
G37*
G36*
X479421D02*
X475920D01*
Y52461D01*
X476112Y51494D01*
X476659Y50675D01*
X477479Y50128D01*
X478445Y49936D01*
X479421D01*
Y53437D01*
D02*
G37*
G36*
X545290Y50805D02*
X542035D01*
Y48337D01*
X545290D01*
Y50805D01*
D02*
G37*
G36*
X541036D02*
X537780D01*
Y48337D01*
X541036D01*
Y50805D01*
D02*
G37*
G36*
X515567Y49894D02*
X512508D01*
Y47032D01*
X515567D01*
Y49894D01*
D02*
G37*
G36*
X511508D02*
X508449D01*
Y47032D01*
X511508D01*
Y49894D01*
D02*
G37*
G36*
X504150Y50458D02*
X499713D01*
Y46958D01*
X504150D01*
Y50458D01*
D02*
G37*
G36*
X498713D02*
X494276D01*
Y46958D01*
X498713D01*
Y50458D01*
D02*
G37*
G36*
X524867Y46018D02*
X518833D01*
Y45299D01*
X515354D01*
Y45669D01*
X508661D01*
Y39370D01*
X515354D01*
Y39740D01*
X518833D01*
Y39022D01*
X524867D01*
Y46018D01*
D02*
G37*
G36*
X545290Y47337D02*
X542035D01*
Y44868D01*
X545290D01*
Y47337D01*
D02*
G37*
G36*
X541036D02*
X537780D01*
Y44868D01*
X541036D01*
Y47337D01*
D02*
G37*
G36*
X504150Y45958D02*
X499713D01*
Y42458D01*
X504150D01*
Y45958D01*
D02*
G37*
G36*
X498713D02*
X494276D01*
Y42458D01*
X498713D01*
Y45958D01*
D02*
G37*
G36*
X508347Y36388D02*
X505618D01*
Y33177D01*
X508347D01*
Y36388D01*
D02*
G37*
G36*
X504618D02*
X501888D01*
Y33177D01*
X504618D01*
Y36388D01*
D02*
G37*
G36*
X469749Y47986D02*
X463716D01*
Y40990D01*
X463953D01*
Y38209D01*
X463287D01*
Y31083D01*
X470177D01*
Y38209D01*
X469512D01*
Y40990D01*
X469749D01*
Y47986D01*
D02*
G37*
G36*
X532741Y46018D02*
X526708D01*
Y39022D01*
X527717D01*
Y36175D01*
X526708D01*
Y32017D01*
X525329Y30639D01*
X524867Y30830D01*
Y36175D01*
X518833D01*
Y35457D01*
X516009D01*
Y36175D01*
X509975D01*
Y29179D01*
X516009D01*
Y29897D01*
X518833D01*
Y29179D01*
X523216D01*
X523407Y28717D01*
X520431Y25741D01*
X519996Y25090D01*
X519843Y24321D01*
Y22909D01*
X519381Y22718D01*
X518770Y23329D01*
Y23566D01*
X518617Y24334D01*
X518182Y24985D01*
X515376Y27792D01*
X514724Y28227D01*
X513956Y28379D01*
X494057D01*
X492387Y30049D01*
Y34207D01*
X491377D01*
Y36479D01*
X491730Y36549D01*
X492479Y37049D01*
X492979Y37798D01*
X493155Y38681D01*
Y41634D01*
X492979Y42517D01*
X492479Y43266D01*
X491730Y43766D01*
X490846Y43942D01*
X487894D01*
X487010Y43766D01*
X486262Y43266D01*
X485761Y42517D01*
X485586Y41634D01*
Y38681D01*
X485761Y37798D01*
X486262Y37049D01*
X487010Y36549D01*
X487363Y36478D01*
Y34207D01*
X486354D01*
Y27211D01*
X489549D01*
X491806Y24953D01*
X492457Y24518D01*
X493225Y24365D01*
X511624D01*
X511743Y23958D01*
X511748Y23865D01*
X511156Y23274D01*
X510827Y22478D01*
Y21617D01*
X510985Y21234D01*
Y19443D01*
X509976D01*
Y12447D01*
X516009D01*
Y19443D01*
X514999D01*
Y20716D01*
X515499Y20923D01*
X518833Y17589D01*
Y13431D01*
X524867D01*
Y20427D01*
X523857D01*
Y23490D01*
X529546Y29179D01*
X532741D01*
Y36175D01*
X531732D01*
Y39022D01*
X532741D01*
Y46018D01*
D02*
G37*
G36*
X456925Y31709D02*
X454319D01*
Y30028D01*
X456925D01*
Y31709D01*
D02*
G37*
G36*
X453319D02*
X450713D01*
Y30028D01*
X453319D01*
Y31709D01*
D02*
G37*
G36*
X484513Y34207D02*
X478479D01*
Y33488D01*
X476083D01*
X475363Y33394D01*
X474693Y33116D01*
X474117Y32674D01*
X470994Y29551D01*
X470177D01*
Y30335D01*
X463287D01*
Y23209D01*
X463953D01*
Y20374D01*
X463169D01*
Y13484D01*
X470295D01*
Y20374D01*
X469512D01*
Y23209D01*
X470177D01*
Y23992D01*
X472146D01*
X472865Y24087D01*
X473535Y24364D01*
X474111Y24806D01*
X477234Y27929D01*
X478479D01*
Y27211D01*
X484513D01*
Y34207D01*
D02*
G37*
G36*
X508347Y32177D02*
X505618D01*
Y28967D01*
X508347D01*
Y32177D01*
D02*
G37*
G36*
X504618D02*
X501888D01*
Y28967D01*
X504618D01*
Y32177D01*
D02*
G37*
G36*
X541535Y42347D02*
X541355Y42323D01*
X537993D01*
Y36811D01*
X538756D01*
Y33222D01*
X538519D01*
Y27667D01*
X538019Y27516D01*
X537754Y27912D01*
X537005Y28412D01*
X536122Y28588D01*
X533169D01*
X532286Y28412D01*
X531537Y27912D01*
X531037Y27163D01*
X530880Y26372D01*
X527057Y22549D01*
X526457Y21768D01*
X526081Y20858D01*
X525952Y19882D01*
Y16929D01*
X526081Y15953D01*
X526457Y15043D01*
X526708Y14717D01*
Y13431D01*
X528396D01*
X528748Y13285D01*
X529724Y13157D01*
X530701Y13285D01*
X531053Y13431D01*
X532741D01*
Y14150D01*
X538518D01*
Y13431D01*
X544552D01*
Y20427D01*
X538518D01*
Y19709D01*
X535540D01*
X535348Y20171D01*
X536215Y21037D01*
X537005Y21194D01*
X537754Y21695D01*
X538254Y22444D01*
X538430Y23327D01*
Y25763D01*
X538519Y26226D01*
X538930Y26226D01*
X544552D01*
Y33222D01*
X544315D01*
Y36811D01*
X545078D01*
Y42323D01*
X541716D01*
X541535Y42347D01*
D02*
G37*
G36*
X456925Y29028D02*
X454319D01*
Y27347D01*
X456925D01*
Y29028D01*
D02*
G37*
G36*
X453319D02*
X450713D01*
Y27347D01*
X453319D01*
Y29028D01*
D02*
G37*
G36*
X500705Y19288D02*
X498728D01*
Y16819D01*
X500705D01*
Y19288D01*
D02*
G37*
G36*
X497728D02*
X495752D01*
Y16819D01*
X497728D01*
Y19288D01*
D02*
G37*
G36*
X485154Y18736D02*
X481996D01*
Y15461D01*
X485154D01*
Y18736D01*
D02*
G37*
G36*
X480996D02*
X477839D01*
Y15461D01*
X480996D01*
Y18736D01*
D02*
G37*
G36*
X494012D02*
X490854D01*
Y15461D01*
X494012D01*
Y18736D01*
D02*
G37*
G36*
X489854D02*
X486697D01*
Y15461D01*
X489854D01*
Y18736D01*
D02*
G37*
G36*
X500705Y15819D02*
X498728D01*
Y13351D01*
X500705D01*
Y15819D01*
D02*
G37*
G36*
X497728D02*
X495752D01*
Y13351D01*
X497728D01*
Y15819D01*
D02*
G37*
G36*
X494012Y14461D02*
X490854D01*
Y11185D01*
X494012D01*
Y14461D01*
D02*
G37*
G36*
X489854D02*
X486697D01*
Y11185D01*
X489854D01*
Y14461D01*
D02*
G37*
G36*
X485154Y14461D02*
X481996D01*
Y11185D01*
X485154D01*
Y14461D01*
D02*
G37*
G36*
X480996D02*
X477839D01*
Y11185D01*
X480996D01*
Y14461D01*
D02*
G37*
G36*
X508135Y19443D02*
X502101D01*
Y12447D01*
X502338D01*
Y10585D01*
X502101D01*
Y9866D01*
X493799D01*
Y10650D01*
X486909D01*
Y9866D01*
X484941D01*
Y10650D01*
X478051D01*
Y9866D01*
X469749D01*
Y10585D01*
X463716D01*
Y3589D01*
X469749D01*
Y4307D01*
X478051D01*
Y3524D01*
X484941D01*
Y4307D01*
X486909D01*
Y3524D01*
X493799D01*
Y4307D01*
X502101D01*
Y3589D01*
X508135D01*
Y10585D01*
X507898D01*
Y12447D01*
X508135D01*
Y19443D01*
D02*
G37*
G36*
X348816Y94568D02*
X348332D01*
Y89118D01*
X354717D01*
X354652Y89779D01*
X354313Y90895D01*
X353764Y91924D01*
X353024Y92826D01*
X352122Y93565D01*
X351093Y94115D01*
X349977Y94454D01*
X348816Y94568D01*
D02*
G37*
G36*
X347332D02*
X346848D01*
X345687Y94454D01*
X344571Y94115D01*
X343542Y93565D01*
X342641Y92826D01*
X341901Y91924D01*
X341351Y90895D01*
X341012Y89779D01*
X340947Y89118D01*
X347332D01*
Y94568D01*
D02*
G37*
G36*
X354717Y88118D02*
X348332D01*
Y82668D01*
X348816D01*
X349977Y82783D01*
X351093Y83121D01*
X352122Y83671D01*
X353024Y84411D01*
X353764Y85313D01*
X354313Y86341D01*
X354652Y87458D01*
X354717Y88118D01*
D02*
G37*
G36*
X347332D02*
X340947D01*
X341012Y87458D01*
X341351Y86341D01*
X341901Y85313D01*
X342641Y84411D01*
X343542Y83671D01*
X344571Y83121D01*
X345687Y82783D01*
X346848Y82668D01*
X347332D01*
Y88118D01*
D02*
G37*
G36*
X361854Y114376D02*
X346848D01*
X345358Y114180D01*
X343969Y113605D01*
X342776Y112690D01*
X341861Y111497D01*
X341286Y110108D01*
X341090Y108618D01*
X341286Y107128D01*
X341861Y105739D01*
X342776Y104547D01*
X343969Y103632D01*
X345358Y103057D01*
X346848Y102860D01*
X359469D01*
X366289Y96040D01*
Y70079D01*
X364764D01*
Y57874D01*
X379331D01*
Y70079D01*
X377805D01*
Y98425D01*
X377609Y99915D01*
X377034Y101304D01*
X376119Y102497D01*
X365926Y112690D01*
X364733Y113605D01*
X363344Y114180D01*
X361854Y114376D01*
D02*
G37*
G36*
X399695Y59029D02*
X398719D01*
Y55527D01*
X402220D01*
Y56504D01*
X402028Y57470D01*
X401481Y58289D01*
X400662Y58836D01*
X399695Y59029D01*
D02*
G37*
G36*
X397719D02*
X396743D01*
X395776Y58836D01*
X394957Y58289D01*
X394410Y57470D01*
X394218Y56504D01*
Y55527D01*
X397719D01*
Y59029D01*
D02*
G37*
G36*
X350606Y57494D02*
X347941D01*
Y51483D01*
X350606D01*
Y57494D01*
D02*
G37*
G36*
X346941D02*
X344276D01*
Y51483D01*
X346941D01*
Y57494D01*
D02*
G37*
G36*
X402220Y54527D02*
X398719D01*
Y51026D01*
X399695D01*
X400662Y51218D01*
X401481Y51766D01*
X402028Y52585D01*
X402220Y53551D01*
Y54527D01*
D02*
G37*
G36*
X397719D02*
X394218D01*
Y53551D01*
X394410Y52585D01*
X394957Y51766D01*
X395776Y51218D01*
X396743Y51026D01*
X397719D01*
Y54527D01*
D02*
G37*
G36*
X314469Y48293D02*
X313492D01*
Y44791D01*
X316993D01*
Y45768D01*
X316801Y46734D01*
X316254Y47553D01*
X315435Y48100D01*
X314469Y48293D01*
D02*
G37*
G36*
X312492D02*
X311516D01*
X310549Y48100D01*
X309730Y47553D01*
X309183Y46734D01*
X308991Y45768D01*
Y44791D01*
X312492D01*
Y48293D01*
D02*
G37*
G36*
X350606Y50483D02*
X347941D01*
Y44471D01*
X350606D01*
Y50483D01*
D02*
G37*
G36*
X346941D02*
X344276D01*
Y44471D01*
X346941D01*
Y50483D01*
D02*
G37*
G36*
X286385Y46515D02*
X283175D01*
Y43786D01*
X286385D01*
Y46515D01*
D02*
G37*
G36*
X282175D02*
X278964D01*
Y43786D01*
X282175D01*
Y46515D01*
D02*
G37*
G36*
X333382Y46099D02*
X330224D01*
Y42823D01*
X333382D01*
Y46099D01*
D02*
G37*
G36*
X329224D02*
X326067D01*
Y42823D01*
X329224D01*
Y46099D01*
D02*
G37*
G36*
X316993Y43791D02*
X313492D01*
Y40290D01*
X314469D01*
X315435Y40482D01*
X316254Y41030D01*
X316801Y41849D01*
X316993Y42815D01*
Y43791D01*
D02*
G37*
G36*
X312492D02*
X308991D01*
Y42815D01*
X309183Y41849D01*
X309730Y41030D01*
X310549Y40482D01*
X311516Y40290D01*
X312492D01*
Y43791D01*
D02*
G37*
G36*
X286385Y42786D02*
X283175D01*
Y40056D01*
X286385D01*
Y42786D01*
D02*
G37*
G36*
X282175D02*
X278964D01*
Y40056D01*
X282175D01*
Y42786D01*
D02*
G37*
G36*
X283379Y36235D02*
X280222D01*
Y32959D01*
X283379D01*
Y36235D01*
D02*
G37*
G36*
X273537D02*
X270379D01*
Y32959D01*
X273537D01*
Y36235D01*
D02*
G37*
G36*
X289064D02*
X285907D01*
Y32959D01*
X289064D01*
Y36235D01*
D02*
G37*
G36*
X279222D02*
X276064D01*
Y32959D01*
X279222D01*
Y36235D01*
D02*
G37*
G36*
X269379D02*
X266222D01*
Y32959D01*
X269379D01*
Y36235D01*
D02*
G37*
G36*
X261921Y33911D02*
X259553D01*
Y32211D01*
X264021D01*
X263953Y32553D01*
X263476Y33267D01*
X262762Y33744D01*
X261921Y33911D01*
D02*
G37*
G36*
X258553D02*
X256185D01*
X255343Y33744D01*
X254629Y33267D01*
X254152Y32553D01*
X254084Y32211D01*
X258553D01*
Y33911D01*
D02*
G37*
G36*
X200061Y32020D02*
X194027D01*
Y30993D01*
X193527Y30659D01*
X193459Y30687D01*
X192598D01*
X191802Y30358D01*
X191193Y29749D01*
X190863Y28953D01*
Y28091D01*
X191193Y27296D01*
X191802Y26686D01*
X192598Y26357D01*
X193459D01*
X193527Y26385D01*
X194027Y26051D01*
Y25024D01*
X200061D01*
Y32020D01*
D02*
G37*
G36*
X264021Y31211D02*
X259553D01*
Y29511D01*
X261921D01*
X262762Y29679D01*
X263476Y30156D01*
X263953Y30869D01*
X264021Y31211D01*
D02*
G37*
G36*
X258553D02*
X254084D01*
X254152Y30869D01*
X254629Y30156D01*
X255343Y29679D01*
X256185Y29511D01*
X258553D01*
Y31211D01*
D02*
G37*
G36*
X163988Y28624D02*
X160831D01*
Y25348D01*
X163988D01*
Y28624D01*
D02*
G37*
G36*
X159831D02*
X156673D01*
Y25348D01*
X159831D01*
Y28624D01*
D02*
G37*
G36*
X402530Y28033D02*
X399319D01*
Y25304D01*
X402530D01*
Y28033D01*
D02*
G37*
G36*
X398319D02*
X395108D01*
Y25304D01*
X398319D01*
Y28033D01*
D02*
G37*
G36*
X393618Y28579D02*
X390461D01*
Y25303D01*
X393618D01*
Y28579D01*
D02*
G37*
G36*
X389461D02*
X386303D01*
Y25303D01*
X389461D01*
Y28579D01*
D02*
G37*
G36*
X137500Y28804D02*
X136524D01*
Y25303D01*
X140025D01*
Y26280D01*
X139833Y27246D01*
X139285Y28065D01*
X138466Y28612D01*
X137500Y28804D01*
D02*
G37*
G36*
X135524D02*
X134547D01*
X133581Y28612D01*
X132762Y28065D01*
X132215Y27246D01*
X132022Y26280D01*
Y25303D01*
X135524D01*
Y28804D01*
D02*
G37*
G36*
X175013Y28045D02*
X173135D01*
Y25085D01*
X175013D01*
Y28045D01*
D02*
G37*
G36*
X172135D02*
X170257D01*
Y25085D01*
X172135D01*
Y28045D01*
D02*
G37*
G36*
X216317Y36794D02*
X211341D01*
Y32045D01*
X213479D01*
X213902Y31621D01*
Y29986D01*
X212346D01*
Y23096D01*
X219472D01*
Y29986D01*
X217916D01*
Y32452D01*
X217763Y33221D01*
X217329Y33872D01*
X216317Y34883D01*
Y36794D01*
D02*
G37*
G36*
X402530Y24304D02*
X399319D01*
Y21574D01*
X402530D01*
Y24304D01*
D02*
G37*
G36*
X398319D02*
X395108D01*
Y21574D01*
X398319D01*
Y24304D01*
D02*
G37*
G36*
X175013Y24085D02*
X173135D01*
Y21124D01*
X175013D01*
Y24085D01*
D02*
G37*
G36*
X172135D02*
X170257D01*
Y21124D01*
X172135D01*
Y24085D01*
D02*
G37*
G36*
X140025Y24303D02*
X136524D01*
Y20802D01*
X137500D01*
X138466Y20994D01*
X139285Y21541D01*
X139833Y22361D01*
X140025Y23327D01*
Y24303D01*
D02*
G37*
G36*
X135524D02*
X132022D01*
Y23327D01*
X132215Y22361D01*
X132762Y21541D01*
X133581Y20994D01*
X134547Y20802D01*
X135524D01*
Y24303D01*
D02*
G37*
G36*
X228128Y36794D02*
X223152D01*
Y34770D01*
X222364Y33982D01*
X221929Y33331D01*
X221776Y32563D01*
Y29986D01*
X220220D01*
Y23096D01*
X225621D01*
X225812Y22634D01*
X222881Y19703D01*
X207936D01*
Y21193D01*
X207698D01*
Y25024D01*
X207936D01*
Y32020D01*
X201902D01*
Y25024D01*
X202139D01*
Y21193D01*
X201902D01*
Y14197D01*
X207936D01*
Y15688D01*
X223170D01*
X223377Y15188D01*
X220167Y11978D01*
X219670Y12027D01*
X219447Y12360D01*
X218698Y12861D01*
X217815Y13036D01*
X214862D01*
X213979Y12861D01*
X213230Y12360D01*
X212730Y11612D01*
X212554Y10728D01*
Y10467D01*
X212330Y10018D01*
X211469D01*
X211087Y9860D01*
X207936D01*
Y11351D01*
X201902D01*
Y4355D01*
X207936D01*
Y5846D01*
X211087D01*
X211469Y5688D01*
X212330D01*
X212894Y5921D01*
X213563D01*
X213979Y5643D01*
X214862Y5468D01*
X217815D01*
X218698Y5643D01*
X219053Y5880D01*
X219648Y5999D01*
X220300Y6434D01*
X228570Y14704D01*
X237222D01*
X237343Y14728D01*
X240090D01*
X240849Y14879D01*
X241492Y15309D01*
X241922Y15952D01*
X242073Y16711D01*
X241922Y17470D01*
X241492Y18113D01*
X240849Y18543D01*
X240090Y18694D01*
X237343D01*
X237222Y18718D01*
X228280D01*
X228073Y19218D01*
X228559Y19704D01*
X237222D01*
X237343Y19728D01*
X240090D01*
X240849Y19879D01*
X241492Y20309D01*
X241922Y20952D01*
X242073Y21711D01*
X241922Y22470D01*
X241492Y23113D01*
X240849Y23543D01*
X240090Y23694D01*
X237343D01*
X237222Y23718D01*
X227728D01*
X227346Y24031D01*
Y24680D01*
X237198D01*
X237438Y24728D01*
X240090D01*
X240849Y24879D01*
X241492Y25309D01*
X241922Y25952D01*
X242073Y26711D01*
X241922Y27470D01*
X241492Y28113D01*
X240849Y28543D01*
X240090Y28694D01*
X237343D01*
X237222Y28718D01*
X237103Y28695D01*
X227346D01*
Y29986D01*
X225791D01*
Y31732D01*
X226103Y32045D01*
X228128D01*
Y36794D01*
D02*
G37*
G36*
X189665Y26619D02*
X186713D01*
X185829Y26443D01*
X185081Y25943D01*
X184580Y25194D01*
X184405Y24311D01*
Y21358D01*
X184580Y20475D01*
X185081Y19726D01*
X185829Y19226D01*
X186713Y19050D01*
X189122D01*
X189351Y18769D01*
X189049Y18352D01*
X188906Y18412D01*
X188186Y18507D01*
X187467Y18412D01*
X186797Y18134D01*
X186221Y17692D01*
X185779Y17117D01*
X185501Y16446D01*
X185407Y15727D01*
Y11351D01*
X185170D01*
Y4355D01*
X191203D01*
Y11351D01*
X190966D01*
Y15727D01*
X190871Y16446D01*
X190758Y16720D01*
X191182Y17003D01*
X191500Y16686D01*
X192151Y16251D01*
X192919Y16098D01*
X194027D01*
Y14197D01*
X194265D01*
Y11351D01*
X194027D01*
Y4355D01*
X200061D01*
Y11351D01*
X199824D01*
Y14197D01*
X200061D01*
Y21193D01*
X194027D01*
Y20542D01*
X193527Y20335D01*
X191973Y21889D01*
Y24311D01*
X191798Y25194D01*
X191297Y25943D01*
X190549Y26443D01*
X189665Y26619D01*
D02*
G37*
G36*
X342416Y19503D02*
X339947D01*
Y16248D01*
X342416D01*
Y19503D01*
D02*
G37*
G36*
X371965Y18954D02*
X368807D01*
Y15679D01*
X371965D01*
Y18954D01*
D02*
G37*
G36*
X367807D02*
X364650D01*
Y15679D01*
X367807D01*
Y18954D01*
D02*
G37*
G36*
X363106D02*
X359949D01*
Y15679D01*
X363106D01*
Y18954D01*
D02*
G37*
G36*
X358949D02*
X355791D01*
Y15679D01*
X358949D01*
Y18954D01*
D02*
G37*
G36*
X293222Y18518D02*
X290064D01*
Y15243D01*
X293222D01*
Y18518D01*
D02*
G37*
G36*
X283379D02*
X280222D01*
Y15243D01*
X283379D01*
Y18518D01*
D02*
G37*
G36*
X289064D02*
X285907D01*
Y15243D01*
X289064D01*
Y18518D01*
D02*
G37*
G36*
X279222D02*
X276064D01*
Y15243D01*
X279222D01*
Y18518D01*
D02*
G37*
G36*
X273537Y18518D02*
X270379D01*
Y15243D01*
X273537D01*
Y18518D01*
D02*
G37*
G36*
X269379D02*
X266222D01*
Y15243D01*
X269379D01*
Y18518D01*
D02*
G37*
G36*
X163988Y24348D02*
X160331D01*
X156673D01*
Y21246D01*
X156673Y21073D01*
X156308Y20746D01*
X149848D01*
X149599Y20714D01*
X148327D01*
X147443Y20538D01*
X146695Y20038D01*
X146194Y19289D01*
X146019Y18406D01*
Y15453D01*
X146194Y14570D01*
X146695Y13821D01*
X147443Y13320D01*
X148327Y13145D01*
X151279D01*
X151566Y13202D01*
X157699D01*
Y11351D01*
X157611D01*
Y4355D01*
X163644D01*
Y11351D01*
X163259D01*
Y13411D01*
X163776D01*
Y14063D01*
X166730D01*
Y13463D01*
X171060D01*
Y15309D01*
X171171Y15453D01*
X171449Y16123D01*
X171543Y16843D01*
X171449Y17562D01*
X171171Y18232D01*
X171060Y18376D01*
Y19959D01*
X166730D01*
Y19622D01*
X163776D01*
Y20537D01*
X161919D01*
X161890Y20573D01*
X162126Y21073D01*
X163988D01*
Y24348D01*
D02*
G37*
G36*
X371965Y14679D02*
X368807D01*
Y11403D01*
X371965D01*
Y14679D01*
D02*
G37*
G36*
X367807D02*
X364650D01*
Y11403D01*
X367807D01*
Y14679D01*
D02*
G37*
G36*
X363106Y14679D02*
X359949D01*
Y11403D01*
X363106D01*
Y14679D01*
D02*
G37*
G36*
X358949D02*
X355791D01*
Y11403D01*
X358949D01*
Y14679D01*
D02*
G37*
G36*
X178541Y19959D02*
X174210D01*
Y13463D01*
X174368D01*
Y11789D01*
X174521Y11021D01*
X174956Y10370D01*
X174995Y10332D01*
X174712Y9908D01*
X174031Y10190D01*
X173169D01*
X172605Y9956D01*
X171519D01*
Y11351D01*
X165485D01*
Y4355D01*
X171519D01*
Y5942D01*
X172969D01*
X173169Y5859D01*
X174031D01*
X174827Y6189D01*
X175436Y6798D01*
X175765Y7594D01*
Y8455D01*
X175483Y9136D01*
X175907Y9419D01*
X177295Y8031D01*
Y4355D01*
X183329D01*
Y11351D01*
X179652D01*
X178383Y12621D01*
Y13463D01*
X178541D01*
Y19959D01*
D02*
G37*
G36*
X138349Y17412D02*
X131725D01*
Y2231D01*
X138349D01*
Y7814D01*
X140036D01*
X140234Y7616D01*
X140863Y7253D01*
X141564Y7066D01*
X142289D01*
X142990Y7253D01*
X143619Y7616D01*
X144132Y8129D01*
X144495Y8758D01*
X144683Y9459D01*
Y10184D01*
X144495Y10885D01*
X144132Y11513D01*
X143619Y12027D01*
X142990Y12389D01*
X142289Y12577D01*
X141564D01*
X140863Y12389D01*
X140234Y12027D01*
X140036Y11828D01*
X138349D01*
Y17412D01*
D02*
G37*
G36*
X233300Y9542D02*
X230025D01*
Y6384D01*
X233300D01*
Y9542D01*
D02*
G37*
G36*
X229025D02*
X225749D01*
Y6384D01*
X229025D01*
Y9542D01*
D02*
G37*
G36*
X233300Y5384D02*
X230025D01*
Y2227D01*
X233300D01*
Y5384D01*
D02*
G37*
G36*
X229025D02*
X225749D01*
Y2227D01*
X229025D01*
Y5384D01*
D02*
G37*
%LPD*%
D33*
X259053Y21711D02*
X267123D01*
X251316Y21800D02*
X251484Y21632D01*
X255116D01*
X250194Y21876D02*
X250270Y21800D01*
X255171Y21688D02*
X259029D01*
X250270Y21800D02*
X251316D01*
X259029Y21688D02*
X259053Y21711D01*
X255116Y21632D02*
X255171Y21688D01*
X204919Y7853D02*
X211899D01*
X254071Y7414D02*
X254617Y6868D01*
X254071Y7414D02*
Y11803D01*
X254011Y11864D02*
X254071Y11803D01*
X227728Y21711D02*
X237222D01*
X204919Y17695D02*
X223712D01*
X227739Y16711D02*
X237222D01*
X218880Y7853D02*
X227739Y16711D01*
X223712Y17695D02*
X227728Y21711D01*
X216590Y7928D02*
X216732Y8071D01*
X211975Y7928D02*
X216590D01*
X211899Y7853D02*
X211975Y7928D01*
X173525Y7949D02*
X173600Y8024D01*
X168502Y7853D02*
X168598Y7949D01*
X173525D01*
X552684Y39100D02*
X554655D01*
X549139D02*
X551109D01*
X549114Y39075D02*
X549139Y39100D01*
X208071Y41043D02*
Y43285D01*
X208034Y45261D02*
Y47503D01*
X489370Y40157D02*
X489370Y40157D01*
Y30709D02*
Y40157D01*
Y30709D02*
X489370Y30709D01*
Y30227D02*
Y30709D01*
Y30227D02*
X493225Y26372D01*
X529724Y32677D02*
Y42520D01*
Y32677D02*
X529724Y32677D01*
X521850Y17410D02*
Y24321D01*
X516763Y22497D02*
X521850Y17410D01*
X516763Y22497D02*
Y23566D01*
X513956Y26372D02*
X516763Y23566D01*
X493225Y26372D02*
X513956D01*
X521850Y16929D02*
Y17410D01*
Y24321D02*
X529724Y32196D01*
Y32677D01*
X512992Y15945D02*
Y22047D01*
Y15945D02*
X512992Y15945D01*
X512992Y22047D02*
X512992Y22047D01*
X187205Y23819D02*
X192919Y18105D01*
X258858Y41339D02*
X271388D01*
X250622Y33102D02*
X258858Y41339D01*
X273335Y43286D02*
X273816D01*
X271388Y41339D02*
X273335Y43286D01*
X250622Y28095D02*
Y33102D01*
X371546Y34449D02*
X372047Y34950D01*
X250622Y28095D02*
X252005Y26711D01*
X259053D01*
X254617Y6868D02*
X263974D01*
X243677Y31688D02*
X246257Y29107D01*
Y5884D02*
Y29107D01*
X192919Y18105D02*
X196635D01*
X197044Y17695D01*
X193028Y28522D02*
X197044D01*
X273817Y51160D02*
X274085Y51429D01*
X273816Y51160D02*
X273817Y51160D01*
X458858Y22835D02*
X458858Y22835D01*
X458858Y16929D02*
Y22835D01*
X458858Y16929D02*
X458858Y16929D01*
X444095Y40551D02*
X448032Y44488D01*
X444095Y33268D02*
Y40551D01*
X448032Y44488D02*
X457874D01*
X135037Y9821D02*
X141927D01*
X160462Y16843D02*
X160479Y16826D01*
Y8001D02*
X160627Y7853D01*
X168764Y16843D02*
X168895Y16711D01*
X179264Y9382D02*
X180312Y8334D01*
Y7853D02*
Y8334D01*
X176375Y11789D02*
Y16711D01*
Y11789D02*
X178782Y9382D01*
X179264D01*
X267123Y21711D02*
X269879Y24467D01*
Y24585D01*
X237222Y31711D02*
X237245Y31688D01*
X243677D01*
X259053Y11790D02*
Y16711D01*
X263974Y6868D02*
X269879D01*
X259053Y11790D02*
X263974Y6868D01*
X225120Y33900D02*
Y34013D01*
X223783Y32563D02*
X225120Y33900D01*
Y34013D02*
X225527Y34420D01*
X225640D01*
X223783Y26541D02*
Y32563D01*
X215909Y26541D02*
Y32452D01*
X213942Y34420D02*
X215909Y32452D01*
X213829Y34420D02*
X213942D01*
X223930Y26687D02*
X237198D01*
X237222Y26711D01*
X223783Y26541D02*
X223930Y26687D01*
D35*
X359449Y6869D02*
X408659D01*
X357109Y4529D02*
X359449Y6869D01*
X279722Y6868D02*
X289564D01*
Y6869D02*
X291904Y4529D01*
X315721Y24585D02*
X324706D01*
X289564D02*
X315721D01*
X269879Y6868D02*
X279722D01*
X291904Y4529D02*
X357109D01*
X547045Y189957D02*
X547163Y189839D01*
Y181068D02*
Y189839D01*
X529563Y168957D02*
X529593Y168927D01*
Y161362D02*
Y168927D01*
X529528Y168957D02*
X529563D01*
X529108D02*
X529528D01*
X529079Y168927D02*
X529108Y168957D01*
X177165Y157480D02*
X188976D01*
X249045Y76713D02*
X249213D01*
X249016Y76742D02*
X249045Y76713D01*
X536417Y88583D02*
X547244D01*
X527559D02*
X536417D01*
X324706Y23761D02*
Y24585D01*
Y29430D01*
X329724Y34449D01*
X174407Y95451D02*
X174407Y95451D01*
X193334D01*
X167261Y76750D02*
Y85609D01*
Y73602D02*
Y76750D01*
Y73602D02*
X173955Y66908D01*
X174407D01*
X173955Y95451D02*
X174407D01*
X167291Y88787D02*
X173955Y95451D01*
X249159Y51231D02*
Y64144D01*
X249105Y51177D02*
X249159Y51231D01*
X249105Y64144D02*
X249159D01*
X390021Y16869D02*
X408659D01*
X378150Y16929D02*
X389961D01*
X390021Y16869D01*
X529724Y19882D02*
X534646Y24803D01*
X529724Y16929D02*
Y19882D01*
X136024Y24803D02*
X136069Y24848D01*
X160331D01*
X149803Y16929D02*
X149848Y16974D01*
X160331D01*
X249105Y64144D02*
X249134Y64173D01*
X249213D01*
X273817Y51160D02*
X282675D01*
X259122D02*
X273817D01*
X444095Y16871D02*
X444152Y16929D01*
X444095Y16871D02*
Y25787D01*
X444092Y16869D02*
X444095Y16871D01*
X444152Y16929D02*
X458858D01*
X279722Y24585D02*
X289564D01*
X269879D02*
X279722D01*
X259105Y51177D02*
X259122Y51160D01*
D36*
X507874Y88583D02*
D03*
X527559D02*
D03*
D37*
X398219Y55027D02*
D03*
X133858Y55118D02*
D03*
X487795Y75984D02*
D03*
X449213Y54724D02*
D03*
X479921Y53937D02*
D03*
X378150Y16929D02*
D03*
X315721Y24041D02*
D03*
X534646Y24803D02*
D03*
X535630Y7087D02*
D03*
X136024Y24803D02*
D03*
X149803Y16929D02*
D03*
X216339Y9252D02*
D03*
X188189Y22835D02*
D03*
X312992Y44291D02*
D03*
X156472Y221046D02*
D03*
D38*
X19761Y14106D02*
D03*
D39*
X489370Y40157D02*
D03*
D40*
X259105Y51177D02*
D03*
X249105D02*
D03*
X239105D02*
D03*
D41*
X293950Y70827D02*
D03*
X199987D02*
D03*
X489700Y156496D02*
D03*
X583662D02*
D03*
X582803Y213843D02*
D03*
X488841D02*
D03*
D42*
X464761Y188785D02*
D03*
Y109248D02*
D03*
D43*
X326966Y139147D02*
D03*
Y178316D02*
D03*
Y208350D02*
D03*
X77362Y161417D02*
D03*
Y125984D02*
D03*
Y90551D02*
D03*
D44*
X347832Y208618D02*
D03*
Y188618D02*
D03*
Y168618D02*
D03*
Y148618D02*
D03*
Y128618D02*
D03*
Y108618D02*
D03*
Y88618D02*
D03*
X447832Y208618D02*
D03*
Y188618D02*
D03*
Y168618D02*
D03*
Y148618D02*
D03*
Y128618D02*
D03*
Y108618D02*
D03*
Y88618D02*
D03*
D45*
X48622Y204724D02*
D03*
Y47244D02*
D03*
D46*
X525785Y189957D02*
D03*
X547045D02*
D03*
X525194Y137075D02*
D03*
X546454D02*
D03*
D47*
X562992Y80394D02*
D03*
Y100394D02*
D03*
Y35118D02*
D03*
Y55118D02*
D03*
D48*
X242320Y177162D02*
D03*
Y137792D02*
D03*
D49*
X154722Y95451D02*
D03*
X174407D02*
D03*
X154722Y38365D02*
D03*
X174407D02*
D03*
X154722Y66908D02*
D03*
X174407D02*
D03*
D50*
X132874Y164370D02*
D03*
Y143504D02*
D03*
Y122638D02*
D03*
Y101772D02*
D03*
D51*
X156693Y207874D02*
D03*
Y113386D02*
D03*
D52*
X157675Y173225D02*
D03*
Y143697D02*
D03*
D53*
X127126Y187992D02*
D03*
X107126D02*
D03*
D54*
X109252Y148622D02*
D03*
Y168307D02*
D03*
D55*
X368656Y21966D02*
D03*
X250194Y21876D02*
D03*
X359686Y22202D02*
D03*
X351575Y23622D02*
D03*
X336614D02*
D03*
X211899Y7853D02*
D03*
X254011Y11864D02*
D03*
X173600Y8024D02*
D03*
X549212Y47244D02*
D03*
X543307Y11811D02*
D03*
X531496D02*
D03*
X525590Y47244D02*
D03*
X519685Y11811D02*
D03*
X496063Y35433D02*
D03*
Y11811D02*
D03*
X478346Y47244D02*
D03*
X472441Y35433D02*
D03*
X478346Y23622D02*
D03*
X460630Y35433D02*
D03*
X448819D02*
D03*
X401575Y106299D02*
D03*
X407480Y94488D02*
D03*
X401575Y82677D02*
D03*
X407480Y70866D02*
D03*
Y47244D02*
D03*
X401575Y35433D02*
D03*
X407480Y23622D02*
D03*
X389764Y106299D02*
D03*
X395669Y94488D02*
D03*
X389764Y82677D02*
D03*
X395669Y70866D02*
D03*
X389764Y59055D02*
D03*
X395669Y47244D02*
D03*
X389764Y35433D02*
D03*
X377953Y106299D02*
D03*
X383858Y94488D02*
D03*
Y70866D02*
D03*
Y47244D02*
D03*
X372047D02*
D03*
Y23622D02*
D03*
X360236Y94488D02*
D03*
X354331Y82677D02*
D03*
X360236Y70866D02*
D03*
X354331Y59055D02*
D03*
X360236Y47244D02*
D03*
X342520Y82677D02*
D03*
X348425Y70866D02*
D03*
X342520Y59055D02*
D03*
X336614Y47244D02*
D03*
X324803D02*
D03*
X318898Y35433D02*
D03*
X307086D02*
D03*
X301181Y47244D02*
D03*
X289370D02*
D03*
X248031Y35433D02*
D03*
X236220Y11811D02*
D03*
X147638Y23622D02*
D03*
X481879Y21019D02*
D03*
X490552Y20864D02*
D03*
X498425Y20866D02*
D03*
X454078Y25505D02*
D03*
X458568Y29404D02*
D03*
X454551Y33342D02*
D03*
X512992Y22047D02*
D03*
X475399Y17162D02*
D03*
X475511Y11889D02*
D03*
X498819Y39764D02*
D03*
X499606Y52756D02*
D03*
X492520Y48819D02*
D03*
X512598Y56693D02*
D03*
X518898Y50394D02*
D03*
X534646Y48031D02*
D03*
X541736Y55185D02*
D03*
X193028Y28522D02*
D03*
X258858Y35433D02*
D03*
X300197Y12795D02*
D03*
X263779D02*
D03*
X167880Y25105D02*
D03*
X229688Y11835D02*
D03*
X263227Y35587D02*
D03*
X289988Y43397D02*
D03*
X290054Y38421D02*
D03*
X294815Y32100D02*
D03*
X295567Y13003D02*
D03*
X343025Y22708D02*
D03*
X398622Y30512D02*
D03*
X389764D02*
D03*
X383858Y24606D02*
D03*
X329724Y48228D02*
D03*
X347598Y59272D02*
D03*
X188186Y15727D02*
D03*
X458858Y22835D02*
D03*
D56*
X217500Y104376D02*
D03*
X217520Y95472D02*
D03*
X210630Y104331D02*
D03*
X141927Y9821D02*
D03*
D57*
X499213Y46458D02*
D03*
D58*
X512008Y42520D02*
D03*
Y50394D02*
D03*
D59*
X512992Y32677D02*
D03*
X505118D02*
D03*
X549409Y16929D02*
D03*
X541535D02*
D03*
X549410Y29724D02*
D03*
X541535D02*
D03*
X529724Y42520D02*
D03*
X521850D02*
D03*
X188186Y7853D02*
D03*
X180312D02*
D03*
X521850Y16929D02*
D03*
X529724D02*
D03*
X512992Y15945D02*
D03*
X505118D02*
D03*
X521850Y32677D02*
D03*
X529724D02*
D03*
X505118Y7087D02*
D03*
X512992D02*
D03*
X458858D02*
D03*
X466733D02*
D03*
X204919Y7853D02*
D03*
X197044D02*
D03*
X204919Y17695D02*
D03*
X197044D02*
D03*
X489370Y30709D02*
D03*
X481496D02*
D03*
X458858Y44488D02*
D03*
X466732D02*
D03*
X204919Y28522D02*
D03*
X197044D02*
D03*
X160627Y7853D02*
D03*
X168502D02*
D03*
X246257Y5884D02*
D03*
X254132D02*
D03*
D60*
X529528Y168957D02*
D03*
Y181496D02*
D03*
X188976Y157480D02*
D03*
Y144941D02*
D03*
X249213Y76713D02*
D03*
Y64173D02*
D03*
X547244Y88583D02*
D03*
Y76043D02*
D03*
X177165Y170020D02*
D03*
Y157480D02*
D03*
D61*
X527953Y160236D02*
D03*
Y148888D02*
D03*
X549213Y169291D02*
D03*
Y180640D02*
D03*
Y159971D02*
D03*
Y148622D02*
D03*
X229655Y63522D02*
D03*
Y74870D02*
D03*
X229331Y95010D02*
D03*
Y83661D02*
D03*
D62*
X541535Y39567D02*
D03*
Y47837D02*
D03*
D63*
X444092Y6869D02*
D03*
Y16869D02*
D03*
X408659Y6869D02*
D03*
Y16869D02*
D03*
D64*
X372047Y34950D02*
D03*
Y63976D02*
D03*
D65*
X368307Y7305D02*
D03*
Y15179D02*
D03*
X359449D02*
D03*
Y7305D02*
D03*
X289564Y14743D02*
D03*
Y6869D02*
D03*
X279722Y14743D02*
D03*
Y6869D02*
D03*
X536417Y80708D02*
D03*
Y88583D02*
D03*
X481496Y14961D02*
D03*
Y7087D02*
D03*
X490354Y14961D02*
D03*
Y7087D02*
D03*
X466732Y34646D02*
D03*
Y26772D02*
D03*
X160331Y16974D02*
D03*
Y24848D02*
D03*
X389961Y24803D02*
D03*
Y16929D02*
D03*
X269879Y24585D02*
D03*
Y32459D02*
D03*
X289564Y24585D02*
D03*
Y32459D02*
D03*
X279722Y24585D02*
D03*
Y32459D02*
D03*
X329724Y34449D02*
D03*
Y42323D02*
D03*
X269879Y6868D02*
D03*
Y14743D02*
D03*
D66*
X282675Y43286D02*
D03*
Y51160D02*
D03*
X324706Y15887D02*
D03*
Y23761D02*
D03*
X398819Y24803D02*
D03*
Y16929D02*
D03*
X273816Y43286D02*
D03*
Y51160D02*
D03*
D67*
X215909Y26541D02*
D03*
X223783D02*
D03*
X466732Y16929D02*
D03*
X458858D02*
D03*
X229525Y5884D02*
D03*
X237399D02*
D03*
D68*
X168895Y16711D02*
D03*
X176375D02*
D03*
X172635Y24585D02*
D03*
D69*
X551109Y39100D02*
D03*
X552684D02*
D03*
X208034Y43686D02*
D03*
Y45261D02*
D03*
D70*
X229331Y106299D02*
D03*
X240679D02*
D03*
X225640Y51177D02*
D03*
X214291D02*
D03*
X260364Y89567D02*
D03*
X249016D02*
D03*
X260364Y106299D02*
D03*
X249016D02*
D03*
D71*
X167687Y86614D02*
D03*
X155148D02*
D03*
X167687Y75787D02*
D03*
X155148D02*
D03*
D72*
X225640Y40351D02*
D03*
Y34420D02*
D03*
X213829Y40351D02*
D03*
Y34420D02*
D03*
D73*
X342916Y15748D02*
D03*
X334646D02*
D03*
D74*
X498228Y7087D02*
D03*
Y16319D02*
D03*
D75*
X444095Y25787D02*
D03*
Y33268D02*
D03*
X453819Y29528D02*
D03*
D76*
X347441Y50983D02*
D03*
Y34449D02*
D03*
D77*
X237222Y16711D02*
D03*
Y21711D02*
D03*
Y26711D02*
D03*
Y31711D02*
D03*
X259053Y16711D02*
D03*
Y21711D02*
D03*
Y26711D02*
D03*
Y31711D02*
D03*
D78*
X135037Y9821D02*
D03*
X110893D02*
D03*
D79*
X210597Y95451D02*
D03*
X193334D02*
D03*
D80*
X354565Y12378D02*
Y16551D01*
Y31008D01*
X110893Y24279D02*
X124979Y38365D01*
X110893Y9821D02*
Y24279D01*
X154722Y85609D02*
Y95451D01*
Y76750D02*
Y85609D01*
Y66908D02*
Y76750D01*
X124979Y38365D02*
X154722D01*
X110893Y5649D02*
Y9821D01*
D81*
X321518Y10237D02*
X346026D01*
X319239Y12516D02*
X321518Y10237D01*
X347441Y19844D02*
X347640Y19645D01*
X346026Y10237D02*
X347640Y11851D01*
X329724Y23179D02*
Y34449D01*
X327418Y20872D02*
X329724Y23179D01*
X319239Y19258D02*
X320854Y20872D01*
X319239Y12516D02*
Y19258D01*
X347441Y19844D02*
Y34449D01*
X347640Y11851D02*
Y19645D01*
X320854Y20872D02*
X327418D01*
X549409Y29724D02*
X554050Y34365D01*
X562239D02*
X562992Y35118D01*
X512992Y7087D02*
X535630D01*
X549213Y10546D02*
Y17717D01*
X535630Y7087D02*
X545753D01*
X549213Y10546D01*
X549409Y16929D02*
Y29724D01*
X554050Y34365D02*
X562239D01*
X541535Y29724D02*
Y39567D01*
X466732Y34646D02*
Y44488D01*
X347441Y34449D02*
X371546D01*
X324706Y15887D02*
X334507D01*
X529724Y16929D02*
X541535D01*
X188186Y7853D02*
Y15727D01*
X512992Y32677D02*
X521850D01*
X512008Y42520D02*
X521850D01*
X505118Y7087D02*
Y15945D01*
X466732Y26772D02*
X472146D01*
X476083Y30709D02*
X481496D01*
X472146Y26772D02*
X476083Y30709D01*
X498228Y7087D02*
X505118D01*
X466733D02*
X481496D01*
X490354D02*
X498228D01*
X481496D02*
X490354D01*
X444092Y6869D02*
X444310Y7087D01*
X458858D01*
X466732Y16929D02*
Y26772D01*
X160479Y8001D02*
Y16826D01*
X160462Y16843D02*
X168764D01*
X197044Y7853D02*
Y17695D01*
X204919D02*
Y28522D01*
D82*
X549213Y159971D02*
Y169291D01*
X527953Y148888D02*
X528086Y148755D01*
X549080D01*
X549213Y148622D01*
X249016Y76742D02*
Y89567D01*
X260364D02*
Y106299D01*
X240679D02*
X249016D01*
X229331Y95010D02*
Y106299D01*
D83*
X528744Y181801D02*
X529049Y181496D01*
X528744Y181801D02*
Y186172D01*
X529049Y181496D02*
X529528D01*
X525785Y189131D02*
X528744Y186172D01*
X525785Y189131D02*
Y189957D01*
X229493Y74964D02*
X229586Y74870D01*
X229493Y74964D02*
Y83568D01*
X229399Y83661D02*
X229493Y83568D01*
X229586Y74870D02*
X229655D01*
X229331Y83661D02*
X229399D01*
D84*
X361854Y108618D02*
X372047Y98425D01*
Y63976D02*
Y98425D01*
X347832Y108618D02*
X361854D01*
D85*
X213829Y40351D02*
Y51177D01*
X225640Y40351D02*
Y51177D01*
D86*
X237399Y5884D02*
X246257D01*
M02*
