G04*
G04 #@! TF.GenerationSoftware,Altium Limited,Altium Designer,22.0.2 (36)*
G04*
G04 Layer_Color=65535*
%FSLAX25Y25*%
%MOIN*%
G70*
G04*
G04 #@! TF.SameCoordinates,859FC916-3FFD-46C2-8808-FF4F4C249E12*
G04*
G04*
G04 #@! TF.FilePolarity,Positive*
G04*
G01*
G75*
%ADD10C,0.01000*%
%ADD11C,0.00600*%
%ADD12C,0.03150*%
%ADD13C,0.00500*%
G36*
X122759Y5634D02*
X82128D01*
Y62819D01*
X122759D01*
Y5634D01*
D02*
G37*
G36*
X368856Y4486D02*
X328225D01*
Y61671D01*
X368856D01*
Y4486D01*
D02*
G37*
%LPC*%
G36*
X120180Y61529D02*
X84923D01*
Y61314D01*
X84063D01*
Y61099D01*
X83848D01*
Y60884D01*
X83633D01*
Y60669D01*
X83418D01*
Y60239D01*
X83203D01*
Y8428D01*
X83418D01*
Y7998D01*
X83633D01*
Y7783D01*
X83848D01*
Y7568D01*
X84063D01*
Y7353D01*
X84493D01*
Y7138D01*
X120395D01*
Y7353D01*
X120825D01*
Y7568D01*
X121255D01*
Y7998D01*
X121470D01*
Y8213D01*
X121685D01*
Y46695D01*
Y46910D01*
Y60239D01*
X121470D01*
Y60669D01*
X121255D01*
Y60884D01*
X121040D01*
Y61099D01*
X120825D01*
Y61314D01*
X120180D01*
Y61529D01*
D02*
G37*
G36*
X118245Y6708D02*
X118030D01*
Y6493D01*
X118245D01*
Y6708D01*
D02*
G37*
G36*
X114590D02*
X114375D01*
Y6493D01*
X114590D01*
Y6708D01*
D02*
G37*
G36*
X113085D02*
X112870D01*
Y6493D01*
X113085D01*
Y6708D01*
D02*
G37*
G36*
X111151D02*
X110721D01*
Y6493D01*
X111151D01*
Y6708D01*
D02*
G37*
G36*
X109861D02*
X109646D01*
Y6493D01*
X109861D01*
Y6708D01*
D02*
G37*
G36*
X105776D02*
X105346D01*
Y6493D01*
X105561D01*
Y6278D01*
X105776D01*
Y6708D01*
D02*
G37*
%LPD*%
G36*
X104271Y59594D02*
X108786D01*
Y59379D01*
X111151D01*
Y59164D01*
X112870D01*
Y58949D01*
X114160D01*
Y58734D01*
X115235D01*
Y58519D01*
X116310D01*
Y58304D01*
X116955D01*
Y58089D01*
X117815D01*
Y57874D01*
X118245D01*
Y57659D01*
X118675D01*
Y57444D01*
X119105D01*
Y57229D01*
X119535D01*
Y57014D01*
X119750D01*
Y56799D01*
X119965D01*
Y55939D01*
X119750D01*
Y55509D01*
X119320D01*
Y55294D01*
X119105D01*
Y55079D01*
X118675D01*
Y54864D01*
X118245D01*
Y54649D01*
X117600D01*
Y54434D01*
X116955D01*
Y54219D01*
X116095D01*
Y54004D01*
X115020D01*
Y53789D01*
X113945D01*
Y53574D01*
X112440D01*
Y53359D01*
X110721D01*
Y53144D01*
X108141D01*
Y52929D01*
X96747D01*
Y53144D01*
X94167D01*
Y53359D01*
X92447D01*
Y53574D01*
X90942D01*
Y53789D01*
X89867D01*
Y54004D01*
X88793D01*
Y54219D01*
X87933D01*
Y54434D01*
X87288D01*
Y54649D01*
X86643D01*
Y54864D01*
X86213D01*
Y55079D01*
X85783D01*
Y55294D01*
X85568D01*
Y55509D01*
X85353D01*
Y55724D01*
X85138D01*
Y55939D01*
X84923D01*
Y56584D01*
X85138D01*
Y57014D01*
X85353D01*
Y57229D01*
X85783D01*
Y57444D01*
X86213D01*
Y57659D01*
X86643D01*
Y57874D01*
X87288D01*
Y58089D01*
X87933D01*
Y58304D01*
X88578D01*
Y58519D01*
X89652D01*
Y58734D01*
X90727D01*
Y58949D01*
X92017D01*
Y59164D01*
X93737D01*
Y59379D01*
X96102D01*
Y59594D01*
X100617D01*
Y59809D01*
X104271D01*
Y59594D01*
D02*
G37*
G36*
X121255Y51425D02*
X121470D01*
Y8858D01*
X121255D01*
Y8213D01*
X121040D01*
Y7998D01*
X120825D01*
Y7783D01*
X120610D01*
Y7568D01*
X84493D01*
Y7783D01*
X84063D01*
Y7998D01*
X83848D01*
Y8213D01*
X83633D01*
Y51640D01*
X121255D01*
Y51425D01*
D02*
G37*
%LPC*%
G36*
X105561Y59379D02*
X99327D01*
Y59164D01*
X95457D01*
Y58949D01*
X93522D01*
Y58734D01*
X91802D01*
Y58519D01*
X90512D01*
Y58304D01*
X89437D01*
Y58089D01*
X88578D01*
Y57874D01*
X87718D01*
Y57659D01*
X87073D01*
Y57444D01*
X86643D01*
Y57229D01*
X86213D01*
Y57014D01*
X85783D01*
Y56799D01*
X85568D01*
Y56584D01*
X85353D01*
Y55939D01*
X85568D01*
Y55724D01*
X85783D01*
Y55509D01*
X86213D01*
Y55294D01*
X86643D01*
Y55079D01*
X87288D01*
Y54864D01*
X87933D01*
Y54649D01*
X88793D01*
Y54434D01*
X89652D01*
Y54219D01*
X90727D01*
Y54004D01*
X92017D01*
Y53789D01*
X93737D01*
Y53574D01*
X96102D01*
Y53359D01*
X100617D01*
Y53144D01*
X104271D01*
Y53359D01*
X108786D01*
Y53574D01*
X111151D01*
Y53789D01*
X112870D01*
Y54004D01*
X114160D01*
Y54219D01*
X115235D01*
Y54434D01*
X116310D01*
Y54649D01*
X116955D01*
Y54864D01*
X117600D01*
Y55079D01*
X118245D01*
Y55294D01*
X118675D01*
Y55509D01*
X119105D01*
Y55724D01*
X119320D01*
Y55939D01*
X119535D01*
Y56584D01*
X119320D01*
Y56799D01*
X119105D01*
Y57014D01*
X118675D01*
Y57229D01*
X118245D01*
Y57444D01*
X117815D01*
Y57659D01*
X117170D01*
Y57874D01*
X116525D01*
Y58089D01*
X115450D01*
Y58304D01*
X114375D01*
Y58519D01*
X113085D01*
Y58734D01*
X111365D01*
Y58949D01*
X109431D01*
Y59164D01*
X105561D01*
Y59379D01*
D02*
G37*
%LPD*%
G36*
Y58089D02*
X105991D01*
Y57874D01*
X106206D01*
Y57444D01*
X106421D01*
Y57014D01*
X105561D01*
Y57229D01*
X105346D01*
Y57444D01*
X104916D01*
Y57659D01*
X104701D01*
Y57444D01*
X104271D01*
Y57014D01*
X104056D01*
Y55509D01*
X104271D01*
Y55079D01*
X104701D01*
Y54864D01*
X105131D01*
Y55079D01*
X105561D01*
Y55724D01*
X104701D01*
Y56369D01*
X106421D01*
Y54649D01*
X106206D01*
Y54434D01*
X105776D01*
Y54219D01*
X104056D01*
Y54434D01*
X103841D01*
Y54649D01*
X103626D01*
Y54864D01*
X103411D01*
Y55079D01*
X103196D01*
Y57444D01*
X103411D01*
Y57659D01*
X103626D01*
Y57874D01*
X103841D01*
Y58089D01*
X104056D01*
Y58304D01*
X105561D01*
Y58089D01*
D02*
G37*
G36*
X102551Y54219D02*
X101691D01*
Y54434D01*
X101476D01*
Y54864D01*
X101261D01*
Y55079D01*
X101046D01*
Y55509D01*
X100831D01*
Y55939D01*
X100617D01*
Y56154D01*
X100401D01*
Y56584D01*
X100187D01*
Y54219D01*
X99327D01*
Y58304D01*
X100187D01*
Y58089D01*
X100401D01*
Y57874D01*
X100617D01*
Y57444D01*
X100831D01*
Y57014D01*
X101046D01*
Y56799D01*
X101261D01*
Y56369D01*
X101476D01*
Y55939D01*
X101691D01*
Y58304D01*
X102551D01*
Y54219D01*
D02*
G37*
G36*
X112225Y58089D02*
X112655D01*
Y57874D01*
X112870D01*
Y57659D01*
X113085D01*
Y56369D01*
X112870D01*
Y56154D01*
X112655D01*
Y55939D01*
X112440D01*
Y55724D01*
X112655D01*
Y55294D01*
X112870D01*
Y54864D01*
X113085D01*
Y54434D01*
X113300D01*
Y54219D01*
X112225D01*
Y54649D01*
X112011D01*
Y55079D01*
X111795D01*
Y55509D01*
X111581D01*
Y55724D01*
X111151D01*
Y55509D01*
X110936D01*
Y54219D01*
X110076D01*
Y57444D01*
Y57659D01*
Y58304D01*
X112225D01*
Y58089D01*
D02*
G37*
G36*
X109646Y57444D02*
X107926D01*
Y56584D01*
X108141D01*
Y56799D01*
X109431D01*
Y55939D01*
X107926D01*
Y55079D01*
X109646D01*
Y54219D01*
X107066D01*
Y58304D01*
X109646D01*
Y57444D01*
D02*
G37*
G36*
X97607Y57874D02*
X97822D01*
Y57444D01*
X98037D01*
Y56799D01*
X98252D01*
Y56154D01*
X98467D01*
Y55724D01*
X98682D01*
Y55079D01*
X98897D01*
Y54434D01*
X99112D01*
Y54219D01*
X98037D01*
Y54864D01*
X97822D01*
Y55079D01*
X96532D01*
Y54864D01*
X96317D01*
Y54219D01*
X95242D01*
Y54434D01*
X95457D01*
Y55079D01*
X95672D01*
Y55724D01*
X95887D01*
Y56369D01*
X96102D01*
Y56799D01*
X96317D01*
Y57444D01*
X96532D01*
Y58089D01*
X96747D01*
Y58304D01*
X97607D01*
Y57874D01*
D02*
G37*
G36*
X93952Y58089D02*
X94382D01*
Y57874D01*
X94597D01*
Y57659D01*
X94812D01*
Y57444D01*
X95027D01*
Y56799D01*
X95242D01*
Y56584D01*
Y56369D01*
Y55509D01*
X95027D01*
Y55079D01*
X94812D01*
Y54864D01*
X94597D01*
Y54649D01*
X94382D01*
Y54434D01*
X93952D01*
Y54219D01*
X92017D01*
Y58304D01*
X93952D01*
Y58089D01*
D02*
G37*
%LPC*%
G36*
X112011Y57444D02*
X110936D01*
Y56584D01*
X111151D01*
Y56369D01*
X111795D01*
Y56584D01*
X112225D01*
Y56799D01*
Y57229D01*
X112011D01*
Y57444D01*
D02*
G37*
G36*
X97177Y56799D02*
X96962D01*
Y56584D01*
Y56154D01*
X96747D01*
Y55724D01*
X97607D01*
Y55939D01*
X97392D01*
Y56584D01*
X97177D01*
Y56799D01*
D02*
G37*
G36*
X93952Y57444D02*
X93092D01*
Y57229D01*
Y55079D01*
X93952D01*
Y55294D01*
X94167D01*
Y57229D01*
X93952D01*
Y57444D01*
D02*
G37*
G36*
X104701Y49920D02*
X102551D01*
Y49705D01*
X102336D01*
Y49490D01*
X102121D01*
Y49275D01*
X101906D01*
Y49060D01*
X101691D01*
Y48415D01*
X101476D01*
Y46480D01*
X101691D01*
Y45835D01*
X101906D01*
Y45620D01*
X102121D01*
Y45405D01*
X102336D01*
Y45190D01*
X102551D01*
Y44975D01*
X103196D01*
Y44760D01*
X104486D01*
Y44975D01*
X105131D01*
Y45190D01*
X105346D01*
Y45405D01*
X105561D01*
Y47555D01*
X103626D01*
Y46695D01*
X104701D01*
Y45835D01*
X104271D01*
Y45620D01*
X103196D01*
Y45835D01*
X102981D01*
Y46050D01*
X102766D01*
Y46480D01*
X102551D01*
Y48415D01*
X102766D01*
Y48845D01*
X102981D01*
Y49060D01*
X103411D01*
Y49275D01*
X104056D01*
Y49060D01*
X104486D01*
Y48630D01*
X104701D01*
Y48415D01*
X105561D01*
Y49060D01*
X105346D01*
Y49490D01*
X105131D01*
Y49705D01*
X104701D01*
Y49920D01*
D02*
G37*
G36*
X110721D02*
X109646D01*
Y47985D01*
X107496D01*
Y49920D01*
X106421D01*
Y44975D01*
X107281D01*
Y44760D01*
X107496D01*
Y46910D01*
X107711D01*
Y47125D01*
X109646D01*
Y44760D01*
X109861D01*
Y44975D01*
X110721D01*
Y47340D01*
Y47555D01*
Y49920D01*
D02*
G37*
G36*
X98682D02*
X97607D01*
Y47985D01*
X95457D01*
Y48200D01*
Y49920D01*
X94382D01*
Y44975D01*
X95242D01*
Y44760D01*
X95457D01*
Y47125D01*
X97607D01*
Y44760D01*
X97822D01*
Y44975D01*
X98682D01*
Y49920D01*
D02*
G37*
G36*
X100617D02*
X99541D01*
Y44975D01*
X100401D01*
Y44760D01*
X100617D01*
Y48845D01*
Y49060D01*
Y49920D01*
D02*
G37*
G36*
X112011Y43470D02*
X110721D01*
Y43255D01*
X110291D01*
Y43040D01*
X109861D01*
Y42825D01*
X109646D01*
Y42395D01*
X109431D01*
Y41750D01*
X109216D01*
Y39816D01*
X109431D01*
Y39171D01*
X109646D01*
Y38956D01*
X109861D01*
Y38741D01*
X110076D01*
Y38526D01*
X110506D01*
Y38311D01*
X112655D01*
Y38526D01*
X113085D01*
Y38741D01*
X113300D01*
Y40890D01*
X111365D01*
Y40246D01*
X112225D01*
Y40031D01*
X112440D01*
Y39386D01*
X112225D01*
Y39171D01*
X111795D01*
Y38956D01*
X111151D01*
Y39171D01*
X110721D01*
Y39386D01*
X110506D01*
Y39816D01*
X110291D01*
Y41750D01*
X110506D01*
Y42180D01*
X110721D01*
Y42395D01*
X110936D01*
Y42610D01*
X111795D01*
Y42395D01*
X112225D01*
Y41965D01*
X112440D01*
Y41750D01*
X113300D01*
Y42395D01*
X113085D01*
Y42825D01*
X112870D01*
Y43040D01*
X112655D01*
Y43255D01*
X112011D01*
Y43470D01*
D02*
G37*
G36*
X92017D02*
X90942D01*
Y43255D01*
X90727D01*
Y42610D01*
X90512D01*
Y41965D01*
X90297D01*
Y41320D01*
X90082D01*
Y40461D01*
X89867D01*
Y39816D01*
X89437D01*
Y40676D01*
X89222D01*
Y41320D01*
X89008D01*
Y42180D01*
X88793D01*
Y42825D01*
X88578D01*
Y43255D01*
X88362D01*
Y43470D01*
X87503D01*
Y42610D01*
X87718D01*
Y41965D01*
X87933D01*
Y41320D01*
X88147D01*
Y40676D01*
X88362D01*
Y40246D01*
X88578D01*
Y39601D01*
X88793D01*
Y38956D01*
X89008D01*
Y38311D01*
X90297D01*
Y38741D01*
X90512D01*
Y39386D01*
X90727D01*
Y39816D01*
Y40031D01*
X90942D01*
Y40676D01*
X91157D01*
Y41320D01*
X91372D01*
Y41965D01*
X91587D01*
Y42610D01*
X91802D01*
Y43040D01*
X92017D01*
Y43470D01*
D02*
G37*
G36*
X117600D02*
X114375D01*
Y43255D01*
X114160D01*
Y43040D01*
Y42825D01*
Y38311D01*
X117600D01*
Y39171D01*
X115235D01*
Y40461D01*
X117385D01*
Y41320D01*
X115235D01*
Y42395D01*
X115450D01*
Y42610D01*
X117600D01*
Y43470D01*
D02*
G37*
G36*
X107066D02*
X106206D01*
Y43255D01*
X105991D01*
Y42825D01*
X105776D01*
Y42395D01*
X105561D01*
Y41750D01*
X105346D01*
Y41105D01*
X105131D01*
Y40676D01*
X104916D01*
Y40031D01*
X104701D01*
Y39386D01*
X104486D01*
Y38956D01*
X104271D01*
Y38311D01*
X105346D01*
Y38741D01*
X105561D01*
Y39386D01*
X107496D01*
Y38956D01*
X107711D01*
Y38311D01*
X108786D01*
Y38956D01*
X108571D01*
Y39601D01*
X108356D01*
Y40031D01*
X108141D01*
Y40676D01*
X107926D01*
Y41320D01*
X107711D01*
Y41750D01*
X107496D01*
Y41965D01*
Y42395D01*
X107281D01*
Y43040D01*
X107066D01*
Y43470D01*
D02*
G37*
G36*
X104271D02*
X100401D01*
Y43255D01*
X100187D01*
Y42610D01*
X101691D01*
Y42395D01*
X101906D01*
Y38311D01*
X102766D01*
Y39171D01*
Y39386D01*
Y42395D01*
X102981D01*
Y42610D01*
X104486D01*
Y43255D01*
X104271D01*
Y43470D01*
D02*
G37*
G36*
X98467D02*
X97392D01*
Y38311D01*
X100617D01*
Y39171D01*
X98467D01*
Y39601D01*
Y39816D01*
Y43470D01*
D02*
G37*
G36*
X95027D02*
X93952D01*
Y43255D01*
X93307D01*
Y43040D01*
X93092D01*
Y42825D01*
X92877D01*
Y42610D01*
X92662D01*
Y42180D01*
X92447D01*
Y41535D01*
X92232D01*
Y40031D01*
X92447D01*
Y39386D01*
X92662D01*
Y38956D01*
X92877D01*
Y38741D01*
X93092D01*
Y38526D01*
X93522D01*
Y38311D01*
X95457D01*
Y38526D01*
X95672D01*
Y38741D01*
X96102D01*
Y39171D01*
X96317D01*
Y39601D01*
X96532D01*
Y42180D01*
X96317D01*
Y42610D01*
X96102D01*
Y42825D01*
X95887D01*
Y43040D01*
X95672D01*
Y43255D01*
X95027D01*
Y43470D01*
D02*
G37*
G36*
X116955Y35086D02*
X116525D01*
Y34871D01*
X116095D01*
Y34656D01*
X115665D01*
Y34441D01*
X115235D01*
Y34226D01*
X114805D01*
Y34011D01*
X114375D01*
Y33796D01*
X114160D01*
Y33366D01*
X114375D01*
Y33151D01*
X114590D01*
Y32721D01*
X113945D01*
Y32506D01*
X113515D01*
Y32291D01*
X112870D01*
Y32076D01*
X112225D01*
Y31861D01*
X112011D01*
Y31646D01*
X112225D01*
Y31431D01*
X112440D01*
Y31216D01*
X112655D01*
Y31001D01*
X112870D01*
Y30786D01*
X113085D01*
Y30356D01*
X112655D01*
Y30141D01*
X112225D01*
Y29926D01*
X111795D01*
Y29711D01*
X111365D01*
Y29496D01*
X110936D01*
Y29281D01*
X110506D01*
Y29067D01*
X111365D01*
Y29281D01*
X112440D01*
Y29496D01*
X113300D01*
Y29711D01*
X114160D01*
Y29926D01*
X115235D01*
Y30141D01*
X115450D01*
Y30356D01*
X115235D01*
Y30571D01*
X115020D01*
Y30786D01*
X114805D01*
Y31001D01*
X114590D01*
Y31216D01*
X114375D01*
Y31646D01*
X115235D01*
Y31861D01*
X116310D01*
Y32076D01*
X117170D01*
Y32291D01*
X116955D01*
Y32506D01*
X116740D01*
Y32721D01*
X116525D01*
Y32936D01*
X116310D01*
Y33366D01*
X116740D01*
Y33581D01*
X117170D01*
Y33796D01*
X117600D01*
Y34011D01*
X118030D01*
Y34226D01*
X118245D01*
Y34441D01*
X117815D01*
Y34656D01*
X117385D01*
Y34871D01*
X116955D01*
Y35086D01*
D02*
G37*
G36*
X110506Y29067D02*
X110076D01*
Y28852D01*
X110506D01*
Y29067D01*
D02*
G37*
G36*
X87933Y35086D02*
X87503D01*
Y34871D01*
X86858D01*
Y34656D01*
X86428D01*
Y34441D01*
X85998D01*
Y34226D01*
X86213D01*
Y34011D01*
X86643D01*
Y33796D01*
X87073D01*
Y33581D01*
X87503D01*
Y33366D01*
X87933D01*
Y32721D01*
X87718D01*
Y32506D01*
X87503D01*
Y32291D01*
X87288D01*
Y32076D01*
X88147D01*
Y31861D01*
X89222D01*
Y31646D01*
X90082D01*
Y31431D01*
X89867D01*
Y31216D01*
X89652D01*
Y31001D01*
X89437D01*
Y30786D01*
X89222D01*
Y30571D01*
X89008D01*
Y30356D01*
X88793D01*
Y30141D01*
X89222D01*
Y29926D01*
X90082D01*
Y29711D01*
X91157D01*
Y29496D01*
X92017D01*
Y29281D01*
X92877D01*
Y29067D01*
X93737D01*
Y28852D01*
X94382D01*
Y29067D01*
X93737D01*
Y29281D01*
X93522D01*
Y29496D01*
X93092D01*
Y29711D01*
X92662D01*
Y29926D01*
X92232D01*
Y30141D01*
X91802D01*
Y30356D01*
X91372D01*
Y30786D01*
X91587D01*
Y31001D01*
X91802D01*
Y31216D01*
X92017D01*
Y31646D01*
X92232D01*
Y31861D01*
X92017D01*
Y32076D01*
X91587D01*
Y32291D01*
X90942D01*
Y32506D01*
X90297D01*
Y32721D01*
X89867D01*
Y33151D01*
X90082D01*
Y33581D01*
X90297D01*
Y33796D01*
X89867D01*
Y34011D01*
X89437D01*
Y34226D01*
X89008D01*
Y34441D01*
X88793D01*
Y34656D01*
X88362D01*
Y34871D01*
X87933D01*
Y35086D01*
D02*
G37*
G36*
X103841Y33581D02*
X100831D01*
Y33366D01*
X100187D01*
Y33151D01*
X99756D01*
Y32936D01*
X99327D01*
Y32721D01*
X99112D01*
Y32506D01*
X98682D01*
Y32291D01*
X98467D01*
Y32076D01*
X98252D01*
Y31861D01*
X98037D01*
Y31431D01*
X97822D01*
Y31216D01*
X97607D01*
Y30786D01*
X97392D01*
Y30141D01*
X97177D01*
Y27347D01*
X97392D01*
Y26487D01*
X97607D01*
Y26057D01*
X97822D01*
Y25627D01*
X98037D01*
Y24552D01*
X98252D01*
Y23907D01*
X98037D01*
Y24122D01*
X97392D01*
Y24337D01*
X96962D01*
Y24552D01*
X96747D01*
Y24767D01*
X96532D01*
Y24982D01*
Y25197D01*
X96317D01*
Y25412D01*
X95887D01*
Y25627D01*
X95457D01*
Y25412D01*
X95242D01*
Y24982D01*
X95027D01*
Y24122D01*
X94812D01*
Y23477D01*
X94597D01*
Y22832D01*
X94812D01*
Y22617D01*
X96102D01*
Y22832D01*
X96962D01*
Y22617D01*
X97392D01*
Y22402D01*
X97822D01*
Y22187D01*
X98252D01*
Y21972D01*
X98682D01*
Y21757D01*
X98897D01*
Y21327D01*
X99112D01*
Y20252D01*
X98897D01*
Y20037D01*
X98467D01*
Y19822D01*
X98037D01*
Y19607D01*
X97607D01*
Y19392D01*
X96747D01*
Y19607D01*
X95887D01*
Y19392D01*
X95672D01*
Y19177D01*
X95457D01*
Y18962D01*
X95672D01*
Y18317D01*
X95887D01*
Y17887D01*
X96102D01*
Y17458D01*
X96317D01*
Y17243D01*
X96747D01*
Y17028D01*
X97177D01*
Y17243D01*
X97607D01*
Y17458D01*
X97822D01*
Y17673D01*
X98037D01*
Y17887D01*
X98252D01*
Y18102D01*
X98467D01*
Y18317D01*
X98897D01*
Y18532D01*
X99327D01*
Y18747D01*
X99756D01*
Y18962D01*
X99971D01*
Y18747D01*
X100187D01*
Y18532D01*
X100401D01*
Y18317D01*
X100831D01*
Y18102D01*
X101046D01*
Y17887D01*
X101476D01*
Y17673D01*
X103411D01*
Y17887D01*
X104056D01*
Y18102D01*
X104271D01*
Y18317D01*
X104701D01*
Y18532D01*
X104916D01*
Y18747D01*
X105131D01*
Y18962D01*
X105561D01*
Y18747D01*
X105991D01*
Y18532D01*
X106421D01*
Y18317D01*
X106851D01*
Y18102D01*
X107066D01*
Y17887D01*
X107496D01*
Y17673D01*
X107711D01*
Y17458D01*
X107926D01*
Y17243D01*
X108141D01*
Y17028D01*
X108356D01*
Y16813D01*
X108786D01*
Y17028D01*
X109001D01*
Y17243D01*
X109216D01*
Y17458D01*
X109431D01*
Y17887D01*
X109646D01*
Y19392D01*
X107926D01*
Y19607D01*
X107281D01*
Y19822D01*
X106851D01*
Y20037D01*
X106421D01*
Y20252D01*
X105991D01*
Y20467D01*
X105776D01*
Y21112D01*
X105991D01*
Y21542D01*
X106206D01*
Y21757D01*
X106421D01*
Y21972D01*
X106851D01*
Y22187D01*
X107281D01*
Y22402D01*
X107711D01*
Y22617D01*
X108141D01*
Y22832D01*
X109861D01*
Y23047D01*
X110291D01*
Y23477D01*
X110506D01*
Y23692D01*
X110291D01*
Y24122D01*
X110076D01*
Y24552D01*
X109861D01*
Y24767D01*
X109646D01*
Y25197D01*
X109431D01*
Y25412D01*
X108571D01*
Y24982D01*
X108356D01*
Y24552D01*
X108141D01*
Y24337D01*
X107711D01*
Y24122D01*
X107496D01*
Y23907D01*
X106636D01*
Y24767D01*
X106851D01*
Y25627D01*
X106636D01*
Y26272D01*
X106851D01*
Y26702D01*
X107066D01*
Y27132D01*
X107281D01*
Y27562D01*
X107496D01*
Y30356D01*
X107281D01*
Y30786D01*
X107066D01*
Y31216D01*
X106851D01*
Y31431D01*
X106636D01*
Y31646D01*
X106421D01*
Y31861D01*
X106206D01*
Y32076D01*
X105991D01*
Y32291D01*
X105776D01*
Y32506D01*
X105561D01*
Y32721D01*
X105131D01*
Y32936D01*
X104916D01*
Y33151D01*
X104486D01*
Y33366D01*
X103841D01*
Y33581D01*
D02*
G37*
G36*
X110076Y21757D02*
X109861D01*
Y21542D01*
X110076D01*
Y21757D01*
D02*
G37*
G36*
X94597D02*
X94382D01*
Y21542D01*
X94597D01*
Y21757D01*
D02*
G37*
G36*
X110936Y21542D02*
X110291D01*
Y21327D01*
X110721D01*
Y21112D01*
X111151D01*
Y20897D01*
X111581D01*
Y20682D01*
X112011D01*
Y20467D01*
X112440D01*
Y20252D01*
X112655D01*
Y20037D01*
X113085D01*
Y19822D01*
X112870D01*
Y19607D01*
X112655D01*
Y19392D01*
X112440D01*
Y19177D01*
X112225D01*
Y18962D01*
X112011D01*
Y18532D01*
X112440D01*
Y18317D01*
X113085D01*
Y18102D01*
X113730D01*
Y17887D01*
X114160D01*
Y17673D01*
X114375D01*
Y17243D01*
X114160D01*
Y17028D01*
X113945D01*
Y16813D01*
X114160D01*
Y16598D01*
X114590D01*
Y16383D01*
X115020D01*
Y16168D01*
X115450D01*
Y15953D01*
X115880D01*
Y15738D01*
X116310D01*
Y15523D01*
X117170D01*
Y15738D01*
X117600D01*
Y15953D01*
X118030D01*
Y16168D01*
X118245D01*
Y16383D01*
X117815D01*
Y16598D01*
X117385D01*
Y16813D01*
X116955D01*
Y17028D01*
X116525D01*
Y17243D01*
X116310D01*
Y17673D01*
X116525D01*
Y17887D01*
X116740D01*
Y18102D01*
X116955D01*
Y18317D01*
X116740D01*
Y18532D01*
X115665D01*
Y18747D01*
X114590D01*
Y18962D01*
X114375D01*
Y19392D01*
X114805D01*
Y19822D01*
X115020D01*
Y20037D01*
X115235D01*
Y20252D01*
X115450D01*
Y20467D01*
X114590D01*
Y20682D01*
X113730D01*
Y20897D01*
X112870D01*
Y21112D01*
X111795D01*
Y21327D01*
X110936D01*
Y21542D01*
D02*
G37*
G36*
X94167D02*
X93522D01*
Y21327D01*
X92662D01*
Y21112D01*
X91587D01*
Y20897D01*
X90727D01*
Y20682D01*
X89867D01*
Y20467D01*
X89008D01*
Y20252D01*
X89222D01*
Y20037D01*
X89437D01*
Y19822D01*
X89652D01*
Y19392D01*
X89867D01*
Y19177D01*
X90082D01*
Y18962D01*
X89867D01*
Y18747D01*
X88793D01*
Y18532D01*
X87718D01*
Y18317D01*
X87503D01*
Y18102D01*
X87718D01*
Y17887D01*
X87933D01*
Y17673D01*
X88147D01*
Y17243D01*
X87933D01*
Y17028D01*
X87503D01*
Y16813D01*
X87073D01*
Y16598D01*
X86643D01*
Y16383D01*
X86213D01*
Y16168D01*
X86428D01*
Y15953D01*
X86858D01*
Y15738D01*
X87288D01*
Y15523D01*
X88147D01*
Y15738D01*
X88578D01*
Y15953D01*
X89008D01*
Y16168D01*
X89437D01*
Y16383D01*
X89867D01*
Y16598D01*
X90297D01*
Y16813D01*
X90512D01*
Y17028D01*
X90297D01*
Y17243D01*
X90082D01*
Y17673D01*
X90297D01*
Y17887D01*
X90727D01*
Y18102D01*
X91372D01*
Y18317D01*
X92017D01*
Y18532D01*
X92447D01*
Y18962D01*
X92232D01*
Y19177D01*
X92017D01*
Y19392D01*
X91802D01*
Y19607D01*
X91587D01*
Y19822D01*
X91372D01*
Y20037D01*
X91587D01*
Y20252D01*
X92017D01*
Y20467D01*
X92447D01*
Y20682D01*
X92877D01*
Y20897D01*
X93307D01*
Y21112D01*
X93737D01*
Y21327D01*
X94167D01*
Y21542D01*
D02*
G37*
G36*
X97177Y12943D02*
X94597D01*
Y9073D01*
X97177D01*
Y9718D01*
X95242D01*
Y10793D01*
X96962D01*
Y11438D01*
X95242D01*
Y12298D01*
X95457D01*
Y12513D01*
X95672D01*
Y12298D01*
X96962D01*
Y12513D01*
X97177D01*
Y12943D01*
D02*
G37*
G36*
X93952D02*
X91372D01*
Y9718D01*
Y9503D01*
Y9073D01*
X93952D01*
Y9718D01*
X92232D01*
Y10793D01*
X93737D01*
Y11438D01*
X92232D01*
Y12513D01*
X92447D01*
Y12298D01*
X93952D01*
Y12943D01*
D02*
G37*
G36*
X117385D02*
X116525D01*
Y12513D01*
X116310D01*
Y12083D01*
X116095D01*
Y11653D01*
X115880D01*
Y11438D01*
X115665D01*
Y11868D01*
X115450D01*
Y12298D01*
X115235D01*
Y12728D01*
X115020D01*
Y12943D01*
X114160D01*
Y12728D01*
X114375D01*
Y12298D01*
X114590D01*
Y11868D01*
X114805D01*
Y11438D01*
X115020D01*
Y11008D01*
X115235D01*
Y10578D01*
X115450D01*
Y9073D01*
X116095D01*
Y10363D01*
X116310D01*
Y11008D01*
X116525D01*
Y11438D01*
X116740D01*
Y11653D01*
X116955D01*
Y12083D01*
X117170D01*
Y12513D01*
X117385D01*
Y12943D01*
D02*
G37*
G36*
X90727D02*
X89867D01*
Y12728D01*
X89652D01*
Y12513D01*
X89437D01*
Y12083D01*
X89222D01*
Y11868D01*
X89008D01*
Y11653D01*
X88793D01*
Y11438D01*
X88578D01*
Y12943D01*
X87933D01*
Y9073D01*
X88578D01*
Y10363D01*
X88793D01*
Y10578D01*
X89222D01*
Y10363D01*
X89437D01*
Y9933D01*
X89652D01*
Y9503D01*
X89867D01*
Y9288D01*
X90082D01*
Y9073D01*
X90942D01*
Y9288D01*
X90727D01*
Y9718D01*
X90512D01*
Y9933D01*
X90297D01*
Y10363D01*
X90082D01*
Y10793D01*
X89867D01*
Y11008D01*
X89652D01*
Y11438D01*
X89867D01*
Y11868D01*
X90082D01*
Y12083D01*
X90297D01*
Y12298D01*
X90512D01*
Y12513D01*
X90727D01*
Y12943D01*
D02*
G37*
G36*
X110721D02*
X109861D01*
Y11868D01*
X109646D01*
Y10793D01*
X109431D01*
Y10578D01*
X109216D01*
Y11438D01*
X109001D01*
Y12298D01*
X108786D01*
Y12943D01*
X107926D01*
Y11868D01*
X107711D01*
Y11008D01*
X107496D01*
Y10363D01*
X107281D01*
Y11223D01*
X107066D01*
Y12513D01*
X106851D01*
Y12943D01*
X106206D01*
Y11868D01*
X106421D01*
Y11008D01*
X106636D01*
Y9933D01*
X106851D01*
Y9073D01*
X107711D01*
Y9503D01*
X107926D01*
Y9933D01*
Y10148D01*
Y10363D01*
X108141D01*
Y11223D01*
X108356D01*
Y11438D01*
X108571D01*
Y10578D01*
X108786D01*
Y9718D01*
X109001D01*
Y9073D01*
X109861D01*
Y9503D01*
X110076D01*
Y10578D01*
X110291D01*
Y11438D01*
X110506D01*
Y12513D01*
X110721D01*
Y12943D01*
D02*
G37*
G36*
X113085D02*
X112225D01*
Y12728D01*
X112011D01*
Y12083D01*
X111795D01*
Y11653D01*
X111581D01*
Y11008D01*
X111365D01*
Y10363D01*
X111151D01*
Y9933D01*
X110936D01*
Y9288D01*
X110721D01*
Y9073D01*
X111581D01*
Y9288D01*
X111795D01*
Y9933D01*
X113300D01*
Y9718D01*
X113515D01*
Y9073D01*
X114375D01*
Y9288D01*
Y9503D01*
X114160D01*
Y10148D01*
X113945D01*
Y10793D01*
X113730D01*
Y11223D01*
X113515D01*
Y11868D01*
X113300D01*
Y12513D01*
X113085D01*
Y12943D01*
D02*
G37*
G36*
X104701D02*
X103626D01*
Y12298D01*
X103411D01*
Y11653D01*
X103196D01*
Y11008D01*
X102981D01*
Y10578D01*
X102766D01*
Y9933D01*
X102551D01*
Y9288D01*
X102336D01*
Y9073D01*
X103196D01*
Y9503D01*
X103411D01*
Y9933D01*
X104916D01*
Y9503D01*
X105131D01*
Y9073D01*
X105991D01*
Y9503D01*
X105776D01*
Y9933D01*
X105561D01*
Y10578D01*
X105346D01*
Y11223D01*
X105131D01*
Y11653D01*
X104916D01*
Y12083D01*
Y12298D01*
X104701D01*
Y12943D01*
D02*
G37*
G36*
X99971D02*
X97607D01*
Y9073D01*
X98467D01*
Y10578D01*
X100187D01*
Y10793D01*
X100401D01*
Y11008D01*
X100617D01*
Y12513D01*
X100401D01*
Y12728D01*
X99971D01*
Y12943D01*
D02*
G37*
%LPD*%
G36*
X106636Y41750D02*
Y41535D01*
X106851D01*
Y40890D01*
X107066D01*
Y40246D01*
X105991D01*
Y40676D01*
X106206D01*
Y41320D01*
X106421D01*
Y41965D01*
X106636D01*
Y41750D01*
D02*
G37*
G36*
X94812Y42395D02*
X95242D01*
Y41965D01*
X95457D01*
Y41105D01*
X95672D01*
Y40461D01*
X95457D01*
Y39601D01*
X95242D01*
Y39386D01*
X95027D01*
Y39171D01*
X94597D01*
Y38956D01*
X94167D01*
Y39171D01*
X93737D01*
Y39386D01*
X93522D01*
Y40031D01*
X93307D01*
Y41750D01*
X93522D01*
Y42180D01*
X93737D01*
Y42395D01*
X93952D01*
Y42610D01*
X94812D01*
Y42395D01*
D02*
G37*
G36*
X102981Y32936D02*
X103841D01*
Y32721D01*
X104486D01*
Y32506D01*
X104916D01*
Y32291D01*
X105346D01*
Y32076D01*
X105561D01*
Y31861D01*
X105776D01*
Y31646D01*
X105991D01*
Y31431D01*
X106206D01*
Y31216D01*
X106421D01*
Y31001D01*
X106636D01*
Y30786D01*
X106851D01*
Y30356D01*
X107066D01*
Y29496D01*
X107281D01*
Y28422D01*
X107066D01*
Y27347D01*
X106851D01*
Y26917D01*
X106636D01*
Y26702D01*
X106421D01*
Y26917D01*
X106206D01*
Y27347D01*
X106421D01*
Y29496D01*
X106206D01*
Y29926D01*
X105991D01*
Y30141D01*
X105776D01*
Y29711D01*
X105991D01*
Y26057D01*
X106206D01*
Y25412D01*
X106421D01*
Y24767D01*
X106206D01*
Y23907D01*
X105991D01*
Y23692D01*
X105776D01*
Y23477D01*
X105346D01*
Y23262D01*
X104916D01*
Y23047D01*
X104701D01*
Y22832D01*
X104486D01*
Y22617D01*
Y22402D01*
X104271D01*
Y22187D01*
X103841D01*
Y21972D01*
X103196D01*
Y21757D01*
X101476D01*
Y21972D01*
X101046D01*
Y22187D01*
X100617D01*
Y22402D01*
X100401D01*
Y22832D01*
X100187D01*
Y23047D01*
X99971D01*
Y23262D01*
X99541D01*
Y23477D01*
X99112D01*
Y23692D01*
X98897D01*
Y23907D01*
X98682D01*
Y24122D01*
X98467D01*
Y26487D01*
X98682D01*
Y27562D01*
X98467D01*
Y28852D01*
X98252D01*
Y29281D01*
X98467D01*
Y29711D01*
X98252D01*
Y29496D01*
X98037D01*
Y27347D01*
X98252D01*
Y26702D01*
X98037D01*
Y26917D01*
X97822D01*
Y27777D01*
X97607D01*
Y29926D01*
X97822D01*
Y30571D01*
X98037D01*
Y31001D01*
X98252D01*
Y31216D01*
X98467D01*
Y31431D01*
X98682D01*
Y31646D01*
X98897D01*
Y31861D01*
X99112D01*
Y32076D01*
X99327D01*
Y32291D01*
X99756D01*
Y32506D01*
X99971D01*
Y32721D01*
X100617D01*
Y32936D01*
X101261D01*
Y33151D01*
X102981D01*
Y32936D01*
D02*
G37*
G36*
X96102Y24552D02*
X96317D01*
Y24337D01*
X96532D01*
Y24122D01*
X96962D01*
Y23907D01*
X97392D01*
Y23692D01*
X97822D01*
Y23477D01*
X98252D01*
Y23262D01*
X98682D01*
Y23047D01*
X98897D01*
Y22402D01*
X98252D01*
Y22617D01*
X97822D01*
Y22832D01*
X97392D01*
Y23047D01*
X96962D01*
Y23262D01*
X95887D01*
Y23047D01*
X95242D01*
Y23692D01*
X95457D01*
Y24122D01*
X95672D01*
Y24767D01*
X96102D01*
Y24552D01*
D02*
G37*
G36*
X109216Y24767D02*
X109431D01*
Y24337D01*
X109646D01*
Y23907D01*
X109861D01*
Y23262D01*
X108356D01*
Y23047D01*
X107926D01*
Y22832D01*
X107496D01*
Y22617D01*
X107066D01*
Y22402D01*
X106421D01*
Y22187D01*
X105991D01*
Y23047D01*
X106421D01*
Y23262D01*
X106851D01*
Y23477D01*
X107281D01*
Y23692D01*
X107711D01*
Y23907D01*
X108141D01*
Y24122D01*
X108571D01*
Y24552D01*
X108786D01*
Y24982D01*
X109216D01*
Y24767D01*
D02*
G37*
G36*
X104056Y21327D02*
X103626D01*
Y21542D01*
X103841D01*
Y21757D01*
X104056D01*
Y21327D01*
D02*
G37*
G36*
X103411D02*
X103626D01*
Y21112D01*
X103411D01*
Y20897D01*
X103196D01*
Y21542D01*
X103411D01*
Y21327D01*
D02*
G37*
G36*
X101476D02*
X102981D01*
Y20897D01*
X102766D01*
Y20467D01*
X103196D01*
Y20682D01*
X103411D01*
Y20467D01*
X103626D01*
Y20682D01*
X104056D01*
Y20467D01*
X103841D01*
Y20252D01*
X103411D01*
Y20037D01*
X103196D01*
Y20252D01*
X102981D01*
Y19822D01*
X102551D01*
Y20037D01*
X102121D01*
Y19822D01*
X101906D01*
Y20037D01*
X101691D01*
Y20252D01*
X101261D01*
Y20467D01*
X100831D01*
Y20897D01*
X101046D01*
Y20682D01*
X101476D01*
Y20467D01*
X101906D01*
Y20682D01*
X102121D01*
Y20467D01*
X102551D01*
Y20897D01*
X101261D01*
Y21542D01*
X101476D01*
Y21327D01*
D02*
G37*
G36*
X99327Y19607D02*
X99541D01*
Y19177D01*
X99112D01*
Y18962D01*
X98682D01*
Y18747D01*
X98252D01*
Y18532D01*
X98037D01*
Y18317D01*
X97607D01*
Y18102D01*
X97392D01*
Y17887D01*
X97177D01*
Y17673D01*
X96747D01*
Y17887D01*
X96532D01*
Y18102D01*
X96317D01*
Y18532D01*
X96102D01*
Y18962D01*
X96317D01*
Y19177D01*
X96747D01*
Y18962D01*
X97607D01*
Y19177D01*
X98037D01*
Y19392D01*
X98682D01*
Y19607D01*
X99112D01*
Y19822D01*
X99327D01*
Y19607D01*
D02*
G37*
G36*
X99756Y21112D02*
X99971D01*
Y20682D01*
X100187D01*
Y20467D01*
X100401D01*
Y20252D01*
X100617D01*
Y20037D01*
X100831D01*
Y19822D01*
X101046D01*
Y19607D01*
X101691D01*
Y19392D01*
X103196D01*
Y19607D01*
X103841D01*
Y19822D01*
X104056D01*
Y20037D01*
X104271D01*
Y20252D01*
X104486D01*
Y20467D01*
X104701D01*
Y20682D01*
X104916D01*
Y21112D01*
X105131D01*
Y21757D01*
X105346D01*
Y22187D01*
X105561D01*
Y20682D01*
X105346D01*
Y20037D01*
X105131D01*
Y19607D01*
X104916D01*
Y19177D01*
X104701D01*
Y18962D01*
X104486D01*
Y18747D01*
X104271D01*
Y18532D01*
X103841D01*
Y18317D01*
X103411D01*
Y18102D01*
X101691D01*
Y18317D01*
X101261D01*
Y18532D01*
X101046D01*
Y18747D01*
X100617D01*
Y18962D01*
X100401D01*
Y19392D01*
X100187D01*
Y19607D01*
X99971D01*
Y20037D01*
X99756D01*
Y20467D01*
X99541D01*
Y21542D01*
X99327D01*
Y22402D01*
X99756D01*
Y21112D01*
D02*
G37*
G36*
X105991Y19822D02*
X106421D01*
Y19607D01*
X106851D01*
Y19392D01*
X107281D01*
Y19177D01*
X107926D01*
Y18962D01*
X109001D01*
Y18747D01*
X109216D01*
Y18317D01*
X109001D01*
Y17673D01*
X108786D01*
Y17458D01*
X108356D01*
Y17673D01*
X107926D01*
Y17887D01*
X107711D01*
Y18102D01*
X107496D01*
Y18317D01*
X107281D01*
Y18532D01*
X106851D01*
Y18747D01*
X106421D01*
Y18962D01*
X105991D01*
Y19177D01*
X105561D01*
Y19392D01*
X105346D01*
Y19607D01*
X105561D01*
Y19822D01*
X105776D01*
Y20037D01*
X105991D01*
Y19822D01*
D02*
G37*
%LPC*%
G36*
X105131Y27347D02*
X103626D01*
Y27132D01*
X103411D01*
Y26702D01*
X103196D01*
Y25412D01*
X103411D01*
Y24982D01*
X103626D01*
Y24767D01*
X103841D01*
Y24552D01*
X104916D01*
Y24767D01*
X105131D01*
Y24982D01*
X105346D01*
Y25412D01*
X105561D01*
Y26917D01*
X105346D01*
Y27132D01*
X105131D01*
Y27347D01*
D02*
G37*
G36*
X101261Y27132D02*
X99541D01*
Y26917D01*
X99327D01*
Y25197D01*
X99541D01*
Y24767D01*
X99756D01*
Y24552D01*
X99971D01*
Y24337D01*
X100831D01*
Y24552D01*
X101261D01*
Y24767D01*
X101476D01*
Y25197D01*
X101691D01*
Y26702D01*
X101476D01*
Y26917D01*
X101261D01*
Y27132D01*
D02*
G37*
G36*
X102766Y25197D02*
X102336D01*
Y24982D01*
X102121D01*
Y24552D01*
X101906D01*
Y24122D01*
X101691D01*
Y23047D01*
X101906D01*
Y22832D01*
X103196D01*
Y23047D01*
X103411D01*
Y24337D01*
X103196D01*
Y24767D01*
X102981D01*
Y24982D01*
X102766D01*
Y25197D01*
D02*
G37*
%LPD*%
G36*
X112655Y11653D02*
X112870D01*
Y11438D01*
Y11008D01*
X113085D01*
Y10578D01*
X112225D01*
Y11223D01*
X112440D01*
Y11868D01*
X112655D01*
Y11653D01*
D02*
G37*
G36*
X104271Y11438D02*
X104486D01*
Y10793D01*
X104701D01*
Y10578D01*
X103626D01*
Y10793D01*
X103841D01*
Y11008D01*
Y11223D01*
Y11438D01*
X104056D01*
Y11868D01*
X104271D01*
Y11438D01*
D02*
G37*
G36*
X99756Y11868D02*
X99971D01*
Y11438D01*
X99756D01*
Y11223D01*
X98467D01*
Y11438D01*
Y12298D01*
X99756D01*
Y11868D01*
D02*
G37*
%LPC*%
G36*
X366276Y60381D02*
X331019D01*
Y60166D01*
X330159D01*
Y59951D01*
X329945D01*
Y59736D01*
X329730D01*
Y59521D01*
X329515D01*
Y59091D01*
X329300D01*
Y7281D01*
X329515D01*
Y6851D01*
X329730D01*
Y6636D01*
X329945D01*
Y6421D01*
X330159D01*
Y6206D01*
X330590D01*
Y5991D01*
X366491D01*
Y6206D01*
X366921D01*
Y6421D01*
X367351D01*
Y6851D01*
X367566D01*
Y7066D01*
X367781D01*
Y45548D01*
Y45763D01*
Y59091D01*
X367566D01*
Y59521D01*
X367351D01*
Y59736D01*
X367136D01*
Y59951D01*
X366921D01*
Y60166D01*
X366276D01*
Y60381D01*
D02*
G37*
G36*
X364342Y5561D02*
X364127D01*
Y5346D01*
X364342D01*
Y5561D01*
D02*
G37*
G36*
X360687D02*
X360472D01*
Y5346D01*
X360687D01*
Y5561D01*
D02*
G37*
G36*
X359182D02*
X358967D01*
Y5346D01*
X359182D01*
Y5561D01*
D02*
G37*
G36*
X357247D02*
X356817D01*
Y5346D01*
X357247D01*
Y5561D01*
D02*
G37*
G36*
X355957D02*
X355742D01*
Y5346D01*
X355957D01*
Y5561D01*
D02*
G37*
G36*
X351873D02*
X351443D01*
Y5346D01*
X351658D01*
Y5131D01*
X351873D01*
Y5561D01*
D02*
G37*
%LPD*%
G36*
X350368Y58446D02*
X354882D01*
Y58231D01*
X357247D01*
Y58017D01*
X358967D01*
Y57802D01*
X360257D01*
Y57586D01*
X361332D01*
Y57371D01*
X362407D01*
Y57156D01*
X363052D01*
Y56942D01*
X363912D01*
Y56727D01*
X364342D01*
Y56512D01*
X364772D01*
Y56297D01*
X365201D01*
Y56082D01*
X365632D01*
Y55867D01*
X365846D01*
Y55652D01*
X366061D01*
Y54792D01*
X365846D01*
Y54362D01*
X365417D01*
Y54147D01*
X365201D01*
Y53932D01*
X364772D01*
Y53717D01*
X364342D01*
Y53502D01*
X363697D01*
Y53287D01*
X363052D01*
Y53072D01*
X362192D01*
Y52857D01*
X361117D01*
Y52642D01*
X360042D01*
Y52427D01*
X358537D01*
Y52212D01*
X356817D01*
Y51997D01*
X354238D01*
Y51782D01*
X342843D01*
Y51997D01*
X340264D01*
Y52212D01*
X338544D01*
Y52427D01*
X337039D01*
Y52642D01*
X335964D01*
Y52857D01*
X334889D01*
Y53072D01*
X334029D01*
Y53287D01*
X333384D01*
Y53502D01*
X332739D01*
Y53717D01*
X332309D01*
Y53932D01*
X331879D01*
Y54147D01*
X331664D01*
Y54362D01*
X331449D01*
Y54577D01*
X331235D01*
Y54792D01*
X331019D01*
Y55437D01*
X331235D01*
Y55867D01*
X331449D01*
Y56082D01*
X331879D01*
Y56297D01*
X332309D01*
Y56512D01*
X332739D01*
Y56727D01*
X333384D01*
Y56942D01*
X334029D01*
Y57156D01*
X334674D01*
Y57371D01*
X335749D01*
Y57586D01*
X336824D01*
Y57802D01*
X338114D01*
Y58017D01*
X339834D01*
Y58231D01*
X342198D01*
Y58446D01*
X346713D01*
Y58661D01*
X350368D01*
Y58446D01*
D02*
G37*
G36*
X367351Y50277D02*
X367566D01*
Y7711D01*
X367351D01*
Y7066D01*
X367136D01*
Y6851D01*
X366921D01*
Y6636D01*
X366706D01*
Y6421D01*
X330590D01*
Y6636D01*
X330159D01*
Y6851D01*
X329945D01*
Y7066D01*
X329730D01*
Y50492D01*
X367351D01*
Y50277D01*
D02*
G37*
%LPC*%
G36*
X351658Y58231D02*
X345423D01*
Y58017D01*
X341554D01*
Y57802D01*
X339619D01*
Y57586D01*
X337899D01*
Y57371D01*
X336609D01*
Y57156D01*
X335534D01*
Y56942D01*
X334674D01*
Y56727D01*
X333814D01*
Y56512D01*
X333169D01*
Y56297D01*
X332739D01*
Y56082D01*
X332309D01*
Y55867D01*
X331879D01*
Y55652D01*
X331664D01*
Y55437D01*
X331449D01*
Y54792D01*
X331664D01*
Y54577D01*
X331879D01*
Y54362D01*
X332309D01*
Y54147D01*
X332739D01*
Y53932D01*
X333384D01*
Y53717D01*
X334029D01*
Y53502D01*
X334889D01*
Y53287D01*
X335749D01*
Y53072D01*
X336824D01*
Y52857D01*
X338114D01*
Y52642D01*
X339834D01*
Y52427D01*
X342198D01*
Y52212D01*
X346713D01*
Y51997D01*
X350368D01*
Y52212D01*
X354882D01*
Y52427D01*
X357247D01*
Y52642D01*
X358967D01*
Y52857D01*
X360257D01*
Y53072D01*
X361332D01*
Y53287D01*
X362407D01*
Y53502D01*
X363052D01*
Y53717D01*
X363697D01*
Y53932D01*
X364342D01*
Y54147D01*
X364772D01*
Y54362D01*
X365201D01*
Y54577D01*
X365417D01*
Y54792D01*
X365632D01*
Y55437D01*
X365417D01*
Y55652D01*
X365201D01*
Y55867D01*
X364772D01*
Y56082D01*
X364342D01*
Y56297D01*
X363912D01*
Y56512D01*
X363267D01*
Y56727D01*
X362622D01*
Y56942D01*
X361547D01*
Y57156D01*
X360472D01*
Y57371D01*
X359182D01*
Y57586D01*
X357462D01*
Y57802D01*
X355527D01*
Y58017D01*
X351658D01*
Y58231D01*
D02*
G37*
%LPD*%
G36*
Y56942D02*
X352088D01*
Y56727D01*
X352303D01*
Y56297D01*
X352518D01*
Y55867D01*
X351658D01*
Y56082D01*
X351443D01*
Y56297D01*
X351013D01*
Y56512D01*
X350798D01*
Y56297D01*
X350368D01*
Y55867D01*
X350153D01*
Y54362D01*
X350368D01*
Y53932D01*
X350798D01*
Y53717D01*
X351228D01*
Y53932D01*
X351658D01*
Y54577D01*
X350798D01*
Y55222D01*
X352518D01*
Y53502D01*
X352303D01*
Y53287D01*
X351873D01*
Y53072D01*
X350153D01*
Y53287D01*
X349938D01*
Y53502D01*
X349723D01*
Y53717D01*
X349508D01*
Y53932D01*
X349293D01*
Y56297D01*
X349508D01*
Y56512D01*
X349723D01*
Y56727D01*
X349938D01*
Y56942D01*
X350153D01*
Y57156D01*
X351658D01*
Y56942D01*
D02*
G37*
G36*
X348648Y53072D02*
X347788D01*
Y53287D01*
X347573D01*
Y53717D01*
X347358D01*
Y53932D01*
X347143D01*
Y54362D01*
X346928D01*
Y54792D01*
X346713D01*
Y55007D01*
X346498D01*
Y55437D01*
X346283D01*
Y53072D01*
X345423D01*
Y57156D01*
X346283D01*
Y56942D01*
X346498D01*
Y56727D01*
X346713D01*
Y56297D01*
X346928D01*
Y55867D01*
X347143D01*
Y55652D01*
X347358D01*
Y55222D01*
X347573D01*
Y54792D01*
X347788D01*
Y57156D01*
X348648D01*
Y53072D01*
D02*
G37*
G36*
X358322Y56942D02*
X358752D01*
Y56727D01*
X358967D01*
Y56512D01*
X359182D01*
Y55222D01*
X358967D01*
Y55007D01*
X358752D01*
Y54792D01*
X358537D01*
Y54577D01*
X358752D01*
Y54147D01*
X358967D01*
Y53717D01*
X359182D01*
Y53287D01*
X359397D01*
Y53072D01*
X358322D01*
Y53502D01*
X358107D01*
Y53932D01*
X357892D01*
Y54362D01*
X357677D01*
Y54577D01*
X357247D01*
Y54362D01*
X357032D01*
Y53072D01*
X356172D01*
Y56297D01*
Y56512D01*
Y57156D01*
X358322D01*
Y56942D01*
D02*
G37*
G36*
X355742Y56297D02*
X354023D01*
Y55437D01*
X354238D01*
Y55652D01*
X355527D01*
Y54792D01*
X354023D01*
Y53932D01*
X355742D01*
Y53072D01*
X353163D01*
Y57156D01*
X355742D01*
Y56297D01*
D02*
G37*
G36*
X343703Y56727D02*
X343918D01*
Y56297D01*
X344133D01*
Y55652D01*
X344348D01*
Y55007D01*
X344563D01*
Y54577D01*
X344778D01*
Y53932D01*
X344993D01*
Y53287D01*
X345208D01*
Y53072D01*
X344133D01*
Y53717D01*
X343918D01*
Y53932D01*
X342629D01*
Y53717D01*
X342413D01*
Y53072D01*
X341339D01*
Y53287D01*
X341554D01*
Y53932D01*
X341769D01*
Y54577D01*
X341984D01*
Y55222D01*
X342198D01*
Y55652D01*
X342413D01*
Y56297D01*
X342629D01*
Y56942D01*
X342843D01*
Y57156D01*
X343703D01*
Y56727D01*
D02*
G37*
G36*
X340049Y56942D02*
X340479D01*
Y56727D01*
X340694D01*
Y56512D01*
X340909D01*
Y56297D01*
X341124D01*
Y55652D01*
X341339D01*
Y55437D01*
Y55222D01*
Y54362D01*
X341124D01*
Y53932D01*
X340909D01*
Y53717D01*
X340694D01*
Y53502D01*
X340479D01*
Y53287D01*
X340049D01*
Y53072D01*
X338114D01*
Y57156D01*
X340049D01*
Y56942D01*
D02*
G37*
%LPC*%
G36*
X358107Y56297D02*
X357032D01*
Y55437D01*
X357247D01*
Y55222D01*
X357892D01*
Y55437D01*
X358322D01*
Y55652D01*
Y56082D01*
X358107D01*
Y56297D01*
D02*
G37*
G36*
X343273Y55652D02*
X343058D01*
Y55437D01*
Y55007D01*
X342843D01*
Y54577D01*
X343703D01*
Y54792D01*
X343488D01*
Y55437D01*
X343273D01*
Y55652D01*
D02*
G37*
G36*
X340049Y56297D02*
X339189D01*
Y56082D01*
Y53932D01*
X340049D01*
Y54147D01*
X340264D01*
Y56082D01*
X340049D01*
Y56297D01*
D02*
G37*
G36*
X350798Y48772D02*
X348648D01*
Y48557D01*
X348433D01*
Y48342D01*
X348218D01*
Y48127D01*
X348003D01*
Y47912D01*
X347788D01*
Y47267D01*
X347573D01*
Y45333D01*
X347788D01*
Y44688D01*
X348003D01*
Y44473D01*
X348218D01*
Y44258D01*
X348433D01*
Y44043D01*
X348648D01*
Y43828D01*
X349293D01*
Y43613D01*
X350583D01*
Y43828D01*
X351228D01*
Y44043D01*
X351443D01*
Y44258D01*
X351658D01*
Y46407D01*
X349723D01*
Y45548D01*
X350798D01*
Y44688D01*
X350368D01*
Y44473D01*
X349293D01*
Y44688D01*
X349078D01*
Y44903D01*
X348863D01*
Y45333D01*
X348648D01*
Y47267D01*
X348863D01*
Y47697D01*
X349078D01*
Y47912D01*
X349508D01*
Y48127D01*
X350153D01*
Y47912D01*
X350583D01*
Y47482D01*
X350798D01*
Y47267D01*
X351658D01*
Y47912D01*
X351443D01*
Y48342D01*
X351228D01*
Y48557D01*
X350798D01*
Y48772D01*
D02*
G37*
G36*
X356817D02*
X355742D01*
Y46837D01*
X353592D01*
Y48772D01*
X352518D01*
Y43828D01*
X353378D01*
Y43613D01*
X353592D01*
Y45763D01*
X353807D01*
Y45978D01*
X355742D01*
Y43613D01*
X355957D01*
Y43828D01*
X356817D01*
Y46192D01*
Y46407D01*
Y48772D01*
D02*
G37*
G36*
X344778D02*
X343703D01*
Y46837D01*
X341554D01*
Y47052D01*
Y48772D01*
X340479D01*
Y43828D01*
X341339D01*
Y43613D01*
X341554D01*
Y45978D01*
X343703D01*
Y43613D01*
X343918D01*
Y43828D01*
X344778D01*
Y48772D01*
D02*
G37*
G36*
X346713D02*
X345638D01*
Y43828D01*
X346498D01*
Y43613D01*
X346713D01*
Y47697D01*
Y47912D01*
Y48772D01*
D02*
G37*
G36*
X358107Y42323D02*
X356817D01*
Y42108D01*
X356387D01*
Y41893D01*
X355957D01*
Y41678D01*
X355742D01*
Y41248D01*
X355527D01*
Y40603D01*
X355312D01*
Y38668D01*
X355527D01*
Y38023D01*
X355742D01*
Y37808D01*
X355957D01*
Y37593D01*
X356172D01*
Y37378D01*
X356602D01*
Y37163D01*
X358752D01*
Y37378D01*
X359182D01*
Y37593D01*
X359397D01*
Y39743D01*
X357462D01*
Y39098D01*
X358322D01*
Y38883D01*
X358537D01*
Y38238D01*
X358322D01*
Y38023D01*
X357892D01*
Y37808D01*
X357247D01*
Y38023D01*
X356817D01*
Y38238D01*
X356602D01*
Y38668D01*
X356387D01*
Y40603D01*
X356602D01*
Y41033D01*
X356817D01*
Y41248D01*
X357032D01*
Y41463D01*
X357892D01*
Y41248D01*
X358322D01*
Y40818D01*
X358537D01*
Y40603D01*
X359397D01*
Y41248D01*
X359182D01*
Y41678D01*
X358967D01*
Y41893D01*
X358752D01*
Y42108D01*
X358107D01*
Y42323D01*
D02*
G37*
G36*
X338114D02*
X337039D01*
Y42108D01*
X336824D01*
Y41463D01*
X336609D01*
Y40818D01*
X336394D01*
Y40173D01*
X336179D01*
Y39313D01*
X335964D01*
Y38668D01*
X335534D01*
Y39528D01*
X335319D01*
Y40173D01*
X335104D01*
Y41033D01*
X334889D01*
Y41678D01*
X334674D01*
Y42108D01*
X334459D01*
Y42323D01*
X333599D01*
Y41463D01*
X333814D01*
Y40818D01*
X334029D01*
Y40173D01*
X334244D01*
Y39528D01*
X334459D01*
Y39098D01*
X334674D01*
Y38453D01*
X334889D01*
Y37808D01*
X335104D01*
Y37163D01*
X336394D01*
Y37593D01*
X336609D01*
Y38238D01*
X336824D01*
Y38668D01*
Y38883D01*
X337039D01*
Y39528D01*
X337254D01*
Y40173D01*
X337469D01*
Y40818D01*
X337684D01*
Y41463D01*
X337899D01*
Y41893D01*
X338114D01*
Y42323D01*
D02*
G37*
G36*
X363697D02*
X360472D01*
Y42108D01*
X360257D01*
Y41893D01*
Y41678D01*
Y37163D01*
X363697D01*
Y38023D01*
X361332D01*
Y39313D01*
X363482D01*
Y40173D01*
X361332D01*
Y41248D01*
X361547D01*
Y41463D01*
X363697D01*
Y42323D01*
D02*
G37*
G36*
X353163D02*
X352303D01*
Y42108D01*
X352088D01*
Y41678D01*
X351873D01*
Y41248D01*
X351658D01*
Y40603D01*
X351443D01*
Y39958D01*
X351228D01*
Y39528D01*
X351013D01*
Y38883D01*
X350798D01*
Y38238D01*
X350583D01*
Y37808D01*
X350368D01*
Y37163D01*
X351443D01*
Y37593D01*
X351658D01*
Y38238D01*
X353592D01*
Y37808D01*
X353807D01*
Y37163D01*
X354882D01*
Y37808D01*
X354667D01*
Y38453D01*
X354452D01*
Y38883D01*
X354238D01*
Y39528D01*
X354023D01*
Y40173D01*
X353807D01*
Y40603D01*
X353592D01*
Y40818D01*
Y41248D01*
X353378D01*
Y41893D01*
X353163D01*
Y42323D01*
D02*
G37*
G36*
X350368D02*
X346498D01*
Y42108D01*
X346283D01*
Y41463D01*
X347788D01*
Y41248D01*
X348003D01*
Y37163D01*
X348863D01*
Y38023D01*
Y38238D01*
Y41248D01*
X349078D01*
Y41463D01*
X350583D01*
Y42108D01*
X350368D01*
Y42323D01*
D02*
G37*
G36*
X344563D02*
X343488D01*
Y37163D01*
X346713D01*
Y38023D01*
X344563D01*
Y38453D01*
Y38668D01*
Y42323D01*
D02*
G37*
G36*
X341124D02*
X340049D01*
Y42108D01*
X339404D01*
Y41893D01*
X339189D01*
Y41678D01*
X338974D01*
Y41463D01*
X338759D01*
Y41033D01*
X338544D01*
Y40388D01*
X338329D01*
Y38883D01*
X338544D01*
Y38238D01*
X338759D01*
Y37808D01*
X338974D01*
Y37593D01*
X339189D01*
Y37378D01*
X339619D01*
Y37163D01*
X341554D01*
Y37378D01*
X341769D01*
Y37593D01*
X342198D01*
Y38023D01*
X342413D01*
Y38453D01*
X342629D01*
Y41033D01*
X342413D01*
Y41463D01*
X342198D01*
Y41678D01*
X341984D01*
Y41893D01*
X341769D01*
Y42108D01*
X341124D01*
Y42323D01*
D02*
G37*
G36*
X349938Y32434D02*
X346928D01*
Y32219D01*
X346283D01*
Y32004D01*
X345853D01*
Y31789D01*
X345423D01*
Y31574D01*
X345208D01*
Y31359D01*
X344778D01*
Y31144D01*
X344563D01*
Y30929D01*
X344348D01*
Y30714D01*
X344133D01*
Y30284D01*
X343918D01*
Y30069D01*
X343703D01*
Y29639D01*
X343488D01*
Y28994D01*
X343273D01*
Y26199D01*
X343488D01*
Y25339D01*
X343703D01*
Y24909D01*
X343918D01*
Y24479D01*
X344133D01*
Y23404D01*
X344348D01*
Y22760D01*
X344133D01*
Y22975D01*
X343488D01*
Y23189D01*
X343058D01*
Y23404D01*
X342843D01*
Y23619D01*
X342629D01*
Y23834D01*
Y24049D01*
X342413D01*
Y24264D01*
X341984D01*
Y24479D01*
X341554D01*
Y24264D01*
X341339D01*
Y23834D01*
X341124D01*
Y22975D01*
X340909D01*
Y22330D01*
X340694D01*
Y21685D01*
X340909D01*
Y21470D01*
X342198D01*
Y21685D01*
X343058D01*
Y21470D01*
X343488D01*
Y21255D01*
X343918D01*
Y21040D01*
X344348D01*
Y20825D01*
X344778D01*
Y20610D01*
X344993D01*
Y20180D01*
X345208D01*
Y19105D01*
X344993D01*
Y18890D01*
X344563D01*
Y18675D01*
X344133D01*
Y18460D01*
X343703D01*
Y18245D01*
X342843D01*
Y18460D01*
X341984D01*
Y18245D01*
X341769D01*
Y18030D01*
X341554D01*
Y17815D01*
X341769D01*
Y17170D01*
X341984D01*
Y16740D01*
X342198D01*
Y16310D01*
X342413D01*
Y16095D01*
X342843D01*
Y15880D01*
X343273D01*
Y16095D01*
X343703D01*
Y16310D01*
X343918D01*
Y16525D01*
X344133D01*
Y16740D01*
X344348D01*
Y16955D01*
X344563D01*
Y17170D01*
X344993D01*
Y17385D01*
X345423D01*
Y17600D01*
X345853D01*
Y17815D01*
X346068D01*
Y17600D01*
X346283D01*
Y17385D01*
X346498D01*
Y17170D01*
X346928D01*
Y16955D01*
X347143D01*
Y16740D01*
X347573D01*
Y16525D01*
X349508D01*
Y16740D01*
X350153D01*
Y16955D01*
X350368D01*
Y17170D01*
X350798D01*
Y17385D01*
X351013D01*
Y17600D01*
X351228D01*
Y17815D01*
X351658D01*
Y17600D01*
X352088D01*
Y17385D01*
X352518D01*
Y17170D01*
X352948D01*
Y16955D01*
X353163D01*
Y16740D01*
X353592D01*
Y16525D01*
X353807D01*
Y16310D01*
X354023D01*
Y16095D01*
X354238D01*
Y15880D01*
X354452D01*
Y15665D01*
X354882D01*
Y15880D01*
X355097D01*
Y16095D01*
X355312D01*
Y16310D01*
X355527D01*
Y16740D01*
X355742D01*
Y18245D01*
X354023D01*
Y18460D01*
X353378D01*
Y18675D01*
X352948D01*
Y18890D01*
X352518D01*
Y19105D01*
X352088D01*
Y19320D01*
X351873D01*
Y19965D01*
X352088D01*
Y20395D01*
X352303D01*
Y20610D01*
X352518D01*
Y20825D01*
X352948D01*
Y21040D01*
X353378D01*
Y21255D01*
X353807D01*
Y21470D01*
X354238D01*
Y21685D01*
X355957D01*
Y21900D01*
X356387D01*
Y22330D01*
X356602D01*
Y22545D01*
X356387D01*
Y22975D01*
X356172D01*
Y23404D01*
X355957D01*
Y23619D01*
X355742D01*
Y24049D01*
X355527D01*
Y24264D01*
X354667D01*
Y23834D01*
X354452D01*
Y23404D01*
X354238D01*
Y23189D01*
X353807D01*
Y22975D01*
X353592D01*
Y22760D01*
X352733D01*
Y23619D01*
X352948D01*
Y24479D01*
X352733D01*
Y25124D01*
X352948D01*
Y25554D01*
X353163D01*
Y25984D01*
X353378D01*
Y26414D01*
X353592D01*
Y29209D01*
X353378D01*
Y29639D01*
X353163D01*
Y30069D01*
X352948D01*
Y30284D01*
X352733D01*
Y30499D01*
X352518D01*
Y30714D01*
X352303D01*
Y30929D01*
X352088D01*
Y31144D01*
X351873D01*
Y31359D01*
X351658D01*
Y31574D01*
X351228D01*
Y31789D01*
X351013D01*
Y32004D01*
X350583D01*
Y32219D01*
X349938D01*
Y32434D01*
D02*
G37*
G36*
X363052Y33939D02*
X362622D01*
Y33724D01*
X362192D01*
Y33509D01*
X361762D01*
Y33294D01*
X361332D01*
Y33079D01*
X360902D01*
Y32864D01*
X360472D01*
Y32649D01*
X360257D01*
Y32219D01*
X360472D01*
Y32004D01*
X360687D01*
Y31574D01*
X360042D01*
Y31359D01*
X359612D01*
Y31144D01*
X358967D01*
Y30929D01*
X358322D01*
Y30714D01*
X358107D01*
Y30499D01*
X358322D01*
Y30284D01*
X358537D01*
Y30069D01*
X358752D01*
Y29854D01*
X358967D01*
Y29639D01*
X359182D01*
Y29209D01*
X358752D01*
Y28994D01*
X358322D01*
Y28779D01*
X357892D01*
Y28564D01*
X357462D01*
Y28349D01*
X357032D01*
Y28134D01*
X356602D01*
Y27919D01*
X357462D01*
Y28134D01*
X358537D01*
Y28349D01*
X359397D01*
Y28564D01*
X360257D01*
Y28779D01*
X361332D01*
Y28994D01*
X361547D01*
Y29209D01*
X361332D01*
Y29424D01*
X361117D01*
Y29639D01*
X360902D01*
Y29854D01*
X360687D01*
Y30069D01*
X360472D01*
Y30499D01*
X361332D01*
Y30714D01*
X362407D01*
Y30929D01*
X363267D01*
Y31144D01*
X363052D01*
Y31359D01*
X362837D01*
Y31574D01*
X362622D01*
Y31789D01*
X362407D01*
Y32219D01*
X362837D01*
Y32434D01*
X363267D01*
Y32649D01*
X363697D01*
Y32864D01*
X364127D01*
Y33079D01*
X364342D01*
Y33294D01*
X363912D01*
Y33509D01*
X363482D01*
Y33724D01*
X363052D01*
Y33939D01*
D02*
G37*
G36*
X334029D02*
X333599D01*
Y33724D01*
X332954D01*
Y33509D01*
X332524D01*
Y33294D01*
X332094D01*
Y33079D01*
X332309D01*
Y32864D01*
X332739D01*
Y32649D01*
X333169D01*
Y32434D01*
X333599D01*
Y32219D01*
X334029D01*
Y31574D01*
X333814D01*
Y31359D01*
X333599D01*
Y31144D01*
X333384D01*
Y30929D01*
X334244D01*
Y30714D01*
X335319D01*
Y30499D01*
X336179D01*
Y30284D01*
X335964D01*
Y30069D01*
X335749D01*
Y29854D01*
X335534D01*
Y29639D01*
X335319D01*
Y29424D01*
X335104D01*
Y29209D01*
X334889D01*
Y28994D01*
X335319D01*
Y28779D01*
X336179D01*
Y28564D01*
X337254D01*
Y28349D01*
X338114D01*
Y28134D01*
X338974D01*
Y27919D01*
X339834D01*
Y27704D01*
X340479D01*
Y27919D01*
X339834D01*
Y28134D01*
X339619D01*
Y28349D01*
X339189D01*
Y28564D01*
X338759D01*
Y28779D01*
X338329D01*
Y28994D01*
X337899D01*
Y29209D01*
X337469D01*
Y29639D01*
X337684D01*
Y29854D01*
X337899D01*
Y30069D01*
X338114D01*
Y30499D01*
X338329D01*
Y30714D01*
X338114D01*
Y30929D01*
X337684D01*
Y31144D01*
X337039D01*
Y31359D01*
X336394D01*
Y31574D01*
X335964D01*
Y32004D01*
X336179D01*
Y32434D01*
X336394D01*
Y32649D01*
X335964D01*
Y32864D01*
X335534D01*
Y33079D01*
X335104D01*
Y33294D01*
X334889D01*
Y33509D01*
X334459D01*
Y33724D01*
X334029D01*
Y33939D01*
D02*
G37*
G36*
X356602Y27919D02*
X356172D01*
Y27704D01*
X356602D01*
Y27919D01*
D02*
G37*
G36*
X356172Y20610D02*
X355957D01*
Y20395D01*
X356172D01*
Y20610D01*
D02*
G37*
G36*
X340694D02*
X340479D01*
Y20395D01*
X340694D01*
Y20610D01*
D02*
G37*
G36*
X340264Y20395D02*
X339619D01*
Y20180D01*
X338759D01*
Y19965D01*
X337684D01*
Y19750D01*
X336824D01*
Y19535D01*
X335964D01*
Y19320D01*
X335104D01*
Y19105D01*
X335319D01*
Y18890D01*
X335534D01*
Y18675D01*
X335749D01*
Y18245D01*
X335964D01*
Y18030D01*
X336179D01*
Y17815D01*
X335964D01*
Y17600D01*
X334889D01*
Y17385D01*
X333814D01*
Y17170D01*
X333599D01*
Y16955D01*
X333814D01*
Y16740D01*
X334029D01*
Y16525D01*
X334244D01*
Y16095D01*
X334029D01*
Y15880D01*
X333599D01*
Y15665D01*
X333169D01*
Y15450D01*
X332739D01*
Y15235D01*
X332309D01*
Y15020D01*
X332524D01*
Y14805D01*
X332954D01*
Y14590D01*
X333384D01*
Y14375D01*
X334244D01*
Y14590D01*
X334674D01*
Y14805D01*
X335104D01*
Y15020D01*
X335534D01*
Y15235D01*
X335964D01*
Y15450D01*
X336394D01*
Y15665D01*
X336609D01*
Y15880D01*
X336394D01*
Y16095D01*
X336179D01*
Y16525D01*
X336394D01*
Y16740D01*
X336824D01*
Y16955D01*
X337469D01*
Y17170D01*
X338114D01*
Y17385D01*
X338544D01*
Y17815D01*
X338329D01*
Y18030D01*
X338114D01*
Y18245D01*
X337899D01*
Y18460D01*
X337684D01*
Y18675D01*
X337469D01*
Y18890D01*
X337684D01*
Y19105D01*
X338114D01*
Y19320D01*
X338544D01*
Y19535D01*
X338974D01*
Y19750D01*
X339404D01*
Y19965D01*
X339834D01*
Y20180D01*
X340264D01*
Y20395D01*
D02*
G37*
G36*
X357032D02*
X356387D01*
Y20180D01*
X356817D01*
Y19965D01*
X357247D01*
Y19750D01*
X357677D01*
Y19535D01*
X358107D01*
Y19320D01*
X358537D01*
Y19105D01*
X358752D01*
Y18890D01*
X359182D01*
Y18675D01*
X358967D01*
Y18460D01*
X358752D01*
Y18245D01*
X358537D01*
Y18030D01*
X358322D01*
Y17815D01*
X358107D01*
Y17385D01*
X358537D01*
Y17170D01*
X359182D01*
Y16955D01*
X359827D01*
Y16740D01*
X360257D01*
Y16525D01*
X360472D01*
Y16095D01*
X360257D01*
Y15880D01*
X360042D01*
Y15665D01*
X360257D01*
Y15450D01*
X360687D01*
Y15235D01*
X361117D01*
Y15020D01*
X361547D01*
Y14805D01*
X361977D01*
Y14590D01*
X362407D01*
Y14375D01*
X363267D01*
Y14590D01*
X363697D01*
Y14805D01*
X364127D01*
Y15020D01*
X364342D01*
Y15235D01*
X363912D01*
Y15450D01*
X363482D01*
Y15665D01*
X363052D01*
Y15880D01*
X362622D01*
Y16095D01*
X362407D01*
Y16525D01*
X362622D01*
Y16740D01*
X362837D01*
Y16955D01*
X363052D01*
Y17170D01*
X362837D01*
Y17385D01*
X361762D01*
Y17600D01*
X360687D01*
Y17815D01*
X360472D01*
Y18245D01*
X360902D01*
Y18675D01*
X361117D01*
Y18890D01*
X361332D01*
Y19105D01*
X361547D01*
Y19320D01*
X360687D01*
Y19535D01*
X359827D01*
Y19750D01*
X358967D01*
Y19965D01*
X357892D01*
Y20180D01*
X357032D01*
Y20395D01*
D02*
G37*
G36*
X343273Y11795D02*
X340694D01*
Y7926D01*
X343273D01*
Y8571D01*
X341339D01*
Y9646D01*
X343058D01*
Y10291D01*
X341339D01*
Y11151D01*
X341554D01*
Y11366D01*
X341769D01*
Y11151D01*
X343058D01*
Y11366D01*
X343273D01*
Y11795D01*
D02*
G37*
G36*
X340049D02*
X337469D01*
Y8571D01*
Y8356D01*
Y7926D01*
X340049D01*
Y8571D01*
X338329D01*
Y9646D01*
X339834D01*
Y10291D01*
X338329D01*
Y11366D01*
X338544D01*
Y11151D01*
X340049D01*
Y11795D01*
D02*
G37*
G36*
X363482D02*
X362622D01*
Y11366D01*
X362407D01*
Y10936D01*
X362192D01*
Y10506D01*
X361977D01*
Y10291D01*
X361762D01*
Y10721D01*
X361547D01*
Y11151D01*
X361332D01*
Y11581D01*
X361117D01*
Y11795D01*
X360257D01*
Y11581D01*
X360472D01*
Y11151D01*
X360687D01*
Y10721D01*
X360902D01*
Y10291D01*
X361117D01*
Y9861D01*
X361332D01*
Y9431D01*
X361547D01*
Y7926D01*
X362192D01*
Y9216D01*
X362407D01*
Y9861D01*
X362622D01*
Y10291D01*
X362837D01*
Y10506D01*
X363052D01*
Y10936D01*
X363267D01*
Y11366D01*
X363482D01*
Y11795D01*
D02*
G37*
G36*
X336824D02*
X335964D01*
Y11581D01*
X335749D01*
Y11366D01*
X335534D01*
Y10936D01*
X335319D01*
Y10721D01*
X335104D01*
Y10506D01*
X334889D01*
Y10291D01*
X334674D01*
Y11795D01*
X334029D01*
Y7926D01*
X334674D01*
Y9216D01*
X334889D01*
Y9431D01*
X335319D01*
Y9216D01*
X335534D01*
Y8786D01*
X335749D01*
Y8356D01*
X335964D01*
Y8141D01*
X336179D01*
Y7926D01*
X337039D01*
Y8141D01*
X336824D01*
Y8571D01*
X336609D01*
Y8786D01*
X336394D01*
Y9216D01*
X336179D01*
Y9646D01*
X335964D01*
Y9861D01*
X335749D01*
Y10291D01*
X335964D01*
Y10721D01*
X336179D01*
Y10936D01*
X336394D01*
Y11151D01*
X336609D01*
Y11366D01*
X336824D01*
Y11795D01*
D02*
G37*
G36*
X356817D02*
X355957D01*
Y10721D01*
X355742D01*
Y9646D01*
X355527D01*
Y9431D01*
X355312D01*
Y10291D01*
X355097D01*
Y11151D01*
X354882D01*
Y11795D01*
X354023D01*
Y10721D01*
X353807D01*
Y9861D01*
X353592D01*
Y9216D01*
X353378D01*
Y10076D01*
X353163D01*
Y11366D01*
X352948D01*
Y11795D01*
X352303D01*
Y10721D01*
X352518D01*
Y9861D01*
X352733D01*
Y8786D01*
X352948D01*
Y7926D01*
X353807D01*
Y8356D01*
X354023D01*
Y8786D01*
Y9001D01*
Y9216D01*
X354238D01*
Y10076D01*
X354452D01*
Y10291D01*
X354667D01*
Y9431D01*
X354882D01*
Y8571D01*
X355097D01*
Y7926D01*
X355957D01*
Y8356D01*
X356172D01*
Y9431D01*
X356387D01*
Y10291D01*
X356602D01*
Y11366D01*
X356817D01*
Y11795D01*
D02*
G37*
G36*
X359182D02*
X358322D01*
Y11581D01*
X358107D01*
Y10936D01*
X357892D01*
Y10506D01*
X357677D01*
Y9861D01*
X357462D01*
Y9216D01*
X357247D01*
Y8786D01*
X357032D01*
Y8141D01*
X356817D01*
Y7926D01*
X357677D01*
Y8141D01*
X357892D01*
Y8786D01*
X359397D01*
Y8571D01*
X359612D01*
Y7926D01*
X360472D01*
Y8141D01*
Y8356D01*
X360257D01*
Y9001D01*
X360042D01*
Y9646D01*
X359827D01*
Y10076D01*
X359612D01*
Y10721D01*
X359397D01*
Y11366D01*
X359182D01*
Y11795D01*
D02*
G37*
G36*
X350798D02*
X349723D01*
Y11151D01*
X349508D01*
Y10506D01*
X349293D01*
Y9861D01*
X349078D01*
Y9431D01*
X348863D01*
Y8786D01*
X348648D01*
Y8141D01*
X348433D01*
Y7926D01*
X349293D01*
Y8356D01*
X349508D01*
Y8786D01*
X351013D01*
Y8356D01*
X351228D01*
Y7926D01*
X352088D01*
Y8356D01*
X351873D01*
Y8786D01*
X351658D01*
Y9431D01*
X351443D01*
Y10076D01*
X351228D01*
Y10506D01*
X351013D01*
Y10936D01*
Y11151D01*
X350798D01*
Y11795D01*
D02*
G37*
G36*
X346068D02*
X343703D01*
Y7926D01*
X344563D01*
Y9431D01*
X346283D01*
Y9646D01*
X346498D01*
Y9861D01*
X346713D01*
Y11366D01*
X346498D01*
Y11581D01*
X346068D01*
Y11795D01*
D02*
G37*
%LPD*%
G36*
X352733Y40603D02*
Y40388D01*
X352948D01*
Y39743D01*
X353163D01*
Y39098D01*
X352088D01*
Y39528D01*
X352303D01*
Y40173D01*
X352518D01*
Y40818D01*
X352733D01*
Y40603D01*
D02*
G37*
G36*
X340909Y41248D02*
X341339D01*
Y40818D01*
X341554D01*
Y39958D01*
X341769D01*
Y39313D01*
X341554D01*
Y38453D01*
X341339D01*
Y38238D01*
X341124D01*
Y38023D01*
X340694D01*
Y37808D01*
X340264D01*
Y38023D01*
X339834D01*
Y38238D01*
X339619D01*
Y38883D01*
X339404D01*
Y40603D01*
X339619D01*
Y41033D01*
X339834D01*
Y41248D01*
X340049D01*
Y41463D01*
X340909D01*
Y41248D01*
D02*
G37*
G36*
X349078Y31789D02*
X349938D01*
Y31574D01*
X350583D01*
Y31359D01*
X351013D01*
Y31144D01*
X351443D01*
Y30929D01*
X351658D01*
Y30714D01*
X351873D01*
Y30499D01*
X352088D01*
Y30284D01*
X352303D01*
Y30069D01*
X352518D01*
Y29854D01*
X352733D01*
Y29639D01*
X352948D01*
Y29209D01*
X353163D01*
Y28349D01*
X353378D01*
Y27274D01*
X353163D01*
Y26199D01*
X352948D01*
Y25769D01*
X352733D01*
Y25554D01*
X352518D01*
Y25769D01*
X352303D01*
Y26199D01*
X352518D01*
Y28349D01*
X352303D01*
Y28779D01*
X352088D01*
Y28994D01*
X351873D01*
Y28564D01*
X352088D01*
Y24909D01*
X352303D01*
Y24264D01*
X352518D01*
Y23619D01*
X352303D01*
Y22760D01*
X352088D01*
Y22545D01*
X351873D01*
Y22330D01*
X351443D01*
Y22115D01*
X351013D01*
Y21900D01*
X350798D01*
Y21685D01*
X350583D01*
Y21470D01*
Y21255D01*
X350368D01*
Y21040D01*
X349938D01*
Y20825D01*
X349293D01*
Y20610D01*
X347573D01*
Y20825D01*
X347143D01*
Y21040D01*
X346713D01*
Y21255D01*
X346498D01*
Y21685D01*
X346283D01*
Y21900D01*
X346068D01*
Y22115D01*
X345638D01*
Y22330D01*
X345208D01*
Y22545D01*
X344993D01*
Y22760D01*
X344778D01*
Y22975D01*
X344563D01*
Y25339D01*
X344778D01*
Y26414D01*
X344563D01*
Y27704D01*
X344348D01*
Y28134D01*
X344563D01*
Y28564D01*
X344348D01*
Y28349D01*
X344133D01*
Y26199D01*
X344348D01*
Y25554D01*
X344133D01*
Y25769D01*
X343918D01*
Y26629D01*
X343703D01*
Y28779D01*
X343918D01*
Y29424D01*
X344133D01*
Y29854D01*
X344348D01*
Y30069D01*
X344563D01*
Y30284D01*
X344778D01*
Y30499D01*
X344993D01*
Y30714D01*
X345208D01*
Y30929D01*
X345423D01*
Y31144D01*
X345853D01*
Y31359D01*
X346068D01*
Y31574D01*
X346713D01*
Y31789D01*
X347358D01*
Y32004D01*
X349078D01*
Y31789D01*
D02*
G37*
G36*
X342198Y23404D02*
X342413D01*
Y23189D01*
X342629D01*
Y22975D01*
X343058D01*
Y22760D01*
X343488D01*
Y22545D01*
X343918D01*
Y22330D01*
X344348D01*
Y22115D01*
X344778D01*
Y21900D01*
X344993D01*
Y21255D01*
X344348D01*
Y21470D01*
X343918D01*
Y21685D01*
X343488D01*
Y21900D01*
X343058D01*
Y22115D01*
X341984D01*
Y21900D01*
X341339D01*
Y22545D01*
X341554D01*
Y22975D01*
X341769D01*
Y23619D01*
X342198D01*
Y23404D01*
D02*
G37*
G36*
X355312Y23619D02*
X355527D01*
Y23189D01*
X355742D01*
Y22760D01*
X355957D01*
Y22115D01*
X354452D01*
Y21900D01*
X354023D01*
Y21685D01*
X353592D01*
Y21470D01*
X353163D01*
Y21255D01*
X352518D01*
Y21040D01*
X352088D01*
Y21900D01*
X352518D01*
Y22115D01*
X352948D01*
Y22330D01*
X353378D01*
Y22545D01*
X353807D01*
Y22760D01*
X354238D01*
Y22975D01*
X354667D01*
Y23404D01*
X354882D01*
Y23834D01*
X355312D01*
Y23619D01*
D02*
G37*
G36*
X350153Y20180D02*
X349723D01*
Y20395D01*
X349938D01*
Y20610D01*
X350153D01*
Y20180D01*
D02*
G37*
G36*
X349508D02*
X349723D01*
Y19965D01*
X349508D01*
Y19750D01*
X349293D01*
Y20395D01*
X349508D01*
Y20180D01*
D02*
G37*
G36*
X347573D02*
X349078D01*
Y19750D01*
X348863D01*
Y19320D01*
X349293D01*
Y19535D01*
X349508D01*
Y19320D01*
X349723D01*
Y19535D01*
X350153D01*
Y19320D01*
X349938D01*
Y19105D01*
X349508D01*
Y18890D01*
X349293D01*
Y19105D01*
X349078D01*
Y18675D01*
X348648D01*
Y18890D01*
X348218D01*
Y18675D01*
X348003D01*
Y18890D01*
X347788D01*
Y19105D01*
X347358D01*
Y19320D01*
X346928D01*
Y19750D01*
X347143D01*
Y19535D01*
X347573D01*
Y19320D01*
X348003D01*
Y19535D01*
X348218D01*
Y19320D01*
X348648D01*
Y19750D01*
X347358D01*
Y20395D01*
X347573D01*
Y20180D01*
D02*
G37*
G36*
X345423Y18460D02*
X345638D01*
Y18030D01*
X345208D01*
Y17815D01*
X344778D01*
Y17600D01*
X344348D01*
Y17385D01*
X344133D01*
Y17170D01*
X343703D01*
Y16955D01*
X343488D01*
Y16740D01*
X343273D01*
Y16525D01*
X342843D01*
Y16740D01*
X342629D01*
Y16955D01*
X342413D01*
Y17385D01*
X342198D01*
Y17815D01*
X342413D01*
Y18030D01*
X342843D01*
Y17815D01*
X343703D01*
Y18030D01*
X344133D01*
Y18245D01*
X344778D01*
Y18460D01*
X345208D01*
Y18675D01*
X345423D01*
Y18460D01*
D02*
G37*
G36*
X345853Y19965D02*
X346068D01*
Y19535D01*
X346283D01*
Y19320D01*
X346498D01*
Y19105D01*
X346713D01*
Y18890D01*
X346928D01*
Y18675D01*
X347143D01*
Y18460D01*
X347788D01*
Y18245D01*
X349293D01*
Y18460D01*
X349938D01*
Y18675D01*
X350153D01*
Y18890D01*
X350368D01*
Y19105D01*
X350583D01*
Y19320D01*
X350798D01*
Y19535D01*
X351013D01*
Y19965D01*
X351228D01*
Y20610D01*
X351443D01*
Y21040D01*
X351658D01*
Y19535D01*
X351443D01*
Y18890D01*
X351228D01*
Y18460D01*
X351013D01*
Y18030D01*
X350798D01*
Y17815D01*
X350583D01*
Y17600D01*
X350368D01*
Y17385D01*
X349938D01*
Y17170D01*
X349508D01*
Y16955D01*
X347788D01*
Y17170D01*
X347358D01*
Y17385D01*
X347143D01*
Y17600D01*
X346713D01*
Y17815D01*
X346498D01*
Y18245D01*
X346283D01*
Y18460D01*
X346068D01*
Y18890D01*
X345853D01*
Y19320D01*
X345638D01*
Y20395D01*
X345423D01*
Y21255D01*
X345853D01*
Y19965D01*
D02*
G37*
G36*
X352088Y18675D02*
X352518D01*
Y18460D01*
X352948D01*
Y18245D01*
X353378D01*
Y18030D01*
X354023D01*
Y17815D01*
X355097D01*
Y17600D01*
X355312D01*
Y17170D01*
X355097D01*
Y16525D01*
X354882D01*
Y16310D01*
X354452D01*
Y16525D01*
X354023D01*
Y16740D01*
X353807D01*
Y16955D01*
X353592D01*
Y17170D01*
X353378D01*
Y17385D01*
X352948D01*
Y17600D01*
X352518D01*
Y17815D01*
X352088D01*
Y18030D01*
X351658D01*
Y18245D01*
X351443D01*
Y18460D01*
X351658D01*
Y18675D01*
X351873D01*
Y18890D01*
X352088D01*
Y18675D01*
D02*
G37*
%LPC*%
G36*
X351228Y26199D02*
X349723D01*
Y25984D01*
X349508D01*
Y25554D01*
X349293D01*
Y24264D01*
X349508D01*
Y23834D01*
X349723D01*
Y23619D01*
X349938D01*
Y23404D01*
X351013D01*
Y23619D01*
X351228D01*
Y23834D01*
X351443D01*
Y24264D01*
X351658D01*
Y25769D01*
X351443D01*
Y25984D01*
X351228D01*
Y26199D01*
D02*
G37*
G36*
X347358Y25984D02*
X345638D01*
Y25769D01*
X345423D01*
Y24049D01*
X345638D01*
Y23619D01*
X345853D01*
Y23404D01*
X346068D01*
Y23189D01*
X346928D01*
Y23404D01*
X347358D01*
Y23619D01*
X347573D01*
Y24049D01*
X347788D01*
Y25554D01*
X347573D01*
Y25769D01*
X347358D01*
Y25984D01*
D02*
G37*
G36*
X348863Y24049D02*
X348433D01*
Y23834D01*
X348218D01*
Y23404D01*
X348003D01*
Y22975D01*
X347788D01*
Y21900D01*
X348003D01*
Y21685D01*
X349293D01*
Y21900D01*
X349508D01*
Y23189D01*
X349293D01*
Y23619D01*
X349078D01*
Y23834D01*
X348863D01*
Y24049D01*
D02*
G37*
%LPD*%
G36*
X358752Y10506D02*
X358967D01*
Y10291D01*
Y9861D01*
X359182D01*
Y9431D01*
X358322D01*
Y10076D01*
X358537D01*
Y10721D01*
X358752D01*
Y10506D01*
D02*
G37*
G36*
X350368Y10291D02*
X350583D01*
Y9646D01*
X350798D01*
Y9431D01*
X349723D01*
Y9646D01*
X349938D01*
Y9861D01*
Y10076D01*
Y10291D01*
X350153D01*
Y10721D01*
X350368D01*
Y10291D01*
D02*
G37*
G36*
X345853Y10721D02*
X346068D01*
Y10291D01*
X345853D01*
Y10076D01*
X344563D01*
Y10291D01*
Y11151D01*
X345853D01*
Y10721D01*
D02*
G37*
D10*
X542323Y88583D02*
X542303Y89580D01*
X542242Y90575D01*
X542141Y91568D01*
X542000Y92555D01*
X541819Y93536D01*
X541599Y94509D01*
X541339Y95472D01*
X541040Y96423D01*
X540703Y97362D01*
X540329Y98286D01*
X539917Y99195D01*
X539469Y100086D01*
X538984Y100958D01*
X538466Y101810D01*
X537913Y102639D01*
X537326Y103446D01*
X536708Y104229D01*
X536058Y104986D01*
X535378Y105716D01*
X534669Y106417D01*
X533933Y107089D01*
X533170Y107731D01*
X532381Y108342D01*
X531568Y108920D01*
X530732Y109465D01*
X529875Y109975D01*
X528999Y110450D01*
X528103Y110889D01*
X527190Y111292D01*
X526262Y111657D01*
X525320Y111985D01*
X524366Y112274D01*
X523400Y112524D01*
X522425Y112734D01*
X521443Y112905D01*
X520454Y113036D01*
X519461Y113127D01*
X518465Y113178D01*
X517467Y113188D01*
X516470Y113157D01*
X515475Y113087D01*
X514484Y112976D01*
X513498Y112825D01*
X512519Y112634D01*
X511549Y112404D01*
X510589Y112134D01*
X509640Y111826D01*
X508705Y111479D01*
X507784Y111095D01*
X506880Y110674D01*
X505994Y110217D01*
X505127Y109724D01*
X504280Y109197D01*
X503456Y108635D01*
X502655Y108041D01*
X501879Y107414D01*
X501128Y106757D01*
X500406Y106070D01*
X499711Y105354D01*
X499046Y104611D01*
X498412Y103841D01*
X497810Y103046D01*
X497240Y102227D01*
X496704Y101386D01*
X496202Y100524D01*
X495736Y99642D01*
X495306Y98743D01*
X494912Y97826D01*
X494557Y96894D01*
X494239Y95949D01*
X493960Y94991D01*
X493719Y94023D01*
X493518Y93046D01*
X493358Y92062D01*
X493236Y91072D01*
X493156Y90078D01*
X493115Y89081D01*
Y88084D01*
X493156Y87087D01*
X493236Y86093D01*
X493358Y85103D01*
X493518Y84119D01*
X493719Y83142D01*
X493960Y82174D01*
X494239Y81216D01*
X494557Y80271D01*
X494912Y79339D01*
X495306Y78423D01*
X495736Y77523D01*
X496202Y76641D01*
X496704Y75779D01*
X497240Y74938D01*
X497810Y74119D01*
X498412Y73325D01*
X499046Y72555D01*
X499711Y71811D01*
X500406Y71095D01*
X501129Y70408D01*
X501879Y69751D01*
X502655Y69125D01*
X503456Y68530D01*
X504280Y67969D01*
X505127Y67441D01*
X505994Y66948D01*
X506880Y66491D01*
X507784Y66070D01*
X508705Y65686D01*
X509640Y65340D01*
X510589Y65031D01*
X511549Y64762D01*
X512519Y64531D01*
X513498Y64341D01*
X514484Y64190D01*
X515476Y64079D01*
X516470Y64008D01*
X517467Y63978D01*
X518465Y63988D01*
X519461Y64038D01*
X520454Y64129D01*
X521443Y64260D01*
X522425Y64431D01*
X523400Y64642D01*
X524366Y64892D01*
X525320Y65181D01*
X526263Y65508D01*
X527191Y65873D01*
X528103Y66276D01*
X528999Y66715D01*
X529876Y67190D01*
X530732Y67701D01*
X531568Y68245D01*
X532381Y68823D01*
X533170Y69434D01*
X533933Y70076D01*
X534669Y70748D01*
X535378Y71450D01*
X536058Y72180D01*
X536708Y72936D01*
X537326Y73719D01*
X537913Y74526D01*
X538465Y75356D01*
X538984Y76208D01*
X539469Y77080D01*
X539917Y77971D01*
X540329Y78879D01*
X540703Y79803D01*
X541040Y80742D01*
X541339Y81694D01*
X541599Y82657D01*
X541819Y83629D01*
X542000Y84610D01*
X542141Y85598D01*
X542242Y86590D01*
X542303Y87585D01*
X542323Y88583D01*
X403140Y55027D02*
X403040Y56018D01*
X402741Y56968D01*
X402258Y57839D01*
X401610Y58594D01*
X400822Y59204D01*
X399928Y59642D01*
X398964Y59892D01*
X397970Y59942D01*
X396985Y59791D01*
X396052Y59446D01*
X395207Y58919D01*
X394485Y58233D01*
X393916Y57416D01*
X393523Y56501D01*
X393323Y55525D01*
Y54530D01*
X393523Y53554D01*
X393916Y52639D01*
X394485Y51822D01*
X395207Y51136D01*
X396052Y50609D01*
X396985Y50263D01*
X397970Y50112D01*
X398964Y50163D01*
X399928Y50412D01*
X400822Y50851D01*
X401610Y51460D01*
X402258Y52216D01*
X402741Y53087D01*
X403040Y54037D01*
X403140Y55027D01*
X494291Y40157D02*
X494191Y41148D01*
X493892Y42098D01*
X493409Y42969D01*
X492761Y43724D01*
X491973Y44334D01*
X491079Y44772D01*
X490115Y45022D01*
X489121Y45072D01*
X488136Y44922D01*
X487203Y44576D01*
X486358Y44049D01*
X485636Y43363D01*
X485067Y42546D01*
X484675Y41631D01*
X484474Y40655D01*
Y39660D01*
X484675Y38684D01*
X485067Y37769D01*
X485636Y36952D01*
X486358Y36266D01*
X487203Y35739D01*
X488136Y35393D01*
X489121Y35243D01*
X490115Y35293D01*
X491079Y35543D01*
X491973Y35981D01*
X492761Y36591D01*
X493409Y37346D01*
X493892Y38217D01*
X494191Y39167D01*
X494291Y40157D01*
X138779Y55118D02*
X138679Y56109D01*
X138381Y57059D01*
X137898Y57929D01*
X137249Y58685D01*
X136461Y59294D01*
X135567Y59733D01*
X134604Y59983D01*
X133609Y60033D01*
X132625Y59882D01*
X131691Y59536D01*
X130846Y59010D01*
X130124Y58324D01*
X129555Y57506D01*
X129163Y56591D01*
X128962Y55616D01*
Y54620D01*
X129163Y53645D01*
X129555Y52730D01*
X130124Y51912D01*
X130846Y51227D01*
X131691Y50700D01*
X132625Y50354D01*
X133609Y50203D01*
X134604Y50254D01*
X135567Y50503D01*
X136461Y50942D01*
X137249Y51551D01*
X137898Y52307D01*
X138381Y53177D01*
X138679Y54128D01*
X138779Y55118D01*
X576772Y212598D02*
X576721Y213594D01*
X576570Y214580D01*
X576320Y215545D01*
X575974Y216480D01*
X575535Y217375D01*
X575007Y218221D01*
X574397Y219010D01*
X573710Y219732D01*
X572954Y220382D01*
X572135Y220951D01*
X571264Y221435D01*
X570347Y221828D01*
X569396Y222127D01*
X568420Y222327D01*
X567428Y222428D01*
X566431D01*
X565439Y222327D01*
X564462Y222127D01*
X563511Y221828D01*
X562595Y221435D01*
X561723Y220951D01*
X560905Y220382D01*
X560148Y219732D01*
X559461Y219010D01*
X558851Y218221D01*
X558323Y217375D01*
X557884Y216480D01*
X557538Y215545D01*
X557288Y214580D01*
X557137Y213594D01*
X557087Y212598D01*
X557137Y211603D01*
X557288Y210617D01*
X557538Y209652D01*
X557884Y208717D01*
X558323Y207822D01*
X558851Y206976D01*
X559461Y206187D01*
X560148Y205465D01*
X560905Y204815D01*
X561723Y204246D01*
X562595Y203762D01*
X563511Y203369D01*
X564462Y203070D01*
X565439Y202869D01*
X566431Y202768D01*
X567428D01*
X568420Y202869D01*
X569396Y203070D01*
X570347Y203369D01*
X571264Y203762D01*
X572135Y204246D01*
X572954Y204815D01*
X573710Y205465D01*
X574397Y206187D01*
X575007Y206976D01*
X575535Y207822D01*
X575974Y208717D01*
X576320Y209652D01*
X576570Y210617D01*
X576721Y211603D01*
X576772Y212598D01*
Y11811D02*
X576721Y12807D01*
X576570Y13792D01*
X576320Y14758D01*
X575974Y15692D01*
X575535Y16588D01*
X575007Y17434D01*
X574397Y18222D01*
X573710Y18945D01*
X572954Y19594D01*
X572135Y20164D01*
X571264Y20648D01*
X570347Y21041D01*
X569396Y21339D01*
X568420Y21540D01*
X567428Y21641D01*
X566431D01*
X565439Y21540D01*
X564462Y21339D01*
X563511Y21041D01*
X562595Y20648D01*
X561723Y20164D01*
X560905Y19594D01*
X560148Y18945D01*
X559461Y18222D01*
X558851Y17434D01*
X558323Y16588D01*
X557884Y15692D01*
X557538Y14758D01*
X557288Y13792D01*
X557137Y12807D01*
X557087Y11811D01*
X557137Y10815D01*
X557288Y9830D01*
X557538Y8864D01*
X557884Y7930D01*
X558323Y7034D01*
X558851Y6188D01*
X559461Y5400D01*
X560148Y4677D01*
X560905Y4028D01*
X561723Y3458D01*
X562595Y2974D01*
X563511Y2581D01*
X564462Y2283D01*
X565439Y2082D01*
X566431Y1981D01*
X567428D01*
X568420Y2082D01*
X569396Y2283D01*
X570347Y2581D01*
X571264Y2974D01*
X572135Y3458D01*
X572954Y4028D01*
X573710Y4677D01*
X574397Y5400D01*
X575007Y6188D01*
X575535Y7034D01*
X575974Y7930D01*
X576320Y8865D01*
X576570Y9830D01*
X576721Y10815D01*
X576772Y11811D01*
X58465D02*
X58414Y12807D01*
X58263Y13792D01*
X58013Y14758D01*
X57667Y15692D01*
X57228Y16588D01*
X56700Y17434D01*
X56090Y18222D01*
X55403Y18945D01*
X54647Y19594D01*
X53828Y20164D01*
X52957Y20648D01*
X52040Y21041D01*
X51089Y21339D01*
X50112Y21540D01*
X49121Y21641D01*
X48123D01*
X47132Y21540D01*
X46155Y21339D01*
X45204Y21041D01*
X44287Y20648D01*
X43416Y20164D01*
X42597Y19594D01*
X41841Y18945D01*
X41154Y18222D01*
X40544Y17434D01*
X40016Y16588D01*
X39577Y15692D01*
X39231Y14758D01*
X38981Y13792D01*
X38830Y12807D01*
X38780Y11811D01*
X38830Y10815D01*
X38981Y9830D01*
X39231Y8864D01*
X39577Y7930D01*
X40016Y7034D01*
X40544Y6188D01*
X41154Y5400D01*
X41841Y4677D01*
X42597Y4028D01*
X43416Y3458D01*
X44287Y2974D01*
X45204Y2581D01*
X46155Y2283D01*
X47132Y2082D01*
X48124Y1981D01*
X49121D01*
X50112Y2082D01*
X51089Y2283D01*
X52040Y2581D01*
X52957Y2974D01*
X53828Y3458D01*
X54647Y4028D01*
X55403Y4677D01*
X56090Y5400D01*
X56700Y6188D01*
X57228Y7034D01*
X57667Y7930D01*
X58013Y8865D01*
X58263Y9830D01*
X58414Y10815D01*
X58465Y11811D01*
X123031Y212598D02*
X122981Y213594D01*
X122830Y214580D01*
X122580Y215545D01*
X122234Y216480D01*
X121795Y217375D01*
X121267Y218221D01*
X120657Y219010D01*
X119970Y219732D01*
X119214Y220382D01*
X118395Y220951D01*
X117524Y221435D01*
X116607Y221828D01*
X115656Y222127D01*
X114679Y222327D01*
X113688Y222428D01*
X112690D01*
X111699Y222327D01*
X110722Y222127D01*
X109771Y221828D01*
X108854Y221435D01*
X107983Y220951D01*
X107164Y220382D01*
X106408Y219732D01*
X105721Y219010D01*
X105111Y218221D01*
X104583Y217375D01*
X104144Y216480D01*
X103798Y215545D01*
X103548Y214580D01*
X103397Y213594D01*
X103347Y212598D01*
X103397Y211603D01*
X103548Y210617D01*
X103798Y209652D01*
X104144Y208717D01*
X104583Y207822D01*
X105111Y206976D01*
X105721Y206187D01*
X106408Y205465D01*
X107164Y204815D01*
X107983Y204246D01*
X108854Y203762D01*
X109771Y203369D01*
X110722Y203070D01*
X111699Y202869D01*
X112690Y202768D01*
X113688D01*
X114679Y202869D01*
X115656Y203070D01*
X116607Y203369D01*
X117524Y203762D01*
X118395Y204246D01*
X119214Y204815D01*
X119970Y205465D01*
X120657Y206187D01*
X121267Y206976D01*
X121795Y207822D01*
X122234Y208717D01*
X122580Y209652D01*
X122830Y210617D01*
X122981Y211603D01*
X123031Y212598D01*
X492717Y75984D02*
X492616Y76975D01*
X492318Y77925D01*
X491834Y78796D01*
X491186Y79551D01*
X490398Y80161D01*
X489504Y80599D01*
X488541Y80849D01*
X487546Y80899D01*
X486562Y80748D01*
X485628Y80403D01*
X484783Y79876D01*
X484061Y79190D01*
X483492Y78373D01*
X483100Y77457D01*
X482899Y76482D01*
Y75486D01*
X483100Y74511D01*
X483492Y73596D01*
X484061Y72779D01*
X484783Y72093D01*
X485628Y71566D01*
X486562Y71220D01*
X487546Y71069D01*
X488541Y71120D01*
X489504Y71369D01*
X490398Y71808D01*
X491186Y72417D01*
X491834Y73173D01*
X492318Y74044D01*
X492616Y74994D01*
X492717Y75984D01*
X454134Y54724D02*
X454033Y55715D01*
X453735Y56665D01*
X453252Y57536D01*
X452603Y58291D01*
X451816Y58901D01*
X450922Y59339D01*
X449958Y59589D01*
X448963Y59639D01*
X447979Y59489D01*
X447045Y59143D01*
X446200Y58616D01*
X445478Y57930D01*
X444910Y57113D01*
X444517Y56198D01*
X444317Y55222D01*
Y54226D01*
X444517Y53251D01*
X444910Y52336D01*
X445478Y51519D01*
X446200Y50833D01*
X447045Y50306D01*
X447979Y49960D01*
X448963Y49810D01*
X449958Y49860D01*
X450922Y50109D01*
X451816Y50548D01*
X452603Y51157D01*
X453252Y51913D01*
X453735Y52784D01*
X454033Y53734D01*
X454134Y54724D01*
X484842Y53937D02*
X484742Y54928D01*
X484444Y55878D01*
X483960Y56748D01*
X483312Y57504D01*
X482524Y58113D01*
X481630Y58552D01*
X480666Y58802D01*
X479672Y58852D01*
X478688Y58701D01*
X477754Y58355D01*
X476909Y57829D01*
X476187Y57143D01*
X475618Y56325D01*
X475226Y55410D01*
X475025Y54435D01*
Y53439D01*
X475226Y52464D01*
X475618Y51549D01*
X476187Y50731D01*
X476909Y50045D01*
X477754Y49519D01*
X478688Y49173D01*
X479672Y49022D01*
X480666Y49073D01*
X481630Y49322D01*
X482524Y49761D01*
X483312Y50370D01*
X483960Y51126D01*
X484444Y51996D01*
X484742Y52946D01*
X484842Y53937D01*
X320642Y24041D02*
X320541Y25032D01*
X320243Y25982D01*
X319760Y26852D01*
X319111Y27608D01*
X318324Y28217D01*
X317430Y28656D01*
X316466Y28905D01*
X315472Y28956D01*
X314487Y28805D01*
X313554Y28459D01*
X312708Y27933D01*
X311987Y27247D01*
X311418Y26429D01*
X311025Y25514D01*
X310825Y24539D01*
Y23543D01*
X311025Y22568D01*
X311418Y21653D01*
X311987Y20835D01*
X312708Y20149D01*
X313554Y19623D01*
X314487Y19277D01*
X315472Y19126D01*
X316466Y19176D01*
X317430Y19426D01*
X318324Y19865D01*
X319111Y20474D01*
X319760Y21230D01*
X320243Y22100D01*
X320541Y23050D01*
X320642Y24041D01*
X539567Y24803D02*
X539466Y25794D01*
X539168Y26744D01*
X538685Y27615D01*
X538036Y28370D01*
X537249Y28980D01*
X536355Y29418D01*
X535391Y29668D01*
X534396Y29718D01*
X533412Y29567D01*
X532478Y29221D01*
X531633Y28695D01*
X530912Y28009D01*
X530343Y27191D01*
X529950Y26276D01*
X529750Y25301D01*
Y24305D01*
X529950Y23330D01*
X530343Y22415D01*
X530912Y21598D01*
X531633Y20911D01*
X532478Y20385D01*
X533412Y20039D01*
X534396Y19888D01*
X535391Y19939D01*
X536355Y20188D01*
X537249Y20627D01*
X538036Y21236D01*
X538685Y21992D01*
X539168Y22862D01*
X539466Y23812D01*
X539567Y24803D01*
X540551Y7087D02*
X540450Y8077D01*
X540152Y9027D01*
X539669Y9898D01*
X539020Y10654D01*
X538233Y11263D01*
X537339Y11701D01*
X536375Y11951D01*
X535381Y12002D01*
X534396Y11851D01*
X533463Y11505D01*
X532618Y10978D01*
X531896Y10292D01*
X531327Y9475D01*
X530934Y8560D01*
X530734Y7585D01*
Y6589D01*
X530934Y5613D01*
X531327Y4698D01*
X531896Y3881D01*
X532618Y3195D01*
X533463Y2668D01*
X534396Y2323D01*
X535381Y2172D01*
X536375Y2222D01*
X537339Y2472D01*
X538233Y2910D01*
X539020Y3520D01*
X539669Y4275D01*
X540152Y5146D01*
X540450Y6096D01*
X540551Y7087D01*
X140945Y24803D02*
X140844Y25794D01*
X140546Y26744D01*
X140063Y27615D01*
X139414Y28370D01*
X138627Y28980D01*
X137733Y29418D01*
X136769Y29668D01*
X135774Y29718D01*
X134790Y29567D01*
X133856Y29221D01*
X133011Y28695D01*
X132290Y28009D01*
X131721Y27191D01*
X131328Y26276D01*
X131128Y25301D01*
Y24305D01*
X131328Y23330D01*
X131721Y22415D01*
X132290Y21598D01*
X133011Y20911D01*
X133856Y20385D01*
X134790Y20039D01*
X135774Y19888D01*
X136769Y19939D01*
X137733Y20188D01*
X138627Y20627D01*
X139414Y21236D01*
X140063Y21992D01*
X140546Y22862D01*
X140844Y23812D01*
X140945Y24803D01*
X154724Y16929D02*
X154624Y17920D01*
X154326Y18870D01*
X153842Y19740D01*
X153194Y20496D01*
X152406Y21105D01*
X151512Y21544D01*
X150548Y21794D01*
X149554Y21844D01*
X148570Y21693D01*
X147636Y21348D01*
X146791Y20821D01*
X146069Y20135D01*
X145500Y19317D01*
X145108Y18402D01*
X144907Y17427D01*
Y16431D01*
X145108Y15456D01*
X145500Y14541D01*
X146069Y13724D01*
X146791Y13037D01*
X147636Y12511D01*
X148570Y12165D01*
X149554Y12014D01*
X150548Y12065D01*
X151512Y12314D01*
X152406Y12753D01*
X153194Y13362D01*
X153842Y14118D01*
X154326Y14988D01*
X154624Y15938D01*
X154724Y16929D01*
X221260Y9252D02*
X221159Y10243D01*
X220861Y11193D01*
X220378Y12063D01*
X219729Y12819D01*
X218942Y13428D01*
X218048Y13867D01*
X217084Y14117D01*
X216089Y14167D01*
X215105Y14016D01*
X214171Y13670D01*
X213326Y13144D01*
X212604Y12457D01*
X212036Y11640D01*
X211643Y10725D01*
X211443Y9750D01*
Y8754D01*
X211643Y7779D01*
X212036Y6864D01*
X212604Y6046D01*
X213326Y5360D01*
X214171Y4834D01*
X215105Y4488D01*
X216089Y4337D01*
X217084Y4388D01*
X218048Y4637D01*
X218942Y5076D01*
X219729Y5685D01*
X220378Y6441D01*
X220861Y7311D01*
X221159Y8261D01*
X221260Y9252D01*
X193110Y22835D02*
X193009Y23825D01*
X192711Y24775D01*
X192228Y25646D01*
X191580Y26401D01*
X190792Y27011D01*
X189898Y27450D01*
X188934Y27699D01*
X187940Y27750D01*
X186955Y27599D01*
X186022Y27253D01*
X185177Y26726D01*
X184455Y26040D01*
X183886Y25223D01*
X183493Y24308D01*
X183293Y23333D01*
Y22337D01*
X183493Y21361D01*
X183886Y20446D01*
X184455Y19629D01*
X185177Y18943D01*
X186022Y18416D01*
X186955Y18070D01*
X187940Y17920D01*
X188934Y17970D01*
X189898Y18220D01*
X190792Y18658D01*
X191580Y19268D01*
X192228Y20023D01*
X192711Y20894D01*
X193009Y21844D01*
X193110Y22835D01*
X383071Y16929D02*
X382970Y17920D01*
X382672Y18870D01*
X382189Y19740D01*
X381540Y20496D01*
X380753Y21105D01*
X379859Y21544D01*
X378895Y21794D01*
X377900Y21844D01*
X376916Y21693D01*
X375982Y21348D01*
X375137Y20821D01*
X374416Y20135D01*
X373847Y19317D01*
X373454Y18402D01*
X373254Y17427D01*
Y16431D01*
X373454Y15456D01*
X373847Y14541D01*
X374416Y13724D01*
X375137Y13037D01*
X375982Y12511D01*
X376916Y12165D01*
X377900Y12014D01*
X378895Y12065D01*
X379859Y12314D01*
X380753Y12753D01*
X381540Y13362D01*
X382189Y14118D01*
X382672Y14988D01*
X382970Y15938D01*
X383071Y16929D01*
X317913Y44291D02*
X317813Y45282D01*
X317515Y46232D01*
X317031Y47103D01*
X316383Y47858D01*
X315595Y48468D01*
X314701Y48906D01*
X313737Y49156D01*
X312743Y49206D01*
X311759Y49055D01*
X310825Y48710D01*
X309980Y48183D01*
X309258Y47497D01*
X308689Y46680D01*
X308297Y45765D01*
X308096Y44789D01*
Y43793D01*
X308297Y42818D01*
X308689Y41903D01*
X309258Y41086D01*
X309980Y40400D01*
X310825Y39873D01*
X311759Y39527D01*
X312743Y39376D01*
X313737Y39427D01*
X314701Y39676D01*
X315595Y40115D01*
X316383Y40725D01*
X317031Y41480D01*
X317515Y42351D01*
X317813Y43301D01*
X317913Y44291D01*
X161393Y221046D02*
X161293Y222037D01*
X160995Y222987D01*
X160511Y223858D01*
X159863Y224613D01*
X159075Y225223D01*
X158181Y225661D01*
X157217Y225911D01*
X156223Y225961D01*
X155239Y225811D01*
X154305Y225465D01*
X153460Y224938D01*
X152738Y224252D01*
X152169Y223435D01*
X151777Y222520D01*
X151576Y221544D01*
Y220549D01*
X151777Y219573D01*
X152169Y218658D01*
X152738Y217841D01*
X153460Y217155D01*
X154305Y216628D01*
X155239Y216282D01*
X156223Y216132D01*
X157217Y216182D01*
X158181Y216432D01*
X159075Y216870D01*
X159863Y217480D01*
X160511Y218235D01*
X160995Y219106D01*
X161293Y220056D01*
X161393Y221046D01*
X187202Y95451D02*
X187163Y96455D01*
X187045Y97453D01*
X186849Y98438D01*
X186576Y99405D01*
X186228Y100348D01*
X185808Y101260D01*
X185317Y102137D01*
X184758Y102972D01*
X184136Y103761D01*
X183455Y104499D01*
X182717Y105181D01*
X181928Y105803D01*
X181092Y106361D01*
X180216Y106852D01*
X179303Y107273D01*
X178361Y107620D01*
X177394Y107893D01*
X176409Y108089D01*
X175411Y108207D01*
X174407Y108247D01*
X173403Y108207D01*
X172405Y108089D01*
X171420Y107893D01*
X170453Y107620D01*
X169510Y107273D01*
X168598Y106852D01*
X167721Y106361D01*
X166886Y105803D01*
X166097Y105181D01*
X165359Y104499D01*
X164677Y103761D01*
X164055Y102972D01*
X163497Y102137D01*
X163006Y101260D01*
X162586Y100348D01*
X162238Y99405D01*
X161965Y98438D01*
X161769Y97453D01*
X161651Y96455D01*
X161612Y95451D01*
X161651Y94447D01*
X161769Y93450D01*
X161965Y92464D01*
X162238Y91497D01*
X162586Y90555D01*
X163006Y89642D01*
X163497Y88766D01*
X164055Y87930D01*
X164677Y87141D01*
X165359Y86404D01*
X166097Y85722D01*
X166886Y85100D01*
X167721Y84541D01*
X168598Y84051D01*
X169510Y83630D01*
X170453Y83282D01*
X171420Y83009D01*
X172405Y82814D01*
X173403Y82696D01*
X174407Y82656D01*
X175411Y82696D01*
X176409Y82814D01*
X177394Y83009D01*
X178361Y83282D01*
X179303Y83630D01*
X180216Y84051D01*
X181092Y84541D01*
X181928Y85100D01*
X182717Y85722D01*
X183455Y86404D01*
X184136Y87141D01*
X184758Y87930D01*
X185317Y88766D01*
X185808Y89642D01*
X186228Y90555D01*
X186576Y91497D01*
X186849Y92464D01*
X187045Y93450D01*
X187163Y94447D01*
X187202Y95451D01*
Y38365D02*
X187163Y39369D01*
X187045Y40366D01*
X186849Y41352D01*
X186576Y42319D01*
X186228Y43261D01*
X185808Y44174D01*
X185317Y45050D01*
X184758Y45886D01*
X184136Y46674D01*
X183455Y47412D01*
X182717Y48094D01*
X181928Y48716D01*
X181092Y49275D01*
X180216Y49765D01*
X179303Y50186D01*
X178361Y50534D01*
X177394Y50806D01*
X176409Y51002D01*
X175411Y51121D01*
X174407Y51160D01*
X173403Y51121D01*
X172405Y51002D01*
X171420Y50806D01*
X170453Y50534D01*
X169510Y50186D01*
X168598Y49765D01*
X167721Y49275D01*
X166886Y48716D01*
X166097Y48094D01*
X165359Y47412D01*
X164677Y46674D01*
X164055Y45886D01*
X163497Y45050D01*
X163006Y44174D01*
X162586Y43261D01*
X162238Y42319D01*
X161965Y41352D01*
X161769Y40366D01*
X161651Y39369D01*
X161612Y38365D01*
X161651Y37361D01*
X161769Y36363D01*
X161965Y35378D01*
X162238Y34411D01*
X162586Y33468D01*
X163006Y32556D01*
X163497Y31679D01*
X164055Y30844D01*
X164677Y30055D01*
X165359Y29317D01*
X166097Y28635D01*
X166886Y28013D01*
X167721Y27455D01*
X168598Y26964D01*
X169510Y26543D01*
X170453Y26196D01*
X171420Y25923D01*
X172405Y25727D01*
X173403Y25609D01*
X174407Y25569D01*
X175411Y25609D01*
X176409Y25727D01*
X177394Y25923D01*
X178361Y26196D01*
X179303Y26543D01*
X180216Y26964D01*
X181092Y27455D01*
X181928Y28013D01*
X182717Y28635D01*
X183455Y29317D01*
X184136Y30055D01*
X184758Y30844D01*
X185317Y31679D01*
X185808Y32556D01*
X186228Y33468D01*
X186576Y34411D01*
X186849Y35378D01*
X187045Y36363D01*
X187163Y37361D01*
X187202Y38365D01*
Y66908D02*
X187163Y67912D01*
X187045Y68910D01*
X186849Y69895D01*
X186576Y70862D01*
X186228Y71804D01*
X185808Y72717D01*
X185317Y73593D01*
X184758Y74429D01*
X184136Y75218D01*
X183455Y75956D01*
X182717Y76638D01*
X181928Y77260D01*
X181092Y77818D01*
X180216Y78309D01*
X179303Y78729D01*
X178361Y79077D01*
X177394Y79350D01*
X176409Y79546D01*
X175411Y79664D01*
X174407Y79703D01*
X173403Y79664D01*
X172405Y79546D01*
X171420Y79350D01*
X170453Y79077D01*
X169510Y78729D01*
X168598Y78309D01*
X167721Y77818D01*
X166886Y77260D01*
X166097Y76638D01*
X165359Y75956D01*
X164677Y75218D01*
X164055Y74429D01*
X163497Y73593D01*
X163006Y72717D01*
X162586Y71804D01*
X162238Y70862D01*
X161965Y69895D01*
X161769Y68910D01*
X161651Y67912D01*
X161612Y66908D01*
X161651Y65904D01*
X161769Y64906D01*
X161965Y63921D01*
X162238Y62954D01*
X162586Y62011D01*
X163006Y61099D01*
X163497Y60223D01*
X164055Y59387D01*
X164677Y58598D01*
X165359Y57860D01*
X166097Y57178D01*
X166886Y56556D01*
X167721Y55998D01*
X168598Y55507D01*
X169510Y55087D01*
X170453Y54739D01*
X171420Y54466D01*
X172405Y54270D01*
X173403Y54152D01*
X174407Y54113D01*
X175411Y54152D01*
X176409Y54270D01*
X177394Y54466D01*
X178361Y54739D01*
X179303Y55087D01*
X180216Y55507D01*
X181092Y55998D01*
X181928Y56556D01*
X182717Y57178D01*
X183455Y57860D01*
X184136Y58598D01*
X184758Y59387D01*
X185317Y60223D01*
X185808Y61099D01*
X186228Y62011D01*
X186576Y62954D01*
X186849Y63921D01*
X187045Y64906D01*
X187163Y65904D01*
X187202Y66908D01*
X552745Y110394D02*
Y112835D01*
X548807D02*
X552745D01*
X548807Y110394D02*
Y112835D01*
X580315Y110394D02*
Y112835D01*
X576378D02*
X580315D01*
X576378Y110394D02*
Y112835D01*
X544882Y110394D02*
X544882Y70394D01*
Y110394D02*
X584252D01*
X544882Y70394D02*
X584252D01*
Y110394D01*
X548903Y70394D02*
Y110394D01*
X553303Y70394D02*
Y109894D01*
X573170Y70394D02*
Y109894D01*
X580636Y70394D02*
Y110394D01*
X544882Y75436D02*
X548903Y72836D01*
X544882Y83786D02*
X548903Y86536D01*
X544882Y97336D02*
X548903Y93786D01*
X544882Y104186D02*
X548903Y107436D01*
X552745Y65118D02*
Y67559D01*
X548807D02*
X552745D01*
X548807Y65118D02*
Y67559D01*
X580315Y65118D02*
Y67559D01*
X576378D02*
X580315D01*
X576378Y65118D02*
Y67559D01*
X544882Y65118D02*
X544882Y25118D01*
Y65118D02*
X584252D01*
X544882Y25118D02*
X584252D01*
Y65118D01*
X548903Y25118D02*
Y65118D01*
X553303Y25118D02*
Y64618D01*
X573170Y25118D02*
Y64618D01*
X580636Y25118D02*
Y65118D01*
X544882Y30160D02*
X548903Y27560D01*
X544882Y38510D02*
X548903Y41260D01*
X544882Y52060D02*
X548903Y48510D01*
X544882Y58910D02*
X548903Y62160D01*
X124826Y176706D02*
X124917Y176797D01*
X124826Y89361D02*
Y176706D01*
Y89361D02*
X124840Y89347D01*
X140773D01*
X140759Y89361D02*
X140773Y89347D01*
X140759Y89361D02*
Y176704D01*
X140665Y176797D02*
X140759Y176704D01*
X124917Y176797D02*
X140665D01*
X124917Y94120D02*
X140665D01*
X146132Y189971D02*
X169754D01*
X146132Y174223D02*
Y189971D01*
Y158474D02*
Y174223D01*
Y142726D02*
Y158474D01*
Y126978D02*
Y142726D01*
Y126978D02*
X169754D01*
Y189971D01*
X101186Y140982D02*
X118509D01*
Y176415D01*
X101186Y140982D02*
Y176415D01*
X118509D01*
X90107Y89466D02*
X88008D01*
Y87892D01*
X89057D01*
X88008D01*
Y86317D01*
X91157D02*
X92206D01*
X91681D01*
Y89466D01*
X91157D01*
X93780Y88416D02*
Y86842D01*
X94305Y86317D01*
X95879D01*
Y85792D01*
X95355Y85268D01*
X94830D01*
X95879Y86317D02*
Y88416D01*
X96929Y89466D02*
Y86317D01*
X98503D01*
X99028Y86842D01*
Y87367D01*
Y87892D01*
X98503Y88416D01*
X96929D01*
X100602D02*
X101652D01*
X102176Y87892D01*
Y86317D01*
X100602D01*
X100077Y86842D01*
X100602Y87367D01*
X102176D01*
X105325Y88416D02*
X103751D01*
X103226Y87892D01*
Y86842D01*
X103751Y86317D01*
X105325D01*
X106375D02*
Y89466D01*
Y87367D02*
X107949Y88416D01*
X106375Y87367D02*
X107949Y86317D01*
X112672Y89466D02*
Y87367D01*
X113721Y86317D01*
X114771Y87367D01*
Y89466D01*
X115820Y86317D02*
X116870D01*
X116345D01*
Y89466D01*
X115820Y88941D01*
X118444Y86317D02*
Y86842D01*
X118969D01*
Y86317D01*
X118444D01*
X121068Y88941D02*
X121593Y89466D01*
X122642D01*
X123167Y88941D01*
Y86842D01*
X122642Y86317D01*
X121593D01*
X121068Y86842D01*
Y88941D01*
X88008Y82238D02*
X90107D01*
X91157D02*
X93256D01*
X94305D02*
X96404D01*
X97454D02*
X99553D01*
X100602D02*
X102701D01*
X103751D02*
X105850D01*
X106899D02*
X108999D01*
X110048D02*
X112147D01*
X113197D02*
X115296D01*
X116345D02*
X118444D01*
X119494D02*
X121593D01*
X93256Y78634D02*
X92206D01*
X92731D01*
Y76010D01*
X92206Y75485D01*
X91681D01*
X91157Y76010D01*
X94830Y77584D02*
X95879D01*
X96404Y77060D01*
Y75485D01*
X94830D01*
X94305Y76010D01*
X94830Y76535D01*
X96404D01*
X97454Y75485D02*
Y77584D01*
X99028D01*
X99553Y77060D01*
Y75485D01*
X105850D02*
X103751D01*
X105850Y77584D01*
Y78109D01*
X105325Y78634D01*
X104276D01*
X103751Y78109D01*
X106899D02*
X107424Y78634D01*
X108474D01*
X108999Y78109D01*
Y76010D01*
X108474Y75485D01*
X107424D01*
X106899Y76010D01*
Y78109D01*
X112147Y75485D02*
X110048D01*
X112147Y77584D01*
Y78109D01*
X111622Y78634D01*
X110573D01*
X110048Y78109D01*
X113197D02*
X113721Y78634D01*
X114771D01*
X115296Y78109D01*
Y77584D01*
X114771Y77060D01*
X114246D01*
X114771D01*
X115296Y76535D01*
Y76010D01*
X114771Y75485D01*
X113721D01*
X113197Y76010D01*
X91157Y69307D02*
Y71406D01*
X92206Y72456D01*
X93256Y71406D01*
Y69307D01*
Y70881D01*
X91157D01*
X94305Y71406D02*
Y69307D01*
Y70357D01*
X94830Y70881D01*
X95355Y71406D01*
X95879D01*
X97978Y71931D02*
Y71406D01*
X97454D01*
X98503D01*
X97978D01*
Y69832D01*
X98503Y69307D01*
X100077Y71406D02*
Y69832D01*
X100602Y69307D01*
X102176D01*
Y71406D01*
X103226D02*
Y69307D01*
Y70357D01*
X103751Y70881D01*
X104276Y71406D01*
X104800D01*
X106899Y69307D02*
X107949D01*
X108474Y69832D01*
Y70881D01*
X107949Y71406D01*
X106899D01*
X106375Y70881D01*
Y69832D01*
X106899Y69307D01*
X112672Y72456D02*
Y69307D01*
X114246D01*
X114771Y69832D01*
Y70357D01*
X114246Y70881D01*
X112672D01*
X114246D01*
X114771Y71406D01*
Y71931D01*
X114246Y72456D01*
X112672D01*
X115820Y69307D02*
Y69832D01*
X116345D01*
Y69307D01*
X115820D01*
X382561Y222582D02*
X379937D01*
Y220614D01*
X381249D01*
X379937D01*
Y218646D01*
X383873D02*
X385185D01*
X384529D01*
Y222582D01*
X383873D01*
X387153Y221270D02*
Y219302D01*
X387808Y218646D01*
X389776D01*
Y217990D01*
X389120Y217334D01*
X388464D01*
X389776Y218646D02*
Y221270D01*
X391088Y222582D02*
Y218646D01*
X393056D01*
X393712Y219302D01*
Y219958D01*
Y220614D01*
X393056Y221270D01*
X391088D01*
X395680D02*
X396992D01*
X397648Y220614D01*
Y218646D01*
X395680D01*
X395024Y219302D01*
X395680Y219958D01*
X397648D01*
X401584Y221270D02*
X399616D01*
X398960Y220614D01*
Y219302D01*
X399616Y218646D01*
X401584D01*
X402895D02*
Y222582D01*
Y219958D02*
X404863Y221270D01*
X402895Y219958D02*
X404863Y218646D01*
X410767Y222582D02*
Y219958D01*
X412079Y218646D01*
X413391Y219958D01*
Y222582D01*
X414703Y218646D02*
X416015D01*
X415359D01*
Y222582D01*
X414703Y221926D01*
X417982Y218646D02*
Y219302D01*
X418639D01*
Y218646D01*
X417982D01*
X421262Y221926D02*
X421918Y222582D01*
X423230D01*
X423886Y221926D01*
Y219302D01*
X423230Y218646D01*
X421918D01*
X421262Y219302D01*
Y221926D01*
X379937Y214147D02*
X382561D01*
X383873D02*
X386497D01*
X387808D02*
X390432D01*
X391744D02*
X394368D01*
X395680D02*
X398304D01*
X399616D02*
X402240D01*
X403551D02*
X406175D01*
X407487D02*
X410111D01*
X411423D02*
X414047D01*
X415359D02*
X417982D01*
X419294D02*
X421918D01*
X386497Y209992D02*
X385185D01*
X385841D01*
Y206712D01*
X385185Y206056D01*
X384529D01*
X383873Y206712D01*
X388464Y208680D02*
X389776D01*
X390432Y208024D01*
Y206056D01*
X388464D01*
X387808Y206712D01*
X388464Y207368D01*
X390432D01*
X391744Y206056D02*
Y208680D01*
X393712D01*
X394368Y208024D01*
Y206056D01*
X402240D02*
X399616D01*
X402240Y208680D01*
Y209336D01*
X401584Y209992D01*
X400272D01*
X399616Y209336D01*
X403551D02*
X404207Y209992D01*
X405519D01*
X406175Y209336D01*
Y206712D01*
X405519Y206056D01*
X404207D01*
X403551Y206712D01*
Y209336D01*
X410111Y206056D02*
X407487D01*
X410111Y208680D01*
Y209336D01*
X409455Y209992D01*
X408143D01*
X407487Y209336D01*
X411423D02*
X412079Y209992D01*
X413391D01*
X414047Y209336D01*
Y208680D01*
X413391Y208024D01*
X412735D01*
X413391D01*
X414047Y207368D01*
Y206712D01*
X413391Y206056D01*
X412079D01*
X411423Y206712D01*
X383873Y198933D02*
Y201557D01*
X385185Y202869D01*
X386497Y201557D01*
Y198933D01*
Y200901D01*
X383873D01*
X387808Y201557D02*
Y198933D01*
Y200245D01*
X388464Y200901D01*
X389120Y201557D01*
X389776D01*
X392400Y202213D02*
Y201557D01*
X391744D01*
X393056D01*
X392400D01*
Y199589D01*
X393056Y198933D01*
X395024Y201557D02*
Y199589D01*
X395680Y198933D01*
X397648D01*
Y201557D01*
X398960D02*
Y198933D01*
Y200245D01*
X399616Y200901D01*
X400272Y201557D01*
X400928D01*
X403551Y198933D02*
X404863D01*
X405519Y199589D01*
Y200901D01*
X404863Y201557D01*
X403551D01*
X402895Y200901D01*
Y199589D01*
X403551Y198933D01*
X410767Y202869D02*
Y198933D01*
X412735D01*
X413391Y199589D01*
Y200245D01*
X412735Y200901D01*
X410767D01*
X412735D01*
X413391Y201557D01*
Y202213D01*
X412735Y202869D01*
X410767D01*
X414703Y198933D02*
Y199589D01*
X415359D01*
Y198933D01*
X414703D01*
X537714Y108874D02*
Y110973D01*
X536665Y109924D02*
X538764D01*
X537321Y86433D02*
Y88532D01*
X536271Y87483D02*
X538370D01*
X586404Y97852D02*
X585748Y97196D01*
Y95884D01*
X586404Y95228D01*
X589028D01*
X589684Y95884D01*
Y97196D01*
X589028Y97852D01*
X587716D01*
Y96540D01*
X589684Y99164D02*
X585748D01*
X589684Y101788D01*
X585748D01*
Y103100D02*
X589684D01*
Y105067D01*
X589028Y105723D01*
X586404D01*
X585748Y105067D01*
Y103100D01*
X586519Y53759D02*
X585863Y53104D01*
Y51792D01*
X586519Y51136D01*
X589143D01*
X589799Y51792D01*
Y53104D01*
X589143Y53759D01*
X587831D01*
Y52448D01*
X589799Y55071D02*
X585863D01*
X589799Y57695D01*
X585863D01*
Y59007D02*
X589799D01*
Y60975D01*
X589143Y61631D01*
X586519D01*
X585863Y60975D01*
Y59007D01*
X589904Y32564D02*
Y29940D01*
X587280Y32564D01*
X586624D01*
X585968Y31908D01*
Y30596D01*
X586624Y29940D01*
X589904Y35844D02*
X585968D01*
X587936Y33876D01*
Y36500D01*
X585968Y37811D02*
X588592D01*
X589904Y39123D01*
X588592Y40435D01*
X585968D01*
X6253Y20507D02*
Y23131D01*
X2317D01*
Y20507D01*
X4285Y23131D02*
Y21819D01*
X2317Y19195D02*
X4941D01*
X6253Y17883D01*
X4941Y16571D01*
X2317D01*
X4285D01*
Y19195D01*
X2317Y15259D02*
X6253D01*
Y13291D01*
X5597Y12636D01*
X4285D01*
X3629Y13291D01*
Y15259D01*
Y13947D02*
X2317Y12636D01*
X6253Y11324D02*
Y8700D01*
Y10012D01*
X2317D01*
X6253Y7388D02*
X2317D01*
X4285D01*
Y4764D01*
X6253D01*
X2317D01*
X589804Y79887D02*
Y77264D01*
X587180Y79887D01*
X586524D01*
X585869Y79232D01*
Y77920D01*
X586524Y77264D01*
X589804Y83167D02*
X585869D01*
X587836Y81199D01*
Y83823D01*
X585869Y85135D02*
X588492D01*
X589804Y86447D01*
X588492Y87759D01*
X585869D01*
X389308Y65321D02*
X391407D01*
X390357D01*
Y62172D01*
X392456D02*
Y65321D01*
X394031D01*
X394555Y64796D01*
Y63747D01*
X394031Y63222D01*
X392456D01*
X395605Y61648D02*
X397704D01*
X400853Y64796D02*
X400328Y65321D01*
X399278D01*
X398754Y64796D01*
Y64271D01*
X399278Y63747D01*
X400328D01*
X400853Y63222D01*
Y62697D01*
X400328Y62172D01*
X399278D01*
X398754Y62697D01*
X404001Y64796D02*
X403476Y65321D01*
X402427D01*
X401902Y64796D01*
Y62697D01*
X402427Y62172D01*
X403476D01*
X404001Y62697D01*
Y63747D01*
X402952D01*
X405051Y62172D02*
Y65321D01*
X407150Y62172D01*
Y65321D01*
X408199D02*
Y62172D01*
X409774D01*
X410298Y62697D01*
Y64796D01*
X409774Y65321D01*
X408199D01*
X545014Y212008D02*
Y215157D01*
X546064Y214107D01*
X547114Y215157D01*
Y212008D01*
X548163Y215157D02*
Y212008D01*
Y213583D01*
X550262D01*
Y215157D01*
Y212008D01*
X552886D02*
Y215157D01*
X551312Y213583D01*
X553411D01*
X549936Y20079D02*
Y23228D01*
X550985Y22178D01*
X552035Y23228D01*
Y20079D01*
X553084Y23228D02*
Y20079D01*
Y21654D01*
X555183D01*
Y23228D01*
Y20079D01*
X556233Y22703D02*
X556758Y23228D01*
X557807D01*
X558332Y22703D01*
Y22178D01*
X557807Y21654D01*
X557282D01*
X557807D01*
X558332Y21129D01*
Y20604D01*
X557807Y20079D01*
X556758D01*
X556233Y20604D01*
X60607Y11495D02*
Y14644D01*
X61656Y13595D01*
X62706Y14644D01*
Y11495D01*
X63756Y14644D02*
Y11495D01*
Y13070D01*
X65855D01*
Y14644D01*
Y11495D01*
X69003D02*
X66904D01*
X69003Y13595D01*
Y14119D01*
X68478Y14644D01*
X67429D01*
X66904Y14119D01*
X100657Y222835D02*
Y225984D01*
X101707Y224934D01*
X102756Y225984D01*
Y222835D01*
X103806Y225984D02*
Y222835D01*
Y224410D01*
X105905D01*
Y225984D01*
Y222835D01*
X106955D02*
X108004D01*
X107479D01*
Y225984D01*
X106955Y225459D01*
X143332Y27349D02*
X145431D01*
X144382D01*
Y24200D01*
X146481D02*
Y27349D01*
X148055D01*
X148580Y26824D01*
Y25774D01*
X148055Y25250D01*
X146481D01*
X149629Y23675D02*
X151728D01*
X154877Y26824D02*
X154352Y27349D01*
X153303D01*
X152778Y26824D01*
Y26299D01*
X153303Y25774D01*
X154352D01*
X154877Y25250D01*
Y24725D01*
X154352Y24200D01*
X153303D01*
X152778Y24725D01*
X158026Y26824D02*
X157501Y27349D01*
X156451D01*
X155927Y26824D01*
Y24725D01*
X156451Y24200D01*
X157501D01*
X158026Y24725D01*
Y25774D01*
X156976D01*
X159075Y24200D02*
Y27349D01*
X161174Y24200D01*
Y27349D01*
X162224D02*
Y24200D01*
X163798D01*
X164323Y24725D01*
Y26824D01*
X163798Y27349D01*
X162224D01*
X156801Y19179D02*
X158900D01*
X157851D01*
Y16030D01*
X159950D02*
Y19179D01*
X161524D01*
X162049Y18654D01*
Y17604D01*
X161524Y17080D01*
X159950D01*
X163098Y15505D02*
X165197D01*
X168346Y18654D02*
X167821Y19179D01*
X166771D01*
X166247Y18654D01*
Y18129D01*
X166771Y17604D01*
X167821D01*
X168346Y17080D01*
Y16555D01*
X167821Y16030D01*
X166771D01*
X166247Y16555D01*
X171494Y18654D02*
X170970Y19179D01*
X169920D01*
X169395Y18654D01*
Y18129D01*
X169920Y17604D01*
X170970D01*
X171494Y17080D01*
Y16555D01*
X170970Y16030D01*
X169920D01*
X169395Y16555D01*
X506698Y25748D02*
X508797D01*
X507747D01*
Y22600D01*
X509846D02*
Y25748D01*
X511420D01*
X511945Y25223D01*
Y24174D01*
X511420Y23649D01*
X509846D01*
X512995Y22075D02*
X515094D01*
X516143Y22600D02*
Y25748D01*
X517193Y24699D01*
X518242Y25748D01*
Y22600D01*
X520866Y25748D02*
X519817D01*
X519292Y25223D01*
Y23124D01*
X519817Y22600D01*
X520866D01*
X521391Y23124D01*
Y25223D01*
X520866Y25748D01*
X522440D02*
Y22600D01*
X524015D01*
X524540Y23124D01*
Y25223D01*
X524015Y25748D01*
X522440D01*
X525589D02*
Y22600D01*
X527163D01*
X527688Y23124D01*
Y23649D01*
X527163Y24174D01*
X525589D01*
X527163D01*
X527688Y24699D01*
Y25223D01*
X527163Y25748D01*
X525589D01*
X506959Y8923D02*
X509058D01*
X508008D01*
Y5775D01*
X510107D02*
Y8923D01*
X511682D01*
X512206Y8399D01*
Y7349D01*
X511682Y6824D01*
X510107D01*
X513256Y5250D02*
X515355D01*
X516404Y8923D02*
Y6824D01*
X517454Y5775D01*
X518503Y6824D01*
Y8923D01*
X520078Y5775D02*
X521127D01*
X521652Y6300D01*
Y7349D01*
X521127Y7874D01*
X520078D01*
X519553Y7349D01*
Y6300D01*
X520078Y5775D01*
X522702Y7874D02*
Y6300D01*
X523226Y5775D01*
X524801D01*
Y7874D01*
X526375Y8399D02*
Y7874D01*
X525850D01*
X526900D01*
X526375D01*
Y6300D01*
X526900Y5775D01*
X279112Y25878D02*
X281210D01*
X280161D01*
Y22729D01*
X282260D02*
Y25878D01*
X283834D01*
X284359Y25353D01*
Y24303D01*
X283834Y23779D01*
X282260D01*
X285409Y22204D02*
X287508D01*
X288557Y22729D02*
X289607D01*
X289082D01*
Y25878D01*
X288557Y25353D01*
X293280Y22729D02*
X291181D01*
X293280Y24828D01*
Y25353D01*
X292755Y25878D01*
X291706D01*
X291181Y25353D01*
X294330Y25878D02*
Y23779D01*
X295379Y22729D01*
X296429Y23779D01*
Y25878D01*
X297478Y24303D02*
X299577D01*
X300627Y22729D02*
Y24828D01*
X301676Y25878D01*
X302726Y24828D01*
Y22729D01*
Y24303D01*
X300627D01*
X303775Y25878D02*
Y23254D01*
X304300Y22729D01*
X305350D01*
X305874Y23254D01*
Y25878D01*
X306924D02*
X309023Y22729D01*
Y25878D02*
X306924Y22729D01*
X286497Y45551D02*
X288596D01*
X287547D01*
Y42403D01*
X289646D02*
Y45551D01*
X291220D01*
X291745Y45027D01*
Y43977D01*
X291220Y43453D01*
X289646D01*
X292794Y41878D02*
X294893D01*
X298042Y45027D02*
X297517Y45551D01*
X296468D01*
X295943Y45027D01*
Y44502D01*
X296468Y43977D01*
X297517D01*
X298042Y43453D01*
Y42928D01*
X297517Y42403D01*
X296468D01*
X295943Y42928D01*
X301191Y45027D02*
X300666Y45551D01*
X299616D01*
X299092Y45027D01*
Y42928D01*
X299616Y42403D01*
X300666D01*
X301191Y42928D01*
Y43977D01*
X300141D01*
X302240Y42403D02*
Y45551D01*
X304339Y42403D01*
Y45551D01*
X305389D02*
Y42403D01*
X306963D01*
X307488Y42928D01*
Y45027D01*
X306963Y45551D01*
X305389D01*
X195288Y25207D02*
X197387D01*
X196337D01*
Y22059D01*
X198436D02*
Y25207D01*
X200011D01*
X200535Y24683D01*
Y23633D01*
X200011Y23108D01*
X198436D01*
X201585Y21534D02*
X203684D01*
X206833Y24683D02*
X206308Y25207D01*
X205258D01*
X204733Y24683D01*
Y22583D01*
X205258Y22059D01*
X206308D01*
X206833Y22583D01*
X209456Y25207D02*
X208407D01*
X207882Y24683D01*
Y22583D01*
X208407Y22059D01*
X209456D01*
X209981Y22583D01*
Y24683D01*
X209456Y25207D01*
X211031Y22059D02*
Y25207D01*
X212080Y24158D01*
X213130Y25207D01*
Y22059D01*
X214179D02*
Y25207D01*
X215754D01*
X216278Y24683D01*
Y23633D01*
X215754Y23108D01*
X214179D01*
X217328Y21534D02*
X219427D01*
X220476Y22059D02*
Y24158D01*
X221526Y25207D01*
X222575Y24158D01*
Y22059D01*
Y23633D01*
X220476D01*
X225724Y24683D02*
X225199Y25207D01*
X224150D01*
X223625Y24683D01*
Y22583D01*
X224150Y22059D01*
X225199D01*
X225724Y22583D01*
X226774Y25207D02*
X227823D01*
X227298D01*
Y22059D01*
X226774D01*
X227823D01*
X229397D02*
Y25207D01*
X231497Y22059D01*
Y25207D01*
X460110Y33333D02*
X462209D01*
X461159D01*
Y30184D01*
X463258D02*
Y33333D01*
X464833D01*
X465357Y32808D01*
Y31758D01*
X464833Y31234D01*
X463258D01*
X466407Y29659D02*
X468506D01*
X469556Y33333D02*
Y31234D01*
X470605Y30184D01*
X471655Y31234D01*
Y33333D01*
X473229Y30184D02*
Y32808D01*
Y31758D01*
X472704D01*
X473754D01*
X473229D01*
Y32808D01*
X473754Y33333D01*
X475328D02*
Y30184D01*
X476902D01*
X477427Y30709D01*
Y31234D01*
Y31758D01*
X476902Y32283D01*
X475328D01*
X478476Y29659D02*
X480576D01*
X481625Y33333D02*
Y30184D01*
X483199D01*
X483724Y30709D01*
Y32808D01*
X483199Y33333D01*
X481625D01*
X484774Y30184D02*
X485823D01*
X485298D01*
Y32283D01*
X484774D01*
X487397D02*
X488447Y30184D01*
X489497Y32283D01*
X385043Y18372D02*
X387142D01*
X386092D01*
Y15224D01*
X388191D02*
Y18372D01*
X389766D01*
X390290Y17847D01*
Y16798D01*
X389766Y16273D01*
X388191D01*
X391340Y14699D02*
X393439D01*
X394488Y18372D02*
Y16273D01*
X395538Y15224D01*
X396587Y16273D01*
Y18372D01*
X399211Y15224D02*
X398162D01*
X397637Y15748D01*
Y16798D01*
X398162Y17323D01*
X399211D01*
X399736Y16798D01*
Y16273D01*
X397637D01*
X400786Y17323D02*
Y15224D01*
Y16273D01*
X401310Y16798D01*
X401835Y17323D01*
X402360D01*
X403934D02*
Y15224D01*
Y16273D01*
X404459Y16798D01*
X404984Y17323D01*
X405509D01*
X444887Y47900D02*
X446986D01*
X445937D01*
Y44751D01*
X448036D02*
Y47900D01*
X449610D01*
X450135Y47375D01*
Y46325D01*
X449610Y45801D01*
X448036D01*
X451184Y44226D02*
X453284D01*
X456432Y47375D02*
X455907Y47900D01*
X454858D01*
X454333Y47375D01*
Y46850D01*
X454858Y46325D01*
X455907D01*
X456432Y45801D01*
Y45276D01*
X455907Y44751D01*
X454858D01*
X454333Y45276D01*
X457482Y44226D02*
X459581D01*
X460630Y47900D02*
X461680D01*
X461155D01*
Y44751D01*
X460630D01*
X461680D01*
X465353Y47375D02*
X464828Y47900D01*
X463779D01*
X463254Y47375D01*
Y46850D01*
X463779Y46325D01*
X464828D01*
X465353Y45801D01*
Y45276D01*
X464828Y44751D01*
X463779D01*
X463254Y45276D01*
X467977Y47900D02*
X466927D01*
X466403Y47375D01*
Y45276D01*
X466927Y44751D01*
X467977D01*
X468502Y45276D01*
Y47375D01*
X467977Y47900D01*
X471650Y47375D02*
X471126Y47900D01*
X470076D01*
X469551Y47375D01*
Y45276D01*
X470076Y44751D01*
X471126D01*
X471650Y45276D01*
Y46325D01*
X470601D01*
X472700Y44751D02*
Y47900D01*
X474799Y44751D01*
Y47900D01*
X475848D02*
Y44751D01*
X477423D01*
X477947Y45276D01*
Y47375D01*
X477423Y47900D01*
X475848D01*
X468115Y68372D02*
X470214D01*
X469164D01*
Y65223D01*
X471263D02*
Y68372D01*
X472837D01*
X473362Y67847D01*
Y66798D01*
X472837Y66273D01*
X471263D01*
X474412Y64699D02*
X476511D01*
X477560Y68372D02*
X478610D01*
X478085D01*
Y65223D01*
X477560D01*
X478610D01*
X482283Y67847D02*
X481758Y68372D01*
X480709D01*
X480184Y67847D01*
Y67323D01*
X480709Y66798D01*
X481758D01*
X482283Y66273D01*
Y65748D01*
X481758Y65223D01*
X480709D01*
X480184Y65748D01*
X484907Y68372D02*
X483857D01*
X483333Y67847D01*
Y65748D01*
X483857Y65223D01*
X484907D01*
X485432Y65748D01*
Y67847D01*
X484907Y68372D01*
X488580Y67847D02*
X488056Y68372D01*
X487006D01*
X486481Y67847D01*
Y65748D01*
X487006Y65223D01*
X488056D01*
X488580Y65748D01*
Y66798D01*
X487531D01*
X489630Y65223D02*
Y68372D01*
X491729Y65223D01*
Y68372D01*
X492778D02*
Y65223D01*
X494353D01*
X494878Y65748D01*
Y67847D01*
X494353Y68372D01*
X492778D01*
X409848Y55774D02*
X411947D01*
X410897D01*
Y52625D01*
X412996D02*
Y55774D01*
X414571D01*
X415096Y55249D01*
Y54199D01*
X414571Y53675D01*
X412996D01*
X416145Y52100D02*
X418244D01*
X421393Y55249D02*
X420868Y55774D01*
X419818D01*
X419294Y55249D01*
Y54724D01*
X419818Y54199D01*
X420868D01*
X421393Y53675D01*
Y53150D01*
X420868Y52625D01*
X419818D01*
X419294Y53150D01*
X422442Y52100D02*
X424541D01*
X425591Y55774D02*
X426640D01*
X426116D01*
Y52625D01*
X425591D01*
X426640D01*
X430314Y55249D02*
X429789Y55774D01*
X428739D01*
X428215Y55249D01*
Y54724D01*
X428739Y54199D01*
X429789D01*
X430314Y53675D01*
Y53150D01*
X429789Y52625D01*
X428739D01*
X428215Y53150D01*
X432937Y55774D02*
X431888D01*
X431363Y55249D01*
Y53150D01*
X431888Y52625D01*
X432937D01*
X433462Y53150D01*
Y55249D01*
X432937Y55774D01*
X436611Y55249D02*
X436086Y55774D01*
X435037D01*
X434512Y55249D01*
Y53150D01*
X435037Y52625D01*
X436086D01*
X436611Y53150D01*
Y54199D01*
X435561D01*
X437660Y52625D02*
Y55774D01*
X439759Y52625D01*
Y55774D01*
X440809D02*
Y52625D01*
X442383D01*
X442908Y53150D01*
Y55249D01*
X442383Y55774D01*
X440809D01*
X140685D02*
X142784D01*
X141735D01*
Y52625D01*
X143834D02*
Y55774D01*
X145408D01*
X145933Y55249D01*
Y54199D01*
X145408Y53675D01*
X143834D01*
X146983Y52100D02*
X149082D01*
X152230Y55249D02*
X151705Y55774D01*
X150656D01*
X150131Y55249D01*
Y53150D01*
X150656Y52625D01*
X151705D01*
X152230Y53150D01*
Y54199D01*
X151181D01*
X153280Y52625D02*
Y55774D01*
X155379Y52625D01*
Y55774D01*
X156428D02*
Y52625D01*
X158002D01*
X158527Y53150D01*
Y55249D01*
X158002Y55774D01*
X156428D01*
X222199Y11152D02*
X224298D01*
X223249D01*
Y8004D01*
X225348D02*
Y11152D01*
X226922D01*
X227447Y10627D01*
Y9578D01*
X226922Y9053D01*
X225348D01*
X228496Y7479D02*
X230595D01*
X233744Y10627D02*
X233219Y11152D01*
X232170D01*
X231645Y10627D01*
Y8528D01*
X232170Y8004D01*
X233219D01*
X233744Y8528D01*
X236368Y11152D02*
X235318D01*
X234793Y10627D01*
Y8528D01*
X235318Y8004D01*
X236368D01*
X236892Y8528D01*
Y10627D01*
X236368Y11152D01*
X237942Y8004D02*
Y11152D01*
X238991Y10103D01*
X240041Y11152D01*
Y8004D01*
X241090D02*
Y11152D01*
X242665D01*
X243190Y10627D01*
Y9578D01*
X242665Y9053D01*
X241090D01*
X304375Y69362D02*
X306474D01*
X305424D01*
Y66214D01*
X307523D02*
Y69362D01*
X309098D01*
X309622Y68838D01*
Y67788D01*
X309098Y67263D01*
X307523D01*
X308573D02*
X309622Y66214D01*
X310672D02*
Y68313D01*
X311721Y69362D01*
X312771Y68313D01*
Y66214D01*
Y67788D01*
X310672D01*
X313820Y66214D02*
Y69362D01*
X315919Y66214D01*
Y69362D01*
X319068Y68838D02*
X318543Y69362D01*
X317494D01*
X316969Y68838D01*
Y68313D01*
X317494Y67788D01*
X318543D01*
X319068Y67263D01*
Y66739D01*
X318543Y66214D01*
X317494D01*
X316969Y66739D01*
X320118Y66214D02*
X321167D01*
X320642D01*
Y69362D01*
X320118Y68838D01*
X287064Y89334D02*
Y86185D01*
Y87760D01*
X289163D01*
Y89334D01*
Y86185D01*
X292312Y88809D02*
X291787Y89334D01*
X290738D01*
X290213Y88809D01*
Y88284D01*
X290738Y87760D01*
X291787D01*
X292312Y87235D01*
Y86710D01*
X291787Y86185D01*
X290738D01*
X290213Y86710D01*
X293361Y88809D02*
X293886Y89334D01*
X294936D01*
X295461Y88809D01*
Y88284D01*
X294936Y87760D01*
X294411D01*
X294936D01*
X295461Y87235D01*
Y86710D01*
X294936Y86185D01*
X293886D01*
X293361Y86710D01*
X577692Y170078D02*
Y166930D01*
Y168504D01*
X579791D01*
Y170078D01*
Y166930D01*
X582939Y169553D02*
X582414Y170078D01*
X581365D01*
X580840Y169553D01*
Y169029D01*
X581365Y168504D01*
X582414D01*
X582939Y167979D01*
Y167454D01*
X582414Y166930D01*
X581365D01*
X580840Y167454D01*
X586088Y166930D02*
X583989D01*
X586088Y169029D01*
Y169553D01*
X585563Y170078D01*
X584514D01*
X583989Y169553D01*
X483400Y175294D02*
Y172146D01*
Y173720D01*
X485499D01*
Y175294D01*
Y172146D01*
X488648Y174769D02*
X488123Y175294D01*
X487073D01*
X486549Y174769D01*
Y174245D01*
X487073Y173720D01*
X488123D01*
X488648Y173195D01*
Y172670D01*
X488123Y172146D01*
X487073D01*
X486549Y172670D01*
X489697Y172146D02*
X490747D01*
X490222D01*
Y175294D01*
X489697Y174769D01*
X167455Y221522D02*
X166930Y222047D01*
X165880D01*
X165356Y221522D01*
Y219423D01*
X165880Y218898D01*
X166930D01*
X167455Y219423D01*
X168504Y218898D02*
X169554D01*
X169029D01*
Y222047D01*
X168504Y221522D01*
X171128D02*
X171653Y222047D01*
X172702D01*
X173227Y221522D01*
Y219423D01*
X172702Y218898D01*
X171653D01*
X171128Y219423D01*
Y221522D01*
X146523Y117519D02*
Y114895D01*
X147048Y114371D01*
X148097D01*
X148622Y114895D01*
Y117519D01*
X149672Y114371D02*
X150721D01*
X150196D01*
Y117519D01*
X149672Y116994D01*
X127834Y223071D02*
X129933D01*
X128883D01*
Y219922D01*
X130982D02*
Y223071D01*
X132557D01*
X133081Y222546D01*
Y221497D01*
X132557Y220972D01*
X130982D01*
X134131Y219398D02*
X136230D01*
X137279Y223071D02*
Y220972D01*
X138329Y219922D01*
X139379Y220972D01*
Y223071D01*
X140428Y222021D02*
Y219922D01*
Y220972D01*
X140953Y221497D01*
X141478Y222021D01*
X142002D01*
X145151Y219922D02*
X144101D01*
X143577Y220447D01*
Y221497D01*
X144101Y222021D01*
X145151D01*
X145676Y221497D01*
Y220972D01*
X143577D01*
X148824Y222021D02*
X147250D01*
X146725Y221497D01*
Y220447D01*
X147250Y219922D01*
X148824D01*
X152101Y43898D02*
Y47047D01*
X153675D01*
X154200Y46522D01*
Y45472D01*
X153675Y44948D01*
X152101D01*
X153150D02*
X154200Y43898D01*
X157348Y47047D02*
X156299Y46522D01*
X155249Y45472D01*
Y44423D01*
X155774Y43898D01*
X156824D01*
X157348Y44423D01*
Y44948D01*
X156824Y45472D01*
X155249D01*
X152101Y72442D02*
Y75590D01*
X153675D01*
X154200Y75065D01*
Y74016D01*
X153675Y73491D01*
X152101D01*
X153150D02*
X154200Y72442D01*
X157348Y75590D02*
X155249D01*
Y74016D01*
X156299Y74541D01*
X156824D01*
X157348Y74016D01*
Y72966D01*
X156824Y72442D01*
X155774D01*
X155249Y72966D01*
X151378Y101284D02*
Y104433D01*
X152953D01*
X153478Y103908D01*
Y102859D01*
X152953Y102334D01*
X151378D01*
X152428D02*
X153478Y101284D01*
X156101D02*
Y104433D01*
X154527Y102859D01*
X156626D01*
X231299Y63370D02*
Y65469D01*
X230774Y65994D01*
X229725D01*
X229200Y65469D01*
Y63370D01*
X229725Y62846D01*
X230774D01*
X230250Y63895D02*
X231299Y62846D01*
X230774D02*
X231299Y63370D01*
X232349Y62846D02*
X233398D01*
X232873D01*
Y65994D01*
X232349Y65469D01*
X583267Y17061D02*
X580119D01*
Y18635D01*
X580643Y19160D01*
X581693D01*
X582218Y18635D01*
Y17061D01*
X583267Y22309D02*
Y20210D01*
X581168Y22309D01*
X580643D01*
X580119Y21784D01*
Y20735D01*
X580643Y20210D01*
X589173Y110106D02*
X586024D01*
Y111680D01*
X586549Y112205D01*
X587598D01*
X588123Y111680D01*
Y110106D01*
X589173Y113254D02*
Y114304D01*
Y113779D01*
X586024D01*
X586549Y113254D01*
X146600Y193446D02*
Y196594D01*
X148699Y193446D01*
Y196594D01*
X149749D02*
X151848D01*
X150798D01*
Y193446D01*
X154996Y196070D02*
X154472Y196594D01*
X153422D01*
X152897Y196070D01*
Y193970D01*
X153422Y193446D01*
X154472D01*
X154996Y193970D01*
X156046Y193446D02*
X157095D01*
X156570D01*
Y196594D01*
X156046Y196070D01*
X107941Y131300D02*
Y134448D01*
X108991Y133399D01*
X110040Y134448D01*
Y131300D01*
X112664Y134448D02*
X111615D01*
X111090Y133924D01*
Y131825D01*
X111615Y131300D01*
X112664D01*
X113189Y131825D01*
Y133924D01*
X112664Y134448D01*
X114239D02*
Y132349D01*
X115288Y131300D01*
X116338Y132349D01*
Y134448D01*
X117387Y131300D02*
X118437D01*
X117912D01*
Y134448D01*
X117387Y133924D01*
X103499Y202294D02*
X101400D01*
Y200720D01*
X102450D01*
X101400D01*
Y199146D01*
X104549D02*
X105598D01*
X105073D01*
Y202294D01*
X104549Y201769D01*
X516300Y151894D02*
Y148746D01*
X517874D01*
X518399Y149270D01*
Y151370D01*
X517874Y151894D01*
X516300D01*
X521548Y148746D02*
X519449D01*
X521548Y150845D01*
Y151370D01*
X521023Y151894D01*
X519973D01*
X519449Y151370D01*
X516900Y204794D02*
Y201646D01*
X518474D01*
X518999Y202170D01*
Y204270D01*
X518474Y204794D01*
X516900D01*
X520049Y201646D02*
X521098D01*
X520573D01*
Y204794D01*
X520049Y204270D01*
X8924Y59841D02*
X9448Y60366D01*
Y61415D01*
X8924Y61940D01*
X6825D01*
X6300Y61415D01*
Y60366D01*
X6825Y59841D01*
X9448Y57217D02*
Y58267D01*
X8924Y58792D01*
X6825D01*
X6300Y58267D01*
Y57217D01*
X6825Y56692D01*
X8924D01*
X9448Y57217D01*
X6300Y55643D02*
X9448D01*
X6300Y53544D01*
X9448D01*
X6300Y52494D02*
X9448D01*
X6300Y50395D01*
X9448D01*
X6300Y49346D02*
Y48296D01*
Y48821D01*
X9448D01*
X8924Y49346D01*
X534143Y67186D02*
X533618Y67711D01*
X532568D01*
X532044Y67186D01*
Y65087D01*
X532568Y64563D01*
X533618D01*
X534143Y65087D01*
X537291Y67711D02*
X535192D01*
Y66137D01*
X536242Y66662D01*
X536766D01*
X537291Y66137D01*
Y65087D01*
X536766Y64563D01*
X535717D01*
X535192Y65087D01*
D11*
X273205Y51177D02*
X272652Y51938D01*
X271757Y51648D01*
Y50707D01*
X272652Y50416D01*
X273205Y51177D01*
X561545Y189957D02*
X560795Y190390D01*
Y189524D01*
X561545Y189957D01*
X560954Y137075D02*
X560204Y137508D01*
Y136642D01*
X560954Y137075D01*
X311720Y157462D02*
X311713Y158462D01*
X311691Y159462D01*
X311655Y160461D01*
X311605Y161460D01*
X311540Y162458D01*
X311461Y163455D01*
X311368Y164451D01*
X311260Y165445D01*
X311137Y166437D01*
X311001Y167428D01*
X310850Y168417D01*
X310685Y169403D01*
X310506Y170387D01*
X310313Y171369D01*
X310105Y172347D01*
X309884Y173322D01*
X309648Y174294D01*
X309399Y175263D01*
X309135Y176227D01*
X308858Y177188D01*
X308566Y178145D01*
X308261Y179097D01*
X307943Y180045D01*
X307611Y180989D01*
X307265Y181927D01*
X306906Y182861D01*
X306533Y183789D01*
X306147Y184711D01*
X305747Y185628D01*
X305335Y186539D01*
X304909Y187444D01*
X304471Y188343D01*
X304019Y189235D01*
X303555Y190121D01*
X303078Y191000D01*
X302588Y191873D01*
X302086Y192737D01*
X301572Y193595D01*
X301045Y194445D01*
X300506Y195288D01*
X299955Y196122D01*
X299392Y196949D01*
X298817Y197767D01*
X298230Y198577D01*
X297632Y199378D01*
X297022Y200171D01*
X296401Y200955D01*
X295768Y201730D01*
X295125Y202495D01*
X294471Y203252D01*
X293805Y203998D01*
X293129Y204735D01*
X292443Y205463D01*
X291746Y206180D01*
X291039Y206887D01*
X290321Y207584D01*
X289594Y208271D01*
X288857Y208946D01*
X288110Y209612D01*
X287354Y210266D01*
X286588Y210910D01*
X285813Y211542D01*
X285030Y212163D01*
X284237Y212773D01*
X283436Y213371D01*
X282626Y213958D01*
X281807Y214533D01*
X280981Y215096D01*
X280146Y215647D01*
X279304Y216186D01*
X278454Y216713D01*
X277596Y217228D01*
X276731Y217730D01*
X275859Y218219D01*
X274980Y218696D01*
X274094Y219161D01*
X273202Y219612D01*
X272303Y220051D01*
X271398Y220476D01*
X270487Y220889D01*
X269570Y221288D01*
X268647Y221674D01*
X267719Y222047D01*
X266786Y222406D01*
X265847Y222752D01*
X264904Y223084D01*
X263956Y223403D01*
X263004Y223708D01*
X262047Y223999D01*
X261086Y224276D01*
X260121Y224540D01*
X259153Y224789D01*
X258181Y225025D01*
X257206Y225247D01*
X256227Y225454D01*
X255246Y225647D01*
X254262Y225827D01*
X253276Y225991D01*
X252287Y226142D01*
X251296Y226279D01*
X250304Y226401D01*
X249309Y226509D01*
X248313Y226602D01*
X247317Y226681D01*
X246319Y226746D01*
X245320Y226797D01*
X244320Y226833D01*
X243320Y226854D01*
X242320Y226862D01*
X241320Y226854D01*
X240320Y226833D01*
X239321Y226797D01*
X238322Y226746D01*
X237324Y226681D01*
X236327Y226602D01*
X235331Y226509D01*
X234337Y226401D01*
X233344Y226279D01*
X232353Y226142D01*
X231365Y225991D01*
X230378Y225826D01*
X229395Y225647D01*
X228413Y225454D01*
X227435Y225246D01*
X226460Y225025D01*
X225488Y224789D01*
X224519Y224540D01*
X223554Y224276D01*
X222593Y223999D01*
X221637Y223708D01*
X220684Y223403D01*
X219736Y223084D01*
X218793Y222752D01*
X217854Y222406D01*
X216921Y222047D01*
X215993Y221674D01*
X215070Y221288D01*
X214154Y220889D01*
X213242Y220476D01*
X212337Y220051D01*
X211438Y219612D01*
X210546Y219161D01*
X209660Y218696D01*
X208781Y218219D01*
X207909Y217730D01*
X207044Y217228D01*
X206187Y216713D01*
X205337Y216186D01*
X204494Y215647D01*
X203660Y215096D01*
X202833Y214533D01*
X202015Y213958D01*
X201205Y213371D01*
X200403Y212773D01*
X199611Y212163D01*
X198827Y211542D01*
X198052Y210910D01*
X197286Y210266D01*
X196530Y209612D01*
X195783Y208946D01*
X195046Y208270D01*
X194319Y207584D01*
X193602Y206887D01*
X192895Y206180D01*
X192198Y205463D01*
X191511Y204735D01*
X190835Y203998D01*
X190170Y203251D01*
X189515Y202495D01*
X188872Y201729D01*
X188240Y200955D01*
X187619Y200171D01*
X187009Y199378D01*
X186410Y198577D01*
X185824Y197767D01*
X185249Y196949D01*
X184686Y196122D01*
X184135Y195287D01*
X183596Y194445D01*
X183069Y193595D01*
X182554Y192737D01*
X182052Y191872D01*
X181562Y191000D01*
X181085Y190121D01*
X180621Y189235D01*
X180170Y188343D01*
X179731Y187444D01*
X179306Y186539D01*
X178893Y185628D01*
X178494Y184711D01*
X178108Y183789D01*
X177735Y182861D01*
X177376Y181927D01*
X177030Y180989D01*
X176698Y180045D01*
X176379Y179097D01*
X176074Y178145D01*
X175783Y177188D01*
X175505Y176227D01*
X175242Y175263D01*
X174993Y174294D01*
X174757Y173322D01*
X174535Y172347D01*
X174328Y171369D01*
X174135Y170387D01*
X173955Y169403D01*
X173790Y168417D01*
X173640Y167428D01*
X173503Y166437D01*
X173381Y165445D01*
X173273Y164451D01*
X173179Y163455D01*
X173100Y162458D01*
X173036Y161460D01*
X172985Y160461D01*
X172949Y159462D01*
X172927Y158462D01*
X172920Y157462D01*
X172927Y156462D01*
X172949Y155462D01*
X172985Y154462D01*
X173036Y153463D01*
X173100Y152465D01*
X173179Y151469D01*
X173273Y150473D01*
X173381Y149478D01*
X173503Y148486D01*
X173640Y147495D01*
X173790Y146506D01*
X173955Y145520D01*
X174135Y144536D01*
X174328Y143555D01*
X174535Y142577D01*
X174757Y141601D01*
X174993Y140629D01*
X175242Y139661D01*
X175505Y138696D01*
X175783Y137735D01*
X176074Y136778D01*
X176379Y135826D01*
X176698Y134878D01*
X177030Y133935D01*
X177376Y132996D01*
X177735Y132063D01*
X178108Y131135D01*
X178494Y130212D01*
X178893Y129295D01*
X179306Y128384D01*
X179731Y127479D01*
X180170Y126580D01*
X180621Y125688D01*
X181085Y124802D01*
X181562Y123923D01*
X182052Y123051D01*
X182554Y122186D01*
X183069Y121328D01*
X183596Y120478D01*
X184134Y119636D01*
X184686Y118801D01*
X185249Y117975D01*
X185824Y117157D01*
X186410Y116347D01*
X187009Y115545D01*
X187618Y114752D01*
X188240Y113969D01*
X188872Y113194D01*
X189515Y112428D01*
X190170Y111672D01*
X190835Y110925D01*
X191511Y110188D01*
X192198Y109461D01*
X192894Y108744D01*
X193602Y108036D01*
X194319Y107339D01*
X195046Y106653D01*
X195783Y105977D01*
X196530Y105312D01*
X197286Y104657D01*
X198052Y104014D01*
X198827Y103381D01*
X199610Y102760D01*
X200403Y102150D01*
X201205Y101552D01*
X202015Y100965D01*
X202833Y100391D01*
X203659Y99827D01*
X204494Y99276D01*
X205336Y98737D01*
X206187Y98210D01*
X207044Y97696D01*
X207909Y97194D01*
X208781Y96704D01*
X209660Y96227D01*
X210546Y95763D01*
X211438Y95311D01*
X212337Y94873D01*
X213242Y94447D01*
X214153Y94035D01*
X215070Y93635D01*
X215993Y93249D01*
X216921Y92877D01*
X217854Y92517D01*
X218793Y92171D01*
X219736Y91839D01*
X220684Y91521D01*
X221636Y91216D01*
X222593Y90924D01*
X223554Y90647D01*
X224519Y90383D01*
X225487Y90134D01*
X226459Y89898D01*
X227434Y89677D01*
X228413Y89469D01*
X229394Y89276D01*
X230378Y89097D01*
X231364Y88932D01*
X232353Y88781D01*
X233344Y88645D01*
X234336Y88522D01*
X235331Y88415D01*
X236326Y88321D01*
X237323Y88242D01*
X238321Y88177D01*
X239320Y88126D01*
X240320Y88090D01*
X241319Y88069D01*
X242320Y88062D01*
X243320Y88069D01*
X244320Y88090D01*
X245319Y88126D01*
X246318Y88177D01*
X247316Y88242D01*
X248313Y88321D01*
X249309Y88414D01*
X250303Y88522D01*
X251295Y88644D01*
X252286Y88781D01*
X253275Y88932D01*
X254261Y89097D01*
X255245Y89276D01*
X256226Y89469D01*
X257205Y89676D01*
X258180Y89898D01*
X259152Y90134D01*
X260121Y90383D01*
X261085Y90647D01*
X262046Y90924D01*
X263003Y91215D01*
X263955Y91520D01*
X264903Y91839D01*
X265847Y92171D01*
X266785Y92517D01*
X267719Y92876D01*
X268647Y93249D01*
X269569Y93635D01*
X270486Y94034D01*
X271397Y94447D01*
X272302Y94872D01*
X273201Y95311D01*
X274094Y95762D01*
X274979Y96226D01*
X275858Y96703D01*
X276730Y97193D01*
X277595Y97695D01*
X278453Y98210D01*
X279303Y98737D01*
X280145Y99275D01*
X280980Y99827D01*
X281806Y100390D01*
X282625Y100965D01*
X283435Y101551D01*
X284236Y102150D01*
X285029Y102759D01*
X285813Y103381D01*
X286588Y104013D01*
X287353Y104656D01*
X288109Y105311D01*
X288856Y105976D01*
X289593Y106652D01*
X290321Y107339D01*
X291038Y108035D01*
X291745Y108743D01*
X292442Y109460D01*
X293129Y110187D01*
X293805Y110924D01*
X294470Y111671D01*
X295124Y112427D01*
X295768Y113193D01*
X296400Y113968D01*
X297021Y114751D01*
X297631Y115544D01*
X298229Y116346D01*
X298816Y117155D01*
X299391Y117974D01*
X299954Y118800D01*
X300505Y119635D01*
X301044Y120477D01*
X301571Y121327D01*
X302086Y122185D01*
X302588Y123050D01*
X303078Y123922D01*
X303555Y124801D01*
X304019Y125687D01*
X304470Y126579D01*
X304909Y127478D01*
X305334Y128383D01*
X305747Y129294D01*
X306146Y130211D01*
X306532Y131133D01*
X306905Y132062D01*
X307264Y132995D01*
X307610Y133933D01*
X307943Y134877D01*
X308261Y135825D01*
X308566Y136777D01*
X308857Y137734D01*
X309135Y138695D01*
X309398Y139660D01*
X309648Y140628D01*
X309883Y141600D01*
X310105Y142575D01*
X310312Y143553D01*
X310506Y144535D01*
X310685Y145519D01*
X310850Y146505D01*
X311001Y147494D01*
X311137Y148485D01*
X311259Y149477D01*
X311367Y150471D01*
X311461Y151467D01*
X311540Y152464D01*
X311605Y153462D01*
X311655Y154461D01*
X311691Y155460D01*
X311713Y156460D01*
X311720Y157460D01*
Y157462D01*
X229005Y44229D02*
X269205D01*
X269705Y41229D02*
Y59528D01*
X228505Y41229D02*
X269705D01*
X228505D02*
Y59528D01*
X269705D01*
X516654Y184426D02*
X557554D01*
X516154Y198326D02*
X558054D01*
X516154Y179226D02*
Y198326D01*
Y179226D02*
X558054D01*
Y198326D01*
X516063Y131544D02*
X556963D01*
X515563Y145444D02*
X557463D01*
X515563Y126344D02*
Y145444D01*
Y126344D02*
X557463D01*
Y145444D01*
X169920Y174662D02*
Y179662D01*
X167420Y177162D02*
X172420D01*
D12*
X195777Y30673D02*
Y81854D01*
Y30673D02*
X298139D01*
Y81854D01*
X195777D02*
X298139D01*
X195777Y38547D02*
X298139D01*
X485489Y116342D02*
Y167524D01*
Y116342D02*
X587852D01*
Y167524D01*
X485489D02*
X587852D01*
X485489Y124216D02*
X587852D01*
X484630Y181563D02*
X586992D01*
X484630Y224870D02*
X586992D01*
Y173689D02*
Y224870D01*
X484630Y173689D02*
X586992D01*
X484630D02*
Y224870D01*
X162596Y95451D02*
X166533D01*
X162596Y38365D02*
X166533D01*
X162596Y66908D02*
X166533D01*
D13*
X1378Y185039D02*
X13189D01*
X1378Y66929D02*
Y185039D01*
Y66929D02*
X13189D01*
X87992Y27559D02*
Y224410D01*
X13189D02*
X87992D01*
X13189Y185039D02*
Y224410D01*
Y66929D02*
Y185039D01*
Y27559D02*
Y66929D01*
Y27559D02*
X87992D01*
X133563Y180118D02*
Y195866D01*
X100689Y180118D02*
X133563D01*
X100689D02*
Y195866D01*
X133563D01*
M02*
