M48
;Layer_Color=9474304
;FILE_FORMAT=2:4
INCH,TZ
;TYPE=PLATED
T12F00S00C0.0787
T14F00S00C0.1181
;TYPE=NON_PLATED
T17F00S00C0.0787
%
G90
G05
T12
G00X19999Y6689
M15
G01Y7476
M16
G00X29395Y6689
M15
G01Y7476
M16
G00X48970Y15256
M15
G01Y16043
M16
G00X48884Y20991
M15
G01Y21778
M16
G00X58280Y20991
M15
G01Y21778
M16
G00X58366Y15256
M15
G01Y16043
M16
T14
G00X56693Y1181
M15
G01Y1181
M16
G00X4862Y1181
M15
G01Y1181
M16
G00X11319Y21260
M15
G01Y21260
M16
G00X56693Y21260
M15
G01Y21260
M16
T17
G00X42520Y0
M15
G01Y14961
M16
M17
M30
