M48
;Layer_Color=9474304
;FILE_FORMAT=2:4
INCH,TZ
;TYPE=PLATED
T1F00S00C0.0118
T2F00S00C0.0197
T3F00S00C0.0295
T4F00S00C0.0354
T5F00S00C0.0394
T6F00S00C0.0512
T7F00S00C0.0551
T8F00S00C0.0591
T9F00S00C0.0630
T10F00S00C0.0709
T11F00S00C0.0787
T13F00S00C0.1181
T15F00S00C0.1575
T16F00S00C0.1772
;TYPE=NON_PLATED
%
T01
X47551Y1189
X47540Y1716
X47835Y2362
X48188Y2102
X49055Y2086
X49843Y2087
X49606Y1181
X51968
X53150
X54331
X51299Y2205
X49606Y3543
X49882Y3976
X49961Y5276
X49252Y4882
X47835Y4724
X47244Y3543
X51260Y5669
X51890Y5039
X52559Y4724
X53465Y4803
X54174Y5519
X54921Y4724
X46063Y3543
X45857Y2940
X45886Y2283
X45408Y2550
X45455Y3334
X44882Y3543
X40157
X39862Y3051
X38976
X38976Y3543
X38386Y2461
X37205Y2362
X36866Y2197
X35969Y2220
X35157Y2362
X34302Y2271
X33661Y2362
Y4724
X32972Y4823
X32480Y4724
X31890Y3543
X34252Y5906
X34760Y5927
X35433Y5906
X36024Y7087
X34843
X35433Y8268
X34252
X36024Y9449
X38386
X39567
X40748
X40157Y10630
X38976
X37795
X38976Y8268
X40157
X40748Y7087
X39567
X38386
X38976Y5906
X39567Y4724
X40748
Y2362
X38386Y4724
X37205
X36024
X30118
X28937
X28999Y4340
X29005Y3842
X29481Y3210
X30709Y3543
X30020Y1280
X29557Y1300
X26378Y1280
X25401Y1186
X25019Y2188
X24803Y3543
X25886Y3543
X26323Y3559
X23622Y1181
X22969Y1184
X21190Y785
X18819Y1573
X19303Y2852
X16788Y2511
X17360Y802
X14764Y2362
T02
X21752Y9547
X21750Y10438
X21063Y10433
X14193Y982
T03
X50787Y8858
X52756
T04
X52519Y13707
X54645
X54704Y18996
X52578
T05
X48937Y4016
X47992Y5394
X48780Y7598
X53465Y2480
X53563Y709
X44921Y5472
X39822Y5503
X37815Y1693
X31572Y2404
X31299Y4429
X21634Y925
X18819Y2283
X17441Y3836
Y6691
Y9545
X15669Y11339
X15472Y9545
Y6691
Y3836
X14980Y1693
X13602Y2480
X13386Y5512
X10925Y14862
Y16831
X10713Y18799
X12713
X15669Y20787
X15647Y22105
T06
X13287Y10177
Y12264
Y14350
Y16437
T07
X23910Y5118
X24910
X25910
T08
X56299Y3512
Y5512
Y8039
Y10039
X32697Y13915
X15767Y14370
Y17322
X32697Y17832
Y20835
T09
X34783Y8862
Y10862
Y12862
X44783
Y10862
Y8862
Y14862
Y16862
Y18862
Y20862
X34783
Y18862
Y16862
Y14862
T10
X7736Y9055
Y12598
Y16142
T11
X24232Y13779
Y17716
T13
X1976Y1411
T15
X46476Y10925
Y18879
T16
X4862Y4724
Y20472
M30
